<?xml version="1.0" encoding="utf-8"?>
<!-- Generator: Adobe Illustrator 21.0.0, SVG Export Plug-In . SVG Version: 6.00 Build 0)  -->
<svg version="1.0" id="图层_1" xmlns="http://www.w3.org/2000/svg" xmlns:xlink="http://www.w3.org/1999/xlink" x="0px" y="0px"
	 viewBox="0 0 283.5 98.3" style="enable-background:new 0 0 283.5 98.3;" xml:space="preserve">
<style type="text/css">
	.st0{fill:#FFFFFF;}
	.st1{enable-background:new    ;}
</style>
<g>
	<g>
		<path class="st0" d="M200.1,50.4c-0.1,0-0.2,0-0.3-0.1c-0.3-0.2-0.4-0.5-0.2-0.8l6.8-11.7c0.2-0.3,0.5-0.4,0.8-0.2
			c0.3,0.2,0.4,0.5,0.2,0.8l-6.8,11.7C200.5,50.3,200.3,50.4,200.1,50.4z"/>
	</g>
</g>
<g>
	<g>
		<path class="st0" d="M79.5,50.4c-0.2,0-0.4-0.1-0.5-0.3l-6.8-11.7c-0.2-0.3-0.1-0.7,0.2-0.8c0.3-0.2,0.7-0.1,0.8,0.2l6.8,11.7
			c0.2,0.3,0.1,0.7-0.2,0.8C79.7,50.4,79.6,50.4,79.5,50.4z"/>
	</g>
</g>
<g id="XMLID_6_" class="st1">
	<path class="st0" d="M143.4,9.7V12c0,2.3-0.9,4.2-3.3,4.1c-2.3-0.1-3.1-2.1-3-4.1c0-0.7,0-1.4,0-2.1c0-2.2,1-3.8,3.3-3.8
		C142.4,6.2,143.4,7.8,143.4,9.7z M138,9.9c0,0.7,0,1.4,0,2.1c0,1.5,0.7,3,2.1,3.1c1.6,0,2.4-1.4,2.4-3.1V9.7c0-1.4-0.7-2.5-2.1-2.6
		C138.8,7,138.1,8.3,138,9.9z"/>
</g>
<g id="XMLID_7_" class="st1">
	<path class="st0" d="M64.2,37c0.5-0.1,1.2-0.4,1.8-0.8c0.6-0.4,1.2-0.9,1.3-1.4c0.2-0.6,0.1-1.2-0.2-1.7c-0.4-0.7-1.2-1.1-1.8-0.8
		c-0.6,0.3-1.3,0.7-1.8,1l-1,0.6L62,33.3l1.5-0.9c0.4-0.3,0.8-0.6,1.1-0.9c0.5-0.5,0.5-1.3,0.2-2c-0.2-0.4-0.7-0.7-1.2-0.8
		c-0.4,0-1,0.2-1.5,0.5c-0.7,0.4-1.3,1-1.8,1.4L59.6,30c0.5-0.5,1.2-1.1,1.9-1.5c0.7-0.4,1.4-0.7,2.1-0.7c0.8,0.1,1.5,0.6,1.9,1.2
		c0.4,0.7,0.5,1.6,0.2,2.4c0.9,0,1.7,0.6,2.1,1.3c0.4,0.7,0.6,1.6,0.3,2.5c-0.3,0.7-1,1.4-1.7,1.9c-0.7,0.4-1.5,0.8-2.1,0.9L64.2,37
		z"/>
	<path class="st0" d="M73.4,25.3l1.2,2c1.2,1.9,1.4,4-0.7,5.2c-2,1.1-3.7-0.2-4.7-1.9c-0.4-0.6-0.7-1.2-1.1-1.8
		C67,26.9,67,25,69,23.9C70.7,22.9,72.4,23.7,73.4,25.3z M68.9,28.3c0.4,0.6,0.7,1.2,1.1,1.8c0.8,1.3,2.1,2.2,3.4,1.6
		c1.4-0.9,1.3-2.4,0.4-3.9l-1.2-2c-0.7-1.2-1.9-1.8-3.1-1.1C68,25.5,68.1,26.9,68.9,28.3z"/>
</g>
<g id="XMLID_8_" class="st1">
	<path class="st0" d="M12.1,82.6l-0.2,0.3c-0.4,0.5-0.9,1-1.2,1.6c-0.6,1-0.8,2.1,0.6,3.2c0.1,0.1,0.4,0.2,0.7,0.4
		c0.3-0.9,0.6-1.5,0.9-2.1c1.1-1.8,2.5-1.9,3.7-1.4l0.5,0.3c1.2,0.7,1.5,1.3,1.7,2.1l0,0c0.2,0.7-0.1,1.5-0.5,2.2
		c-0.4,0.6-0.9,1.2-1.4,1.4c-0.9,0.4-2.2,0-3.4-0.6l-2.7-1.6c-1.9-1.4-1.7-3.1-0.9-4.4c0.4-0.6,0.9-1.2,1.3-1.7l0,0l0.2-0.2
		L12.1,82.6z M12.9,88.5c0.5,0.3,0.9,0.5,1,0.6c1,0.6,1.9,0.9,2.6,0.6l0,0c0.3-0.2,0.7-0.5,1-1c0.3-0.5,0.5-1.1,0.4-1.5
		c-0.1-0.5-0.4-1-1.3-1.5c-0.1-0.1-0.3-0.2-0.4-0.2c-0.8-0.4-1.7-0.3-2.5,1C13.4,86.9,13.1,87.6,12.9,88.5z"/>
	<path class="st0" d="M18.7,75.9l2,1.2c2,1.2,3.1,2.9,1.8,4.9c-1.2,1.9-3.3,1.6-5.1,0.5c-0.6-0.4-1.2-0.7-1.8-1.1
		c-1.9-1.1-2.8-2.8-1.5-4.8C15.2,75,17.1,75,18.7,75.9z M16.1,80.7c0.6,0.3,1.2,0.7,1.8,1.1c1.3,0.8,2.9,0.9,3.8-0.2
		c0.8-1.4,0-2.8-1.5-3.6l-2-1.2C17,76,15.7,76,14.9,77.2C14,78.6,14.8,79.8,16.1,80.7z"/>
</g>
<g id="XMLID_3_" class="st1">
	<path class="st0" d="M204.7,30.1c0.3,0.4,0.9,0.9,1.5,1.3c0.6,0.4,1.3,0.7,1.8,0.6c0.6-0.1,1.1-0.4,1.4-0.9c0.4-0.6,0.4-1.5-0.1-2
		c-0.5-0.4-1.1-0.8-1.7-1.2l-1-0.6l0.5-0.8l1.5,0.9c0.4,0.2,0.8,0.5,1.3,0.6c0.7,0.3,1.4-0.1,1.8-0.7c0.2-0.4,0.3-0.9,0.2-1.4
		c-0.2-0.4-0.6-0.8-1.2-1.1c-0.7-0.4-1.5-0.8-2.1-1l0.4-0.9c0.6,0.3,1.5,0.6,2.2,1.1c0.7,0.4,1.3,1,1.5,1.6c0.3,0.8,0.2,1.6-0.2,2.2
		c-0.4,0.7-1.2,1.2-2,1.2c0.4,0.8,0.2,1.7-0.3,2.5c-0.4,0.7-1.2,1.3-2.1,1.4c-0.8,0.1-1.7-0.3-2.5-0.7c-0.7-0.4-1.3-1-1.7-1.5
		L204.7,30.1z"/>
	<path class="st0" d="M219.3,33.2l-1.2,2c-1.2,1.9-3,3-5,1.7c-1.9-1.3-1.5-3.4-0.4-5.1c0.4-0.6,0.8-1.2,1.1-1.8
		c1.2-1.8,2.9-2.7,4.8-1.4C220.3,29.7,220.3,31.6,219.3,33.2z M214.6,30.5c-0.4,0.6-0.8,1.2-1.1,1.8c-0.8,1.3-1,2.9,0.1,3.8
		c1.4,0.9,2.8,0.1,3.7-1.4l1.2-2c0.7-1.2,0.8-2.5-0.4-3.3C216.8,28.4,215.5,29.1,214.6,30.5z"/>
</g>
<g id="XMLID_5_" class="st1">
	<path class="st0" d="M267.3,79.5l-0.1-0.3c-0.2-0.6-0.4-1.3-0.7-1.9c-0.5-1-1.4-1.8-3-1.1c-0.1,0-0.4,0.2-0.7,0.4
		c0.6,0.7,1,1.3,1.3,1.8c1,1.9,0.3,3.1-0.8,3.9l-0.5,0.3c-1.2,0.7-1.9,0.6-2.7,0.3l0,0c-0.7-0.2-1.3-0.9-1.6-1.6
		c-0.3-0.7-0.5-1.4-0.4-2c0.2-1,1.1-1.9,2.3-2.6l2.8-1.5c2.2-0.8,3.5,0.2,4.2,1.6c0.3,0.6,0.5,1.4,0.8,2l0,0l0.1,0.3L267.3,79.5z
		 M261.8,77c-0.5,0.3-0.9,0.5-1,0.6c-1,0.5-1.8,1.2-1.9,1.9l0,0c-0.1,0.4,0.1,0.9,0.4,1.4c0.3,0.5,0.7,1,1.1,1.1
		c0.5,0.2,1,0.2,2-0.3c0.1-0.1,0.3-0.1,0.4-0.2c0.8-0.4,1.1-1.3,0.4-2.6C262.9,78.3,262.5,77.7,261.8,77z"/>
	<path class="st0" d="M269.5,88.6l-2.1,1.1c-2,1.1-4.1,1.2-5.2-1.1c-1-2.1,0.4-3.7,2.2-4.6c0.6-0.3,1.3-0.6,1.9-0.9
		c1.9-1,3.9-0.9,4.9,1.2C272.1,86.1,271.1,87.7,269.5,88.6z M266.8,83.9c-0.6,0.3-1.2,0.6-1.9,0.9c-1.3,0.7-2.3,2-1.8,3.3
		c0.8,1.5,2.3,1.5,3.9,0.6l2.1-1.1c1.2-0.6,1.9-1.8,1.3-3.1C269.7,83.2,268.2,83.2,266.8,83.9z"/>
</g>
<g>
	<g>
		<path class="st0" d="M139.8,34.2c-0.3,0-0.6-0.3-0.6-0.6V20.1c0-0.3,0.3-0.6,0.6-0.6c0.3,0,0.6,0.3,0.6,0.6v13.5
			C140.4,34,140.1,34.2,139.8,34.2z"/>
	</g>
</g>
<g>
	<g>
		<path class="st0" d="M160.7,36.1c0,0-0.1,0-0.1,0c-0.3-0.1-0.6-0.4-0.5-0.7l1.2-6.7c0.1-0.3,0.4-0.6,0.7-0.5
			c0.3,0.1,0.6,0.4,0.5,0.7l-1.2,6.7C161.3,35.9,161,36.1,160.7,36.1z"/>
	</g>
</g>
<g>
	<g>
		<path class="st0" d="M181,41.5c-0.1,0-0.1,0-0.2,0c-0.3-0.1-0.5-0.5-0.4-0.8l2.3-6.3c0.1-0.3,0.5-0.5,0.8-0.4
			c0.3,0.1,0.5,0.5,0.4,0.8l-2.3,6.3C181.5,41.4,181.3,41.5,181,41.5z"/>
	</g>
</g>
<g>
	<g>
		<path class="st0" d="M217.3,62.5c-0.1,0-0.3,0-0.4-0.1c-0.3-0.2-0.3-0.6-0.1-0.9l4.3-5.2c0.2-0.3,0.6-0.3,0.9-0.1
			c0.3,0.2,0.3,0.6,0.1,0.9l-4.3,5.2C217.7,62.4,217.5,62.5,217.3,62.5z"/>
	</g>
</g>
<g>
	<g>
		<path class="st0" d="M232.2,77.3c-0.2,0-0.3-0.1-0.5-0.2c-0.2-0.3-0.2-0.6,0.1-0.9l5.2-4.3c0.3-0.2,0.6-0.2,0.9,0.1
			c0.2,0.3,0.2,0.6-0.1,0.9l-5.2,4.3C232.5,77.3,232.3,77.3,232.2,77.3z"/>
	</g>
</g>
<g>
	<g>
		<path class="st0" d="M118.9,36.1c-0.3,0-0.6-0.2-0.6-0.5l-1.2-6.7c-0.1-0.3,0.2-0.7,0.5-0.7c0.3-0.1,0.7,0.2,0.7,0.5l1.2,6.7
			c0.1,0.3-0.2,0.7-0.5,0.7C118.9,36.1,118.9,36.1,118.9,36.1z"/>
	</g>
</g>
<g>
	<g>
		<path class="st0" d="M98.6,41.5c-0.3,0-0.5-0.2-0.6-0.4l-2.3-6.3c-0.1-0.3,0-0.7,0.4-0.8c0.3-0.1,0.7,0,0.8,0.4l2.3,6.3
			c0.1,0.3,0,0.7-0.4,0.8C98.7,41.5,98.6,41.5,98.6,41.5z"/>
	</g>
</g>
<g>
	<g>
		<path class="st0" d="M62.3,62.5c-0.2,0-0.4-0.1-0.5-0.2l-4.3-5.2c-0.2-0.3-0.2-0.6,0.1-0.9s0.6-0.2,0.9,0.1l4.3,5.2
			c0.2,0.3,0.2,0.6-0.1,0.9C62.6,62.4,62.4,62.5,62.3,62.5z"/>
	</g>
</g>
<g>
	<g>
		<path class="st0" d="M47.4,77.3c-0.1,0-0.3,0-0.4-0.1l-5.2-4.3c-0.3-0.2-0.3-0.6-0.1-0.9c0.2-0.3,0.6-0.3,0.9-0.1l5.2,4.3
			c0.3,0.2,0.3,0.6,0.1,0.9C47.8,77.2,47.6,77.3,47.4,77.3z"/>
	</g>
</g>
<g>
	<g>
		<path class="st0" d="M244.2,94.5c-0.2,0-0.4-0.1-0.5-0.3c-0.2-0.3-0.1-0.7,0.2-0.8l11.7-6.8c0.3-0.2,0.7-0.1,0.8,0.2
			c0.2,0.3,0.1,0.7-0.2,0.8l-11.7,6.8C244.4,94.5,244.3,94.5,244.2,94.5z"/>
	</g>
</g>
<g>
	<g>
		<path class="st0" d="M35.4,94.5c-0.1,0-0.2,0-0.3-0.1l-11.7-6.8c-0.3-0.2-0.4-0.5-0.2-0.8c0.2-0.3,0.5-0.4,0.8-0.2l11.7,6.8
			c0.3,0.2,0.4,0.5,0.2,0.8C35.8,94.4,35.6,94.5,35.4,94.5z"/>
	</g>
</g>
<g>
	<path class="st0" d="M244.2,94.5c-0.2,0-0.4-0.1-0.5-0.3c-21.4-37-61.2-60-103.9-60c-42.7,0-82.5,23-103.9,60
		c-0.2,0.3-0.5,0.4-0.8,0.2c-0.3-0.2-0.4-0.5-0.2-0.8C56.5,56.2,96.7,33,139.8,33s83.3,23.2,105,60.6c0.2,0.3,0.1,0.7-0.2,0.8
		C244.5,94.5,244.3,94.5,244.2,94.5z"/>
</g>
</svg>
