<?xml version="1.0" encoding="utf-8"?>
<!-- Generator: Adobe Illustrator 19.0.0, SVG Export Plug-In . SVG Version: 6.00 Build 0)  -->
<svg version="1.1" id="图层_1" xmlns="http://www.w3.org/2000/svg" xmlns:xlink="http://www.w3.org/1999/xlink" x="0px" y="0px"
	 viewBox="-625 2078.9 555 241.7" style="enable-background:new -625 2078.9 555 241.7;" xml:space="preserve">
<style type="text/css">
	.st0{fill:#FFFFFF;}
	.st1{font-family:'ArialMT';}
	.st2{font-size:30px;}
</style>
<rect id="XMLID_14_" x="-454.2" y="2182.7" transform="matrix(-0.866 0.5 -0.5 -0.866 255.9869 4326.9839)" class="st0" width="5" height="30.1"/>
<rect id="XMLID_21_" x="-530.1" y="2258.7" transform="matrix(-0.5 0.866 -0.866 -0.5 1177.7631 3867.5469)" class="st0" width="5" height="30.1"/>
<rect id="XMLID_29_" x="-170.9" y="2258.7" transform="matrix(-0.5 -0.866 0.866 -0.5 -2221.7595 3264.7783)" class="st0" width="5" height="30.1"/>
<rect id="XMLID_30_" x="-246.8" y="2182.7" transform="matrix(-0.866 -0.5 0.5 -0.866 -1554.7599 3978.97)" class="st0" width="5" height="30.1"/>
<rect id="XMLID_27_" x="-314.2" y="2166.1" transform="matrix(-0.9848 -0.1736 0.1736 -0.9848 -998.5941 4266.8857)" class="st0" width="3" height="22"/>
<rect id="XMLID_28_" x="-279.9" y="2175.3" transform="matrix(-0.9397 -0.342 0.342 -0.9397 -1287.7341 4145.6338)" class="st0" width="3" height="22"/>
<rect id="XMLID_32_" x="-218.8" y="2210.6" transform="matrix(-0.766 -0.6428 0.6428 -0.766 -1811.8568 3783.7539)" class="st0" width="3" height="22"/>
<rect id="XMLID_33_" x="-193.7" y="2235.7" transform="matrix(-0.6428 -0.766 0.766 -0.6428 -2036.7996 3543.7212)" class="st0" width="3" height="22"/>
<rect id="XMLID_22_" x="-384.8" y="2166.1" transform="matrix(-0.9848 0.1736 -0.1736 -0.9848 -382.8413 4387.7622)" class="st0" width="3" height="22"/>
<rect id="XMLID_23_" x="-419.1" y="2175.4" transform="matrix(-0.9397 0.342 -0.342 -0.9397 -62.2864 4383.6841)" class="st0" width="3" height="22"/>
<rect id="XMLID_25_" x="-480.2" y="2210.6" transform="matrix(-0.766 0.6428 -0.6428 -0.766 582.6636 4231.1577)" class="st0" width="3" height="22"/>
<rect id="XMLID_26_" x="-505.3" y="2235.7" transform="matrix(-0.6428 0.766 -0.766 -0.6428 893.4263 4076.9031)" class="st0" width="3" height="22"/>
<polygon id="XMLID_8_" class="st0" points="-358.5,2164.4 -348,2185.8 -337.5,2164.4 "/>
<text transform="matrix(1 0 0 1 -356.342 2143.1934)" class="st0 st1 st2">0</text>
<text transform="matrix(0.9781 0.2079 -0.2079 0.9781 -323.4726 2148.0078)" class="st0 st1 st2">10</text>
<text transform="matrix(0.9132 0.4076 -0.4076 0.9132 -284.3197 2156.6755)" class="st0 st1 st2">20</text>
<text transform="matrix(0.8708 0.4917 -0.4917 0.8708 -244.2855 2174.1265)" class="st0 st1 st2">30</text>
<text transform="matrix(0.8137 0.5813 -0.5813 0.8137 -213.3839 2194.5015)" class="st0 st1 st2">40</text>
<text transform="matrix(0.6894 0.7244 -0.7244 0.6894 -181.8902 2221.1208)" class="st0 st1 st2">50</text>
<text transform="matrix(0.5827 0.8127 -0.8127 0.5827 -153.0756 2250.4604)" class="st0 st1 st2">60</text>
<text transform="matrix(0.9895 -0.1444 0.1444 0.9895 -406.7466 2154.6758)" class="st0 st1 st2">10</text>
<text transform="matrix(0.937 -0.3493 0.3493 0.937 -440.5642 2168.7063)" class="st0 st1 st2">20</text>
<text transform="matrix(0.8712 -0.4909 0.4909 0.8712 -477.334 2189.8975)" class="st0 st1 st2">30</text>
<text transform="matrix(0.7719 -0.6357 0.6357 0.7719 -506.8511 2217.5193)" class="st0 st1 st2">40</text>
<text transform="matrix(0.6756 -0.7372 0.7372 0.6756 -533.433 2243.7759)" class="st0 st1 st2">50</text>
<text transform="matrix(0.6204 -0.7842 0.7842 0.6204 -558.1357 2273.7463)" class="st0 st1 st2">60</text>
</svg>
