<?xml version="1.0" encoding="utf-8"?>
<!-- Generator: Adobe Illustrator 19.0.0, SVG Export Plug-In . SVG Version: 6.00 Build 0)  -->
<svg version="1.1" id="图层_1" xmlns="http://www.w3.org/2000/svg" xmlns:xlink="http://www.w3.org/1999/xlink" x="0px" y="0px"
	 viewBox="0 0 180 2463.7" style="enable-background:new 0 0 180 2463.7;" xml:space="preserve">
<style type="text/css">
	.st0{fill:#FFFFFF;}
	.st1{fill:none;stroke:#FFFFFF;stroke-width:4;stroke-miterlimit:10;stroke-dasharray:3,3,3,3;}
	.st2{font-family:'ArialMT';}
	.st3{font-size:16px;}
</style>
<rect id="XMLID_2_" x="36" y="1164.2" class="st0" width="108" height="3"/>
<rect id="XMLID_6_" x="59" y="1197.6" class="st0" width="62" height="2"/>
<rect id="XMLID_7_" x="59" y="1263.4" class="st0" width="62" height="2"/>
<rect id="XMLID_4_" x="36" y="1295.8" class="st0" width="108" height="3"/>
<line id="XMLID_9_" class="st1" x1="41" y1="1231.7" x2="140" y2="1231.7"/>
<g id="XMLID_114_">
	<rect id="XMLID_26_" x="59" y="1329.6" class="st0" width="62" height="2"/>
	<rect id="XMLID_25_" x="59" y="1395.4" class="st0" width="62" height="2"/>
	<rect id="XMLID_24_" x="36" y="1427.8" class="st0" width="108" height="3"/>
	<rect id="XMLID_19_" x="41.2" y="1362.7" class="st0" width="97.5" height="2"/>
</g>
<g id="XMLID_121_">
	<rect id="XMLID_125_" x="59" y="1461.6" class="st0" width="62" height="2"/>
	<rect id="XMLID_124_" x="59" y="1527.4" class="st0" width="62" height="2"/>
	<rect id="XMLID_123_" x="36" y="1559.8" class="st0" width="108" height="3"/>
	<rect id="XMLID_122_" x="41.2" y="1494.7" class="st0" width="97.5" height="2"/>
</g>
<g id="XMLID_132_">
	<rect id="XMLID_136_" x="59" y="1593.6" class="st0" width="62" height="2"/>
	<rect id="XMLID_135_" x="59" y="1659.4" class="st0" width="62" height="2"/>
	<rect id="XMLID_134_" x="36" y="1691.8" class="st0" width="108" height="3"/>
	<rect id="XMLID_133_" x="41.2" y="1626.7" class="st0" width="97.5" height="2"/>
</g>
<g id="XMLID_147_">
	<rect id="XMLID_151_" x="59" y="1725.6" class="st0" width="62" height="2"/>
	<rect id="XMLID_150_" x="59" y="1791.4" class="st0" width="62" height="2"/>
	<rect id="XMLID_149_" x="36" y="1823.8" class="st0" width="108" height="3"/>
	<rect id="XMLID_148_" x="41.2" y="1758.7" class="st0" width="97.5" height="2"/>
</g>
<g id="XMLID_152_">
	<rect id="XMLID_156_" x="59" y="1857.6" class="st0" width="62" height="2"/>
	<rect id="XMLID_155_" x="59" y="1923.4" class="st0" width="62" height="2"/>
	<rect id="XMLID_154_" x="36" y="1955.8" class="st0" width="108" height="3"/>
	<rect id="XMLID_153_" x="41.2" y="1890.7" class="st0" width="97.5" height="2"/>
</g>
<g id="XMLID_157_">
	<rect id="XMLID_161_" x="59" y="1989.6" class="st0" width="62" height="2"/>
	<rect id="XMLID_160_" x="59" y="2055.4" class="st0" width="62" height="2"/>
	<rect id="XMLID_159_" x="36" y="2087.8" class="st0" width="108" height="3"/>
	<rect id="XMLID_158_" x="41.2" y="2022.7" class="st0" width="97.5" height="2"/>
</g>
<g id="XMLID_239_">
	<rect id="XMLID_243_" x="59" y="2121.6" class="st0" width="62" height="2"/>
	<rect id="XMLID_242_" x="59" y="2187.4" class="st0" width="62" height="2"/>
	<rect id="XMLID_241_" x="36" y="2219.8" class="st0" width="108" height="3"/>
	<rect id="XMLID_240_" x="41.2" y="2154.7" class="st0" width="97.5" height="2"/>
</g>
<rect id="XMLID_248_" x="59" y="2253.6" class="st0" width="62" height="2"/>
<rect id="XMLID_247_" x="59" y="2319.4" class="st0" width="62" height="2"/>
<rect id="XMLID_246_" x="36" y="2351.8" class="st0" width="108" height="3"/>
<rect id="XMLID_245_" x="41.2" y="2286.7" class="st0" width="97.5" height="2"/>
<rect id="XMLID_253_" x="59" y="2385.6" class="st0" width="62" height="2"/>
<rect id="XMLID_250_" x="41.2" y="2418.7" class="st0" width="97.5" height="2"/>
<g id="XMLID_13_">
	<rect id="XMLID_23_" x="36" y="1032.2" class="st0" width="108" height="3"/>
	<rect id="XMLID_22_" x="59" y="1065.6" class="st0" width="62" height="2"/>
	<rect id="XMLID_18_" x="41.2" y="1098.7" class="st0" width="97.5" height="2"/>
	<rect id="XMLID_21_" x="59" y="1131.4" class="st0" width="62" height="2"/>
</g>
<g id="XMLID_115_">
	<rect id="XMLID_119_" x="36" y="900.2" class="st0" width="108" height="3"/>
	<rect id="XMLID_118_" x="59" y="933.6" class="st0" width="62" height="2"/>
	<rect id="XMLID_117_" x="41.2" y="966.7" class="st0" width="97.5" height="2"/>
	<rect id="XMLID_116_" x="59" y="999.4" class="st0" width="62" height="2"/>
</g>
<g id="XMLID_127_">
	<rect id="XMLID_131_" x="36" y="768.2" class="st0" width="108" height="3"/>
	<rect id="XMLID_130_" x="59" y="801.6" class="st0" width="62" height="2"/>
	<rect id="XMLID_129_" x="41.2" y="834.7" class="st0" width="97.5" height="2"/>
	<rect id="XMLID_128_" x="59" y="867.4" class="st0" width="62" height="2"/>
</g>
<g id="XMLID_137_">
	<rect id="XMLID_141_" x="36" y="636.2" class="st0" width="108" height="3"/>
	<rect id="XMLID_140_" x="59" y="669.6" class="st0" width="62" height="2"/>
	<rect id="XMLID_139_" x="41.2" y="702.7" class="st0" width="97.5" height="2"/>
	<rect id="XMLID_138_" x="59" y="735.4" class="st0" width="62" height="2"/>
</g>
<g id="XMLID_142_">
	<rect id="XMLID_146_" x="36" y="504.2" class="st0" width="108" height="3"/>
	<rect id="XMLID_145_" x="59" y="537.6" class="st0" width="62" height="2"/>
	<rect id="XMLID_144_" x="41.2" y="570.7" class="st0" width="97.5" height="2"/>
	<rect id="XMLID_143_" x="59" y="603.4" class="st0" width="62" height="2"/>
</g>
<g id="XMLID_180_">
	<rect id="XMLID_184_" x="36" y="372.2" class="st0" width="108" height="3"/>
	<rect id="XMLID_183_" x="59" y="405.6" class="st0" width="62" height="2"/>
	<rect id="XMLID_182_" x="41.2" y="438.7" class="st0" width="97.5" height="2"/>
	<rect id="XMLID_181_" x="59" y="471.4" class="st0" width="62" height="2"/>
</g>
<g id="XMLID_185_">
	<rect id="XMLID_189_" x="36" y="240.2" class="st0" width="108" height="3"/>
	<rect id="XMLID_188_" x="59" y="273.6" class="st0" width="62" height="2"/>
	<rect id="XMLID_187_" x="41.2" y="306.7" class="st0" width="97.5" height="2"/>
	<rect id="XMLID_186_" x="59" y="339.4" class="st0" width="62" height="2"/>
</g>
<g id="XMLID_203_">
	<rect id="XMLID_207_" x="36" y="108.2" class="st0" width="108" height="3"/>
	<rect id="XMLID_206_" x="59" y="141.6" class="st0" width="62" height="2"/>
	<rect id="XMLID_205_" x="41.2" y="174.7" class="st0" width="97.5" height="2"/>
	<rect id="XMLID_204_" x="59" y="207.4" class="st0" width="62" height="2"/>
</g>
<rect id="XMLID_210_" x="41.2" y="42.7" class="st0" width="97.5" height="2"/>
<rect id="XMLID_209_" x="59" y="75.4" class="st0" width="62" height="2"/>
<g id="XMLID_8_">
	<g id="XMLID_10_">
		<text id="XMLID_5_" transform="matrix(1 0 0 1 15.7175 1237.4584)" class="st0 st2 st3">0</text>
		<text id="XMLID_12_" transform="matrix(1 0 0 1 13.0535 1301.9584)" class="st0 st2 st3">-5</text>
		<text id="XMLID_11_" transform="matrix(1 0 0 1 15.7175 1169.9584)" class="st0 st2 st3">5</text>
	</g>
	<text id="XMLID_29_" transform="matrix(1 0 0 1 11.2683 1105.458)" class="st0 st2 st3">10</text>
	<text id="XMLID_27_" transform="matrix(1 0 0 1 11.2683 1037.958)" class="st0 st2 st3">15</text>
	<text id="XMLID_28_" transform="matrix(1 0 0 1 8.6042 1434.958)" class="st0 st2 st3">-15</text>
	<text id="XMLID_20_" transform="matrix(1 0 0 1 8.6042 1367.458)" class="st0 st2 st3">-10</text>
</g>
<g id="XMLID_238_">
	<text id="XMLID_262_" transform="matrix(1 0 0 1 8.6042 1698.8337)" class="st0 st2 st3">-35</text>
	<text id="XMLID_261_" transform="matrix(1 0 0 1 8.6042 1763.3337)" class="st0 st2 st3">-40</text>
	<text id="XMLID_260_" transform="matrix(1 0 0 1 8.6042 1631.3337)" class="st0 st2 st3">-30</text>
	<text id="XMLID_258_" transform="matrix(1 0 0 1 8.6042 1566.8334)" class="st0 st2 st3">-25</text>
	<text id="XMLID_257_" transform="matrix(1 0 0 1 8.6042 1499.3334)" class="st0 st2 st3">-20</text>
	<text id="XMLID_256_" transform="matrix(1 0 0 1 8.6042 1896.3334)" class="st0 st2 st3">-50</text>
	<text id="XMLID_255_" transform="matrix(1 0 0 1 8.6042 1828.8334)" class="st0 st2 st3">-45</text>
</g>
<g id="XMLID_279_">
	<text id="XMLID_286_" transform="matrix(1 0 0 1 147.9378 1698.834)" class="st0 st2 st3">-35</text>
	<text id="XMLID_285_" transform="matrix(1 0 0 1 147.9378 1763.334)" class="st0 st2 st3">-40</text>
	<text id="XMLID_284_" transform="matrix(1 0 0 1 147.9378 1631.334)" class="st0 st2 st3">-30</text>
	<text id="XMLID_283_" transform="matrix(1 0 0 1 147.9378 1566.8336)" class="st0 st2 st3">-25</text>
	<text id="XMLID_282_" transform="matrix(1 0 0 1 147.9378 1499.3336)" class="st0 st2 st3">-20</text>
	<text id="XMLID_281_" transform="matrix(1 0 0 1 147.9378 1896.3336)" class="st0 st2 st3">-50</text>
	<text id="XMLID_280_" transform="matrix(1 0 0 1 147.9378 1828.8336)" class="st0 st2 st3">-45</text>
</g>
<g id="XMLID_278_">
	<text id="XMLID_269_" transform="matrix(1 0 0 1 8.6042 2161.167)" class="st0 st2 st3">-70</text>
	<text id="XMLID_268_" transform="matrix(1 0 0 1 8.6042 2225.667)" class="st0 st2 st3">-75</text>
	<text id="XMLID_267_" transform="matrix(1 0 0 1 8.6042 2093.667)" class="st0 st2 st3">-65</text>
	<text id="XMLID_266_" transform="matrix(1 0 0 1 8.6042 2029.1667)" class="st0 st2 st3">-60</text>
	<text id="XMLID_265_" transform="matrix(1 0 0 1 8.6042 1961.6667)" class="st0 st2 st3">-55</text>
	<text id="XMLID_263_" transform="matrix(1 0 0 1 8.6042 2291.1667)" class="st0 st2 st3">-80</text>
	<text id="XMLID_259_" transform="matrix(1 0 0 1 8.6042 2358.667)" class="st0 st2 st3">-85</text>
	<text id="XMLID_254_" transform="matrix(1 0 0 1 8.6042 2424.1667)" class="st0 st2 st3">-90</text>
</g>
<g id="XMLID_288_">
	<text id="XMLID_296_" transform="matrix(1 0 0 1 147.9378 2161.167)" class="st0 st2 st3">-70</text>
	<text id="XMLID_295_" transform="matrix(1 0 0 1 147.9378 2225.667)" class="st0 st2 st3">-75</text>
	<text id="XMLID_294_" transform="matrix(1 0 0 1 147.9378 2093.667)" class="st0 st2 st3">-65</text>
	<text id="XMLID_293_" transform="matrix(1 0 0 1 147.9378 2029.1667)" class="st0 st2 st3">-60</text>
	<text id="XMLID_292_" transform="matrix(1 0 0 1 147.9378 1961.6667)" class="st0 st2 st3">-55</text>
	<text id="XMLID_291_" transform="matrix(1 0 0 1 147.9378 2291.1667)" class="st0 st2 st3">-80</text>
	<text id="XMLID_290_" transform="matrix(1 0 0 1 147.9378 2358.667)" class="st0 st2 st3">-85</text>
	<text id="XMLID_289_" transform="matrix(1 0 0 1 147.9378 2424.1667)" class="st0 st2 st3">-90</text>
</g>
<g id="XMLID_120_">
	<text id="XMLID_170_" transform="matrix(1 0 0 1 11.2683 778.4813)" class="st0 st2 st3">35</text>
	<text id="XMLID_169_" transform="matrix(1 0 0 1 11.2683 842.9813)" class="st0 st2 st3">30</text>
	<text id="XMLID_168_" transform="matrix(1 0 0 1 11.2683 710.9813)" class="st0 st2 st3">40</text>
	<text id="XMLID_166_" transform="matrix(1 0 0 1 11.2683 646.481)" class="st0 st2 st3">45</text>
	<text id="XMLID_165_" transform="matrix(1 0 0 1 11.2683 578.981)" class="st0 st2 st3">50</text>
	<text id="XMLID_162_" transform="matrix(1 0 0 1 11.2683 510.9809)" class="st0 st2 st3">55</text>
	<text id="XMLID_164_" transform="matrix(1 0 0 1 11.2683 975.981)" class="st0 st2 st3">20</text>
	<text id="XMLID_163_" transform="matrix(1 0 0 1 11.2683 908.481)" class="st0 st2 st3">25</text>
</g>
<g id="XMLID_202_">
	<text id="XMLID_231_" transform="matrix(1 0 0 1 11.2683 248.6669)" class="st0 st2 st3">75</text>
	<text id="XMLID_230_" transform="matrix(1 0 0 1 11.2683 313.1669)" class="st0 st2 st3">70</text>
	<text id="XMLID_229_" transform="matrix(1 0 0 1 11.2683 181.1669)" class="st0 st2 st3">80</text>
	<text id="XMLID_228_" transform="matrix(1 0 0 1 11.2683 116.6665)" class="st0 st2 st3">85</text>
	<text id="XMLID_227_" transform="matrix(1 0 0 1 11.2683 49.1665)" class="st0 st2 st3">90</text>
	<text id="XMLID_225_" transform="matrix(1 0 0 1 11.2683 446.1666)" class="st0 st2 st3">60</text>
	<text id="XMLID_224_" transform="matrix(1 0 0 1 11.2683 378.6666)" class="st0 st2 st3">65</text>
</g>
<g id="XMLID_211_">
	<text id="XMLID_218_" transform="matrix(1 0 0 1 150.6019 248.6669)" class="st0 st2 st3">75</text>
	<text id="XMLID_217_" transform="matrix(1 0 0 1 150.6019 313.1669)" class="st0 st2 st3">70</text>
	<text id="XMLID_216_" transform="matrix(1 0 0 1 150.6019 181.1669)" class="st0 st2 st3">80</text>
	<text id="XMLID_215_" transform="matrix(1 0 0 1 150.6019 116.6665)" class="st0 st2 st3">85</text>
	<text id="XMLID_214_" transform="matrix(1 0 0 1 150.6019 49.1665)" class="st0 st2 st3">90</text>
	<text id="XMLID_213_" transform="matrix(1 0 0 1 150.6019 446.1666)" class="st0 st2 st3">60</text>
	<text id="XMLID_212_" transform="matrix(1 0 0 1 150.6019 378.6666)" class="st0 st2 st3">65</text>
</g>
<g id="XMLID_171_">
	<text id="XMLID_179_" transform="matrix(1 0 0 1 150.6019 778.4813)" class="st0 st2 st3">35</text>
	<text id="XMLID_178_" transform="matrix(1 0 0 1 150.6019 842.9813)" class="st0 st2 st3">30</text>
	<text id="XMLID_177_" transform="matrix(1 0 0 1 150.6019 710.9813)" class="st0 st2 st3">40</text>
	<text id="XMLID_176_" transform="matrix(1 0 0 1 150.6019 646.481)" class="st0 st2 st3">45</text>
	<text id="XMLID_175_" transform="matrix(1 0 0 1 150.6019 578.981)" class="st0 st2 st3">50</text>
	<text id="XMLID_174_" transform="matrix(1 0 0 1 150.6019 510.9809)" class="st0 st2 st3">55</text>
	<text id="XMLID_173_" transform="matrix(1 0 0 1 150.6019 975.981)" class="st0 st2 st3">20</text>
	<text id="XMLID_172_" transform="matrix(1 0 0 1 150.6019 908.481)" class="st0 st2 st3">25</text>
</g>
<g id="XMLID_15_">
	<g id="XMLID_32_">
		<text id="XMLID_35_" transform="matrix(1 0 0 1 155.0509 1237.4584)" class="st0 st2 st3">0</text>
		<text id="XMLID_34_" transform="matrix(1 0 0 1 152.3868 1301.9584)" class="st0 st2 st3">-5</text>
		<text id="XMLID_33_" transform="matrix(1 0 0 1 155.0509 1169.9584)" class="st0 st2 st3">5</text>
	</g>
	<text id="XMLID_31_" transform="matrix(1 0 0 1 150.6016 1105.458)" class="st0 st2 st3">10</text>
	<text id="XMLID_30_" transform="matrix(1 0 0 1 150.6016 1037.958)" class="st0 st2 st3">15</text>
	<text id="XMLID_17_" transform="matrix(1 0 0 1 147.9376 1434.958)" class="st0 st2 st3">-15</text>
	<text id="XMLID_16_" transform="matrix(1 0 0 1 147.9376 1367.458)" class="st0 st2 st3">-10</text>
</g>
</svg>
