<?xml version="1.0" encoding="utf-8"?>
<!-- Generator: Adobe Illustrator 19.0.0, SVG Export Plug-In . SVG Version: 6.00 Build 0)  -->
<svg version="1.1" id="图层_1" xmlns="http://www.w3.org/2000/svg" xmlns:xlink="http://www.w3.org/1999/xlink" x="0px" y="0px"
	 viewBox="0 0 502 242" style="enable-background:new 0 0 502 242;" xml:space="preserve">
<style type="text/css">
	.st0{fill:#FFFFFF;}
</style>
<g id="XMLID_5_">
	
		<rect id="XMLID_14_" x="144.8" y="35.3" transform="matrix(0.866 -0.5 0.5 0.866 -5.464 80.4058)" class="st0" width="5" height="30.1"/>
	
		<rect id="XMLID_21_" x="68.9" y="111.3" transform="matrix(0.5 -0.866 0.866 0.5 -73.6858 124.987)" class="st0" width="5" height="30.1"/>
	
		<rect id="XMLID_29_" x="428.1" y="111.3" transform="matrix(0.5 0.866 -0.866 0.5 324.6859 -309.7578)" class="st0" width="5" height="30.1"/>
	
		<rect id="XMLID_30_" x="352.2" y="35.3" transform="matrix(0.866 0.5 -0.5 0.866 72.7193 -170.5942)" class="st0" width="5" height="30.1"/>
	
		<rect id="XMLID_27_" x="284.8" y="18.7" transform="matrix(0.9848 0.1736 -0.1736 0.9848 9.5132 -49.2658)" class="st0" width="3" height="22"/>
	
		<rect id="XMLID_28_" x="319.1" y="27.9" transform="matrix(0.9397 0.342 -0.342 0.9397 32.6395 -107.2884)" class="st0" width="3" height="22"/>
	
		<rect id="XMLID_32_" x="380.2" y="63.2" transform="matrix(0.766 0.6428 -0.6428 0.766 137.0128 -227.9962)" class="st0" width="3" height="22"/>
	
		<rect id="XMLID_33_" x="405.3" y="88.3" transform="matrix(0.6428 0.766 -0.766 0.6428 221.3641 -276.1439)" class="st0" width="3" height="22"/>
	
		<rect id="XMLID_22_" x="214.2" y="18.7" transform="matrix(0.9848 -0.1736 0.1736 0.9848 -1.8867 37.9056)" class="st0" width="3" height="22"/>
	
		<rect id="XMLID_23_" x="179.9" y="27.9" transform="matrix(0.9397 -0.342 0.342 0.9397 -2.3652 64.4057)" class="st0" width="3" height="22"/>
	
		<rect id="XMLID_25_" x="118.8" y="63.2" transform="matrix(0.766 -0.6428 0.6428 0.766 -19.5671 94.6832)" class="st0" width="3" height="22"/>
	
		<rect id="XMLID_26_" x="93.7" y="88.3" transform="matrix(0.6428 -0.766 0.766 0.6428 -42.0435 108.4104)" class="st0" width="3" height="22"/>
	<polygon id="XMLID_8_" class="st0" points="240.5,17 251,38.4 261.5,17 	"/>
</g>
</svg>
