<?xml version="1.0" standalone="no"?><!DOCTYPE svg PUBLIC "-//W3C//DTD SVG 1.1//EN" "http://www.w3.org/Graphics/SVG/1.1/DTD/svg11.dtd"><svg t="1525748221202" class="icon" style="" viewBox="0 0 1024 1024" version="1.1" xmlns="http://www.w3.org/2000/svg" p-id="2798" xmlns:xlink="http://www.w3.org/1999/xlink" width="32" height="32"><defs><style type="text/css"></style></defs><path d="M533.2992 631.5008c0 1.4336-0.3072 11.3664-1.024 29.9008-0.7168 18.5344-1.024 37.6832-1.024 57.5488 0 19.968-1.024 42.7008-3.1744 68.3008-2.1504 25.6-4.608 46.1824-7.4752 61.8496-1.4336 2.8672-1.4336 5.0176 0 6.3488 1.4336 1.4336 3.1744 3.1744 5.3248 5.3248 2.1504 2.1504 3.8912 3.1744 5.3248 3.1744L640 934.4l6.3488 17.1008 2.1504 38.4L503.5008 955.6992 477.9008 1024l-25.6-68.3008L307.2 989.9008l2.1504-38.4c1.4336-8.4992 2.8672-14.2336 4.3008-17.1008l110.8992-70.4512c1.4336 0 3.584-1.3312 6.3488-4.3008C435.2 856.8832 436.6336 853.2992 435.2 849.1008 432.3328 833.4336 429.8752 812.7488 427.7248 787.1488c-2.1504-25.6-3.584-48.3328-4.3008-68.3008-0.7168-19.8656-1.024-39.1168-1.024-57.5488 0-18.432 0-28.4672 0-29.9008 0-4.3008-1.4336-7.168-4.3008-8.4992C415.3344 621.568 412.4672 620.7488 409.6 620.7488L405.2992 620.7488 273.1008 648.4992 0 753.0496C0 735.9488 0.7168 723.5584 2.1504 715.776c1.4336-7.7824 3.1744-13.5168 5.3248-17.1008C9.6256 695.1936 13.5168 691.2 19.1488 686.8992L409.6 407.4496C416.6656 317.8496 420.2496 237.568 420.2496 166.4c0-29.9008 6.0416-65.024 18.1248-105.5744S463.6672 0 477.9008 0c14.2336 0 27.3408 19.968 39.424 59.6992C529.408 99.5328 535.4496 135.168 535.4496 166.4c0 34.0992 1.024 71.168 3.1744 110.8992C540.7744 317.1328 542.6176 349.184 544.0512 373.3504l2.1504 34.0992 390.4512 279.4496c12.8 9.9328 19.1488 32.0512 19.1488 66.1504L682.7008 648.4992 550.4 620.7488C539.0336 617.984 533.2992 621.568 533.2992 631.5008z" p-id="2799" fill="#ffffff"></path></svg>