<?xml version="1.0" encoding="utf-8"?>
<!-- Generator: Adobe Illustrator 19.0.0, SVG Export Plug-In . SVG Version: 6.00 Build 0)  -->
<svg version="1.1" id="图层_1" xmlns="http://www.w3.org/2000/svg" xmlns:xlink="http://www.w3.org/1999/xlink" x="0px" y="0px"
	 viewBox="0 0 3066 85.6" style="enable-background:new 0 0 3066 85.6;" xml:space="preserve">
<style type="text/css">
	.st0{fill:#FFFFFF;}
	.st1{font-family:'ArialMT';}
	.st2{font-size:26px;}
	.st3{letter-spacing:1;}
	.st4{font-family:'SimHei';}
</style>
<g id="XMLID_1_">
	<text id="XMLID_28_" transform="matrix(1 0 0 1 53.164 40.7937)"><tspan x="0" y="0" class="st0 st1 st2 st3">0  15  30  </tspan><tspan x="137.1" y="0" class="st0 st4 st2 st3">东北</tspan><tspan x="193" y="0" class="st0 st1 st2 st3">  60  75 </tspan><tspan x="304.5" y="0" class="st0 st4 st2 st3">东</tspan><tspan x="332.4" y="0" class="st0 st1 st2 st3">  105  120  </tspan><tspan x="486" y="0" class="st0 st4 st2 st3">东南</tspan><tspan x="541.9" y="0" class="st0 st1 st2 st3">  150  165  </tspan><tspan x="695.4" y="0" class="st0 st4 st2 st3">南</tspan><tspan x="723.3" y="0" class="st0 st1 st2 st3">  195  210  </tspan><tspan x="876.8" y="0" class="st0 st4 st2 st3">西南</tspan><tspan x="932.7" y="0" class="st0 st1 st2 st3">  240  255  </tspan><tspan x="1086.2" y="0" class="st0 st4 st2 st3">西</tspan><tspan x="1114.2" y="0" class="st0 st1 st2 st3">  285  300  </tspan><tspan x="1267.7" y="0" class="st0 st4 st2 st3">西北</tspan><tspan x="1323.6" y="0" class="st0 st1 st2 st3">  330  345  0  15  30  </tspan><tspan x="1614.2" y="0" class="st0 st4 st2 st3">东北</tspan><tspan x="1670.1" y="0" class="st0 st1 st2 st3">  60  75 </tspan><tspan x="1781.6" y="0" class="st0 st4 st2 st3">东</tspan><tspan x="1809.5" y="0" class="st0 st1 st2 st3">  105  120  </tspan><tspan x="1963" y="0" class="st0 st4 st2 st3">东南</tspan><tspan x="2018.9" y="0" class="st0 st1 st2 st3">  150  165  </tspan><tspan x="2172.4" y="0" class="st0 st4 st2 st3">南</tspan><tspan x="2200.4" y="0" class="st0 st1 st2 st3">  195  210  </tspan><tspan x="2353.9" y="0" class="st0 st4 st2 st3">西南</tspan><tspan x="2409.8" y="0" class="st0 st1 st2 st3">  240  255  </tspan><tspan x="2563.3" y="0" class="st0 st4 st2 st3">西</tspan><tspan x="2591.2" y="0" class="st0 st1 st2 st3">  285  300  </tspan><tspan x="2744.7" y="0" class="st0 st4 st2 st3">西北 </tspan><tspan x="2815.6" y="0" class="st0 st1 st2 st3">330  345  </tspan></text>
	<rect id="XMLID_42_" x="58.2" y="66.3" class="st0" width="2919.6" height="4"/>
	<rect id="XMLID_2_" x="58.2" y="54.1" class="st0" width="3.1" height="16.2"/>
	<rect id="XMLID_4_" x="103" y="54.1" class="st0" width="3.1" height="16.2"/>
	<rect id="XMLID_5_" x="147.9" y="54.1" class="st0" width="3.1" height="16.2"/>
	<rect id="XMLID_6_" x="192.8" y="54.1" class="st0" width="3.1" height="16.2"/>
	<rect id="XMLID_8_" x="237.6" y="54.1" class="st0" width="3.1" height="16.2"/>
	<rect id="XMLID_7_" x="282.5" y="54.1" class="st0" width="3.1" height="16.2"/>
	<rect id="XMLID_16_" x="327.4" y="54.1" class="st0" width="3.1" height="16.2"/>
	<rect id="XMLID_15_" x="372.2" y="54.1" class="st0" width="3.1" height="16.2"/>
	<rect id="XMLID_14_" x="417.1" y="54.1" class="st0" width="3.1" height="16.2"/>
	<rect id="XMLID_13_" x="462" y="54.1" class="st0" width="3.1" height="16.2"/>
	<rect id="XMLID_12_" x="506.9" y="54.1" class="st0" width="3.1" height="16.2"/>
	<rect id="XMLID_11_" x="551.7" y="54.1" class="st0" width="3.1" height="16.2"/>
	<rect id="XMLID_23_" x="596.6" y="54.1" class="st0" width="3.1" height="16.2"/>
	<rect id="XMLID_22_" x="641.4" y="54.1" class="st0" width="3.1" height="16.2"/>
	<rect id="XMLID_21_" x="686.3" y="54.1" class="st0" width="3.1" height="16.2"/>
	<rect id="XMLID_20_" x="731.2" y="54.1" class="st0" width="3.1" height="16.2"/>
	<rect id="XMLID_19_" x="776" y="54.1" class="st0" width="3.1" height="16.2"/>
	<rect id="XMLID_18_" x="820.9" y="54.1" class="st0" width="3.1" height="16.2"/>
	<rect id="XMLID_31_" x="865.8" y="54.1" class="st0" width="3.1" height="16.2"/>
	<rect id="XMLID_30_" x="910.7" y="54.1" class="st0" width="3.1" height="16.2"/>
	<rect id="XMLID_29_" x="955.5" y="54.1" class="st0" width="3.1" height="16.2"/>
	<rect id="XMLID_27_" x="1000.4" y="54.1" class="st0" width="3.1" height="16.2"/>
	<rect id="XMLID_26_" x="1045.3" y="54.1" class="st0" width="3.1" height="16.2"/>
	<rect id="XMLID_25_" x="1090.2" y="54.1" class="st0" width="3.1" height="16.2"/>
	<rect id="XMLID_38_" x="1135" y="54.1" class="st0" width="3.1" height="16.2"/>
	<rect id="XMLID_37_" x="1179.9" y="54.1" class="st0" width="3.1" height="16.2"/>
	<rect id="XMLID_36_" x="1224.8" y="54.1" class="st0" width="3.1" height="16.2"/>
	<rect id="XMLID_35_" x="1269.6" y="54.1" class="st0" width="3.1" height="16.2"/>
	<rect id="XMLID_34_" x="1314.5" y="54.1" class="st0" width="3.1" height="16.2"/>
	<rect id="XMLID_33_" x="1359.4" y="54.1" class="st0" width="3.1" height="16.2"/>
	<rect id="XMLID_46_" x="1404.2" y="54.1" class="st0" width="3.1" height="16.2"/>
	<rect id="XMLID_45_" x="1449.1" y="54.1" class="st0" width="3.1" height="16.2"/>
	<rect id="XMLID_44_" x="1494" y="54.1" class="st0" width="3.1" height="16.2"/>
	<rect id="XMLID_43_" x="1538.8" y="54.1" class="st0" width="3.1" height="16.2"/>
	<rect id="XMLID_41_" x="1583.7" y="54.1" class="st0" width="3.1" height="16.2"/>
	<rect id="XMLID_40_" x="1628.6" y="54.1" class="st0" width="3.1" height="16.2"/>
	<rect id="XMLID_53_" x="1673.5" y="54.1" class="st0" width="3.1" height="16.2"/>
	<rect id="XMLID_52_" x="1718.3" y="54.1" class="st0" width="3.1" height="16.2"/>
	<rect id="XMLID_51_" x="1763.2" y="54.1" class="st0" width="3.1" height="16.2"/>
	<rect id="XMLID_50_" x="1808.1" y="54.1" class="st0" width="3.1" height="16.2"/>
	<rect id="XMLID_49_" x="1852.9" y="54.1" class="st0" width="3.1" height="16.2"/>
	<rect id="XMLID_48_" x="1897.8" y="54.1" class="st0" width="3.1" height="16.2"/>
	<rect id="XMLID_60_" x="1942.7" y="54.1" class="st0" width="3.1" height="16.2"/>
	<rect id="XMLID_59_" x="1987.5" y="54.1" class="st0" width="3.1" height="16.2"/>
	<rect id="XMLID_58_" x="2032.4" y="54.1" class="st0" width="3.1" height="16.2"/>
	<rect id="XMLID_57_" x="2077.3" y="54.1" class="st0" width="3.1" height="16.2"/>
	<rect id="XMLID_56_" x="2122.2" y="54.1" class="st0" width="3.1" height="16.2"/>
	<rect id="XMLID_55_" x="2167" y="54.1" class="st0" width="3.1" height="16.2"/>
	<rect id="XMLID_67_" x="2211.9" y="54.1" class="st0" width="3.1" height="16.2"/>
	<rect id="XMLID_66_" x="2256.8" y="54.1" class="st0" width="3.1" height="16.2"/>
	<rect id="XMLID_65_" x="2301.6" y="54.1" class="st0" width="3.1" height="16.2"/>
	<rect id="XMLID_64_" x="2346.5" y="54.1" class="st0" width="3.1" height="16.2"/>
	<rect id="XMLID_63_" x="2391.4" y="54.1" class="st0" width="3.1" height="16.2"/>
	<rect id="XMLID_62_" x="2436.2" y="54.1" class="st0" width="3.1" height="16.2"/>
	<rect id="XMLID_74_" x="2481.1" y="54.1" class="st0" width="3.1" height="16.2"/>
	<rect id="XMLID_73_" x="2526" y="54.1" class="st0" width="3.1" height="16.2"/>
	<rect id="XMLID_72_" x="2570.8" y="54.1" class="st0" width="3.1" height="16.2"/>
	<rect id="XMLID_71_" x="2615.7" y="54.1" class="st0" width="3.1" height="16.2"/>
	<rect id="XMLID_70_" x="2660.6" y="54.1" class="st0" width="3.1" height="16.2"/>
	<rect id="XMLID_69_" x="2705.5" y="54.1" class="st0" width="3.1" height="16.2"/>
	<rect id="XMLID_81_" x="2750.3" y="54.1" class="st0" width="3.1" height="16.2"/>
	<rect id="XMLID_80_" x="2795.2" y="54.1" class="st0" width="3.1" height="16.2"/>
	<rect id="XMLID_79_" x="2840.1" y="54.1" class="st0" width="3.1" height="16.2"/>
	<rect id="XMLID_78_" x="2884.9" y="54.1" class="st0" width="3.1" height="16.2"/>
	<rect id="XMLID_77_" x="2929.8" y="54.1" class="st0" width="3.1" height="16.2"/>
	<rect id="XMLID_76_" x="2974.7" y="54.1" class="st0" width="3.1" height="16.2"/>
</g>
</svg>
