<?xml version="1.0" encoding="utf-8"?>
<!-- Generator: Adobe Illustrator 19.0.0, SVG Export Plug-In . SVG Version: 6.00 Build 0)  -->
<svg version="1.0" id="图层_1" xmlns="http://www.w3.org/2000/svg" xmlns:xlink="http://www.w3.org/1999/xlink" x="0px" y="0px"
	 viewBox="-191 313.6 211.7 214.3" style="enable-background:new -191 313.6 211.7 214.3;" xml:space="preserve">
<style type="text/css">
	.st0{opacity:0.2;enable-background:new    ;}
	.st1{fill:#FFFFFF;}
</style>
<path class="st0" d="M-85.1,338.3c12.8,0,25,2.9,35.9,7.9l7-15c-13-6.1-27.5-9.5-42.9-9.5s-29.9,3.4-42.9,9.5l7,15
	C-110.1,341.1-98,338.3-85.1,338.3z"/>
<path class="st1" d="M-70.2,338.3L-70.2,338.3c-0.5-0.1-0.8-0.5-0.7-0.9l2-11.4c0.1-0.4,0.5-0.7,0.9-0.6s0.7,0.5,0.6,0.9l-2,11.4
	C-69.6,338.1-69.9,338.3-70.2,338.3z"/>
<path class="st1" d="M-55.8,342.2c-0.1,0-0.2,0-0.3,0c-0.4-0.1-0.6-0.6-0.4-1l3.9-10.8c0.1-0.4,0.6-0.6,1-0.4c0.4,0.1,0.6,0.6,0.4,1
	l-3.9,10.8C-55.2,342-55.5,342.2-55.8,342.2z"/>
<path class="st1" d="M-100.1,338.3c-0.4,0-0.7-0.3-0.7-0.6l-2-11.4c-0.1-0.4,0.2-0.8,0.6-0.9s0.8,0.2,0.9,0.6l2,11.4
	c0.1,0.4-0.2,0.8-0.6,0.9C-100,338.3-100,338.3-100.1,338.3z"/>
<path class="st1" d="M-114.5,342.2c-0.3,0-0.6-0.2-0.7-0.5l-3.9-10.8c-0.1-0.4,0.1-0.8,0.4-1c0.4-0.1,0.8,0.1,1,0.4l3.9,10.8
	c0.1,0.4-0.1,0.8-0.4,1C-114.3,342.2-114.4,342.2-114.5,342.2z"/>
<g>
	<path class="st1" d="M-145.8,362.4c-0.3,0-0.5-0.1-0.7-0.3l-8.2-8.2c-0.4-0.4-0.4-1,0-1.4c0.4-0.4,1-0.4,1.4,0l8.2,8.2
		c0.4,0.4,0.4,1,0,1.4C-145.3,362.3-145.6,362.4-145.8,362.4z"/>
</g>
<g>
	<path class="st1" d="M-16.3,492c-0.3,0-0.5-0.1-0.7-0.3l-8.2-8.2c-0.4-0.4-0.4-1,0-1.4s1-0.4,1.4,0l8.2,8.2c0.4,0.4,0.4,1,0,1.4
		C-15.8,491.9-16,492-16.3,492z"/>
</g>
<g>
	<path class="st1" d="M-171,423.1h-11.5c-0.6,0-1-0.4-1-1c0-0.6,0.4-1,1-1h11.5c0.6,0,1,0.4,1,1C-170,422.7-170.4,423.1-171,423.1z"
		/>
</g>
<g>
	<path class="st1" d="M12.2,423.1H0.7c-0.6,0-1-0.4-1-1c0-0.6,0.4-1,1-1h11.5c0.6,0,1,0.4,1,1C13.2,422.7,12.8,423.1,12.2,423.1z"/>
</g>
<g>
	<path class="st1" d="M-154,492c-0.3,0-0.5-0.1-0.7-0.3c-0.4-0.4-0.4-1,0-1.4l8.2-8.2c0.4-0.4,1-0.4,1.4,0c0.4,0.4,0.4,1,0,1.4
		l-8.2,8.2C-153.5,491.9-153.8,492-154,492z"/>
</g>
<g>
	<path class="st1" d="M-24.4,362.4c-0.3,0-0.5-0.1-0.7-0.3c-0.4-0.4-0.4-1,0-1.4l8.1-8.1c0.4-0.4,1-0.4,1.4,0c0.4,0.4,0.4,1,0,1.4
		l-8.2,8.2C-23.9,362.3-24.2,362.4-24.4,362.4z"/>
</g>
<path class="st1" d="M-85.1,520.5c-0.6,0-1-0.4-1-1V508c0-0.6,0.4-1,1-1s1,0.4,1,1v11.5C-84.1,520.1-84.6,520.5-85.1,520.5z"/>
<polygon class="st1" points="-77.8,326.6 -85.2,339.4 -92.5,326.6 "/>
</svg>
