<?xml version="1.0" encoding="utf-8"?>
<!-- Generator: Adobe Illustrator 19.0.0, SVG Export Plug-In . SVG Version: 6.00 Build 0)  -->
<svg version="1.1" id="图层_1" xmlns="http://www.w3.org/2000/svg" xmlns:xlink="http://www.w3.org/1999/xlink" x="0px" y="0px"
	 viewBox="-191 313.6 211.7 214.3" style="enable-background:new -191 313.6 211.7 214.3;" xml:space="preserve">
<style type="text/css">
	.st0{opacity:0.2;enable-background:new    ;}
	.st1{fill:#FFFFFF;}
</style>
<g>
	<g>
		<path class="st0" d="M-85.6,338.7c12.8,0,25,2.9,35.9,7.9l7-15c-13-6.1-27.5-9.5-42.9-9.5s-29.9,3.4-42.9,9.5l7,15
			C-110.6,341.5-98.5,338.7-85.6,338.7z"/>
		<path class="st1" d="M-70.7,338.7L-70.7,338.7c-0.5-0.1-0.8-0.5-0.7-0.9l2-11.4c0.1-0.4,0.5-0.7,0.9-0.6s0.7,0.5,0.6,0.9l-2,11.4
			C-70.1,338.5-70.4,338.7-70.7,338.7z"/>
		<path class="st1" d="M-56.3,342.6c-0.1,0-0.2,0-0.3,0c-0.4-0.1-0.6-0.6-0.4-1l3.9-10.8c0.1-0.4,0.6-0.6,1-0.4
			c0.4,0.1,0.6,0.6,0.4,1l-3.9,10.8C-55.7,342.4-56,342.6-56.3,342.6z"/>
		<path class="st1" d="M-100.6,338.7c-0.4,0-0.7-0.3-0.7-0.6l-2-11.4c-0.1-0.4,0.2-0.8,0.6-0.9s0.8,0.2,0.9,0.6l2,11.4
			c0.1,0.4-0.2,0.8-0.6,0.9C-100.5,338.7-100.5,338.7-100.6,338.7z"/>
		<path class="st1" d="M-115,342.6c-0.3,0-0.6-0.2-0.7-0.5l-3.9-10.8c-0.1-0.4,0.1-0.8,0.4-1c0.4-0.1,0.8,0.1,1,0.4l3.9,10.8
			c0.1,0.4-0.1,0.8-0.4,1C-114.8,342.6-114.9,342.6-115,342.6z"/>
		<g>
			<path class="st1" d="M-146.3,362.8c-0.3,0-0.5-0.1-0.7-0.3l-8.2-8.2c-0.4-0.4-0.4-1,0-1.4s1-0.4,1.4,0l8.2,8.2
				c0.4,0.4,0.4,1,0,1.4C-145.8,362.7-146.1,362.8-146.3,362.8z"/>
		</g>
		<g>
			<path class="st1" d="M-16.8,492.4c-0.3,0-0.5-0.1-0.7-0.3l-8.2-8.2c-0.4-0.4-0.4-1,0-1.4s1-0.4,1.4,0l8.2,8.2
				c0.4,0.4,0.4,1,0,1.4C-16.3,492.3-16.5,492.4-16.8,492.4z"/>
		</g>
		<g>
			<path class="st1" d="M-171.5,423.5H-183c-0.6,0-1-0.4-1-1s0.4-1,1-1h11.5c0.6,0,1,0.4,1,1S-170.9,423.5-171.5,423.5z"/>
		</g>
		<g>
			<path class="st1" d="M11.7,423.5H0.2c-0.6,0-1-0.4-1-1s0.4-1,1-1h11.5c0.6,0,1,0.4,1,1S12.3,423.5,11.7,423.5z"/>
		</g>
		<g>
			<path class="st1" d="M-154.5,492.4c-0.3,0-0.5-0.1-0.7-0.3c-0.4-0.4-0.4-1,0-1.4l8.2-8.2c0.4-0.4,1-0.4,1.4,0s0.4,1,0,1.4
				l-8.2,8.2C-154,492.3-154.3,492.4-154.5,492.4z"/>
		</g>
		<g>
			<path class="st1" d="M-24.9,362.8c-0.3,0-0.5-0.1-0.7-0.3c-0.4-0.4-0.4-1,0-1.4l8.1-8.1c0.4-0.4,1-0.4,1.4,0c0.4,0.4,0.4,1,0,1.4
				l-8.2,8.2C-24.4,362.7-24.7,362.8-24.9,362.8z"/>
		</g>
		<path class="st1" d="M-85.6,520.9c-0.6,0-1-0.4-1-1v-11.5c0-0.6,0.4-1,1-1s1,0.4,1,1v11.5C-84.6,520.5-85.1,520.9-85.6,520.9z"/>
		<polygon class="st1" points="-78.3,327 -85.7,339.8 -93,327 		"/>
	</g>
	<path class="st1" d="M-83,431.9l0.4-6l11.7,5.8v-3.5l-11.4-10.7v-6.7c0-1.8-1.4-4.5-3.2-4.5c-1.8,0-3.2,2.7-3.2,4.5v6.7l-11.4,10.7
		v3.5l11.5-5.8l0.5,6.5c0,0.2,0,0.3,0,0.5l-2.1,1.9v2.1l4.8-1.6l0.1,0l4.6,1.6v-2.1l-2.1-1.9L-83,431.9z"/>
</g>
</svg>
