<?xml version="1.0" encoding="utf-8"?>
<!-- Generator: Adobe Illustrator 19.0.0, SVG Export Plug-In . SVG Version: 6.00 Build 0)  -->
<svg version="1.0" id="图层_1" xmlns="http://www.w3.org/2000/svg" xmlns:xlink="http://www.w3.org/1999/xlink" x="0px" y="0px"
	 viewBox="0 0 168 169.7" style="enable-background:new 0 0 168 169.7;" xml:space="preserve">
<style type="text/css">
	.st0{fill:#FFFFFF;}
</style>
<g id="XMLID_50_">
	<g id="XMLID_1_">
		<g id="XMLID_155_">
			<path id="XMLID_48_" class="st0" d="M83.5,21.9c0.5,0,1,0,1.3,0.2c0.3,0.2,0.5,0.6,0.5,1c0,0.6-0.3,1.2-0.8,1.3
				c-0.3,0.1-0.7,0.1-1.1,0.2L82,24.6l0,0.7l0.9-0.1c0.5,0,1.1-0.1,1.6,0c0.6,0,0.9,0.6,1,1.2c0,0.4-0.1,0.9-0.5,1.2
				c-0.3,0.3-0.9,0.4-1.4,0.5c-0.6,0-1.1,0-1.5-0.1l-0.2,0.7c0.5,0.1,1.1,0.2,1.8,0.2c0.7,0,1.4-0.2,1.9-0.6
				c0.5-0.5,0.7-1.2,0.7-1.8c0-0.7-0.4-1.4-1-1.7c0.5-0.4,0.8-1.1,0.7-1.7c0-0.6-0.3-1.2-0.9-1.5c-0.5-0.3-1.1-0.4-1.7-0.3
				c-0.7,0-1.4,0.2-1.9,0.3l0.2,0.7C82.2,22.1,82.9,21.9,83.5,21.9z"/>
			<path id="XMLID_49_" class="st0" d="M83.3,29.5c-0.6,0-1.1-0.1-1.6-0.2l-0.5-0.1l0.5-1.7l0.5,0.1c0.4,0.1,0.9,0.1,1.4,0.1
				c0.5,0,0.9-0.1,1.1-0.3c0.2-0.2,0.3-0.5,0.3-0.8c0-0.3-0.2-0.7-0.5-0.7c-0.5,0-1.1,0-1.6,0l-1.4,0.1l-0.1-1.7l1.9-0.1
				c0.3,0,0.7-0.1,1-0.2c0.3-0.1,0.5-0.5,0.5-0.8c0-0.2-0.1-0.5-0.3-0.6c0,0-0.3-0.1-0.9-0.1l0,0c-0.5,0-1.1,0.1-1.7,0.3l-0.5,0.1
				L81,21.1l0.5-0.1c0.6-0.1,1.3-0.3,2-0.3c0.9-0.1,1.5,0.1,2,0.4c0.6,0.4,1,1.1,1.1,1.9c0,0.6-0.1,1.2-0.5,1.7
				c0.4,0.4,0.7,1.1,0.7,1.8c0.1,0.9-0.3,1.7-0.9,2.2c-0.5,0.4-1.3,0.7-2.2,0.8C83.6,29.5,83.5,29.5,83.3,29.5z"/>
		</g>
		<g id="XMLID_156_">
			<path id="XMLID_46_" class="st0" d="M85.1,150c-0.9,0-1.5-0.1-1.6-1c0-0.6,0.6-1.1,1.4-1.7c1.1-0.9,2.3-1.8,2.2-3.6
				c0-0.1,0-0.3-0.1-0.7l-4.4,0.3l0,0.8l3.7-0.2c0,1.3-1,2.2-1.9,2.9c-0.9,0.7-1.7,1.4-1.6,2.4c0.1,1.5,1.1,1.8,2.4,1.8
				c0.7,0,1.4-0.2,2.1-0.3l-0.2-0.7C86.4,149.8,85.7,150,85.1,150z"/>
			<path id="XMLID_47_" class="st0" d="M84.9,151.3c-1.6,0-2.5-0.8-2.6-2.2c-0.1-1.2,0.8-2,1.7-2.7l0.1-0.1c0.9-0.7,1.5-1.2,1.7-2
				l-3.6,0.2l-0.1-1.8l5.4-0.3l0.1,0.4c0.1,0.4,0.1,0.6,0.1,0.7c0.1,2-1.3,3.1-2.4,4c-0.6,0.5-1.2,0.9-1.2,1.3
				c0,0.3,0.1,0.6,1.1,0.6c0.5,0,1.2-0.2,1.8-0.3l0.6-0.1l0.4,1.7l-0.8,0.2c-0.6,0.1-1.3,0.3-1.9,0.3
				C85.1,151.3,85,151.3,84.9,151.3z"/>
		</g>
		<g id="XMLID_157_">
			<polygon id="XMLID_44_" class="st0" points="78.9,150.1 78.5,144.2 79.9,144.2 79.9,143.4 76.3,143.6 76.3,144.4 77.8,144.3 
				78.2,151.2 80.2,150.4 79.9,149.7 			"/>
			<polygon id="XMLID_45_" class="st0" points="77.7,151.9 77.3,144.8 75.9,144.9 75.8,143.2 80.4,142.9 80.5,144.6 79.1,144.7 
				79.3,149.4 80.2,149.1 80.8,150.7 			"/>
		</g>
		<g id="XMLID_160_">
			<path id="XMLID_38_" class="st0" d="M110.9,36.1c0.2,0.4,0.6,0.8,1.1,1.1c0.6,0.3,1.2,0.5,1.8,0.3l0,0c0.6-0.1,1.1-0.4,1.6-1.4
				l0.2-0.4c0.4-1,0.3-2.1-1.1-2.9c-0.4-0.2-1-0.5-1.7-0.7c0.2-0.3,0.3-0.5,0.3-0.6c0.8-1.1,1.7-1,2.5-0.5c0.4,0.2,0.9,0.6,1.2,0.9
				l0.2,0.2l0.5-0.6l-0.2-0.2l0,0c-0.4-0.3-0.9-0.7-1.4-1c-1.1-0.6-2.4-0.7-3.5,0.7l-1.2,2.2C110.8,34.3,110.5,35.4,110.9,36.1z
				 M112,33.7c0-0.1,0.2-0.4,0.4-0.8c0.7,0.2,1.3,0.4,1.7,0.6c1,0.6,1.1,1.3,0.8,1.9c-0.1,0.1-0.1,0.2-0.2,0.3
				c-0.4,0.7-0.7,0.9-1.2,1c-0.3,0.1-0.8,0-1.2-0.3c-0.4-0.2-0.7-0.5-0.8-0.8l0,0C111.3,35.3,111.6,34.5,112,33.7z"/>
			<path id="XMLID_41_" class="st0" d="M112.8,38.3l0.1-0.2c-0.4-0.1-0.8-0.2-1.2-0.4c-0.6-0.4-1.1-0.9-1.4-1.3h0
				c-0.4-0.8-0.2-1.9,0.5-3.1l1.2-2.2c1.1-1.5,2.6-1.8,4.1-0.9c0.1,0.1,0.2,0.1,0.3,0.2l0-0.1l1.7,1.4l-0.3,0.3l0.2,0.9l-0.6-0.4
				l-0.4,0.6l-0.7-0.5c-0.4-0.3-0.8-0.6-1.1-0.8c-0.8-0.4-1.3-0.3-1.8,0.4c0.4,0.2,0.8,0.3,1.2,0.5c1.5,0.8,2,2.1,1.3,3.5l-0.2,0.4
				c-0.6,1.1-1.2,1.4-1.9,1.6L112.8,38.3z M112,35.6c0.1,0.1,0.3,0.3,0.6,0.5c0.4,0.2,0.7,0.3,0.8,0.2c0.3-0.1,0.5-0.2,0.9-0.8
				c0.1-0.1,0.1-0.2,0.2-0.3c0.1-0.2,0.4-0.7-0.6-1.3c-0.3-0.2-0.7-0.3-1.2-0.5c-0.1,0.2-0.2,0.4-0.2,0.4l0,0
				C112,34.8,111.9,35.4,112,35.6L112,35.6z"/>
		</g>
		<g id="XMLID_161_">
			<path id="XMLID_36_" class="st0" d="M51.4,140.7c0.3-0.5,1.1-0.6,2.1-0.7c1.4-0.1,2.9-0.3,3.8-1.8c0.1-0.1,0.1-0.2,0.3-0.6
				l-3.8-2.2l-0.4,0.7l3.2,1.8c-0.7,1.1-2,1.3-3.2,1.4c-1.1,0.1-2.2,0.2-2.7,1.1c-0.7,1.3-0.1,2.1,1,2.8c0.6,0.3,1.3,0.6,1.9,0.8
				l0.3-0.7c-0.6-0.2-1.3-0.5-1.8-0.8C51.4,142,50.9,141.5,51.4,140.7z"/>
			<path id="XMLID_37_" class="st0" d="M54,144.6l-0.7-0.3c-0.6-0.2-1.2-0.5-1.7-0.8c-1.6-0.9-2-2.1-1.2-3.4
				c0.6-1.1,1.8-1.2,2.9-1.3l0.1,0c1.1-0.1,1.9-0.2,2.5-0.7l-3.2-1.8l0.9-1.5l4.7,2.6l-0.2,0.4c-0.2,0.4-0.2,0.5-0.3,0.7
				c-1,1.8-2.8,1.9-4.2,2.1c-0.8,0.1-1.5,0.1-1.7,0.5l0,0c-0.1,0.3-0.3,0.6,0.6,1.1c0.5,0.3,1.1,0.5,1.7,0.7l0.6,0.2L54,144.6z"/>
		</g>
		<g id="XMLID_164_">
			<path id="XMLID_30_" class="st0" d="M45.3,139.5l5.6-2.6l0.3-0.6l-3.1-1.7l1-1.7l-0.6-0.4l-1,1.7l-0.8-0.5l-0.4,0.6l0.8,0.5
				l-2.4,4.3L45.3,139.5z M47.8,135.2c0.8,0.4,1.5,0.8,2.2,1.3l-4,1.9L47.8,135.2z"/>
			<path id="XMLID_33_" class="st0" d="M45.3,140l-1.3-0.7l2.4-4.3l-0.8-0.5l0.9-1.5l0.8,0.5l1-1.7l1.5,0.9l-1,1.7l3.1,1.7l-0.7,1.2
				L45.3,140z M48,135.9l-0.8,1.3l1.7-0.8L48,135.9z"/>
		</g>
		<g id="XMLID_165_">
			<path id="XMLID_28_" class="st0" d="M139,53.9c-0.6-1-1.7-1.3-2.9-0.6l-3.2,1.9c-1.1,0.7-1.3,1.7-0.7,2.6l1.2,2l0.6-0.4l-1.2-2
				c-0.3-0.5-0.2-1.2,0.5-1.6l1.4-0.8l1.8,3.1l0.6-0.4l-1.8-3.1l1.1-0.6c0.8-0.5,1.5-0.3,1.8,0.3l1.2,2l0.6-0.4L139,53.9z"/>
			<path id="XMLID_29_" class="st0" d="M133.2,60.5l-1.4-2.5c-0.7-1.2-0.3-2.5,0.9-3.3l3.2-1.9c0.7-0.4,1.4-0.6,2.1-0.4
				c0.6,0.1,1.1,0.5,1.5,1.2l1.4,2.4l-1.5,0.9l-1.4-2.4c-0.1-0.2-0.2-0.3-0.4-0.3c-0.2-0.1-0.5,0-0.8,0.2l-0.7,0.4l1.8,3.1l-1.5,0.9
				l-1.8-3.1l-1,0.6c-0.4,0.3-0.5,0.6-0.3,0.9l1.4,2.5L133.2,60.5z"/>
		</g>
		<g id="XMLID_166_">
			<polygon id="XMLID_26_" class="st0" points="27.6,120.3 33.4,115.2 33.1,114.6 28.5,115.3 31.3,111.6 31,111.1 23.8,113.6 
				24,114.3 29.9,112.2 27.3,115.7 27.6,116.2 31.9,115.6 27.2,119.7 			"/>
			<polygon id="XMLID_27_" class="st0" points="27.6,121 26.5,119.7 30.3,116.3 27.3,116.8 26.7,115.6 28.5,113.3 23.7,114.9 
				23.1,113.3 31.2,110.5 31.9,111.7 29.6,114.7 33.4,114.1 34.1,115.3 			"/>
		</g>
		<g id="XMLID_167_">
			<polygon id="XMLID_24_" class="st0" points="140.8,86.6 140.7,85.2 147.6,84.9 146.9,82.9 146.2,83.1 146.5,84.2 140.7,84.4 
				140.6,83 139.8,83 140,86.6 			"/>
			<polygon id="XMLID_25_" class="st0" points="139.5,87.2 139.3,82.6 141.1,82.5 141.1,83.9 145.8,83.7 145.5,82.8 147.2,82.2 
				148.3,85.3 141.2,85.6 141.3,87.1 			"/>
		</g>
		<g id="XMLID_168_">
			<path id="XMLID_22_" class="st0" d="M143.7,91.8c0.7,0.9,1.3,1.7,2.3,1.7c1.5-0.1,1.8-1.1,1.8-2.4c0-0.7-0.2-1.4-0.3-2.1
				l-0.7,0.1c0.1,0.7,0.3,1.4,0.3,2c0,0.9-0.2,1.5-1.1,1.6c-0.6,0-1.1-0.6-1.7-1.4c-0.9-1.1-1.8-2.3-3.6-2.3c-0.1,0-0.3,0-0.7,0.1
				l0.2,4.4l0.8,0l-0.2-3.7C142.2,89.8,143,90.8,143.7,91.8z"/>
			<path id="XMLID_23_" class="st0" d="M139.8,94.1l-0.2-5.4l0.4-0.1c0.4-0.1,0.6-0.1,0.7-0.1c2-0.1,3.1,1.3,4,2.5
				c0.5,0.6,0.9,1.2,1.3,1.2c0.3,0,0.6,0,0.6-1.1c0-0.5-0.2-1.2-0.3-1.8l-0.1-0.6l1.7-0.3l0.1,0.7c0.1,0.6,0.2,1.3,0.3,1.9
				c0.1,1.8-0.7,2.8-2.3,2.9c-1.2,0.1-2-0.9-2.7-1.8l-0.1-0.1c-0.7-0.9-1.2-1.5-2-1.7l0.2,3.6L139.8,94.1z"/>
		</g>
		<g id="XMLID_169_">
			<path id="XMLID_20_" class="st0" d="M23.3,85.9c0.4,0,0.9,0.1,1.2,0.5c0.3,0.3,0.4,0.9,0.4,1.4c0,0.6,0,1.1-0.1,1.5l0.7,0.2
				c0.1-0.5,0.2-1.1,0.2-1.8c0-0.7-0.2-1.4-0.6-1.9c-0.5-0.5-1.2-0.8-1.8-0.7c-0.7,0-1.4,0.4-1.7,1c-0.4-0.5-1.1-0.8-1.7-0.8
				c-0.6,0-1.2,0.3-1.5,0.8c-0.3,0.5-0.4,1.1-0.4,1.7c0,0.7,0.2,1.4,0.3,1.9l0.7-0.2c-0.1-0.5-0.2-1.1-0.3-1.8c0-0.5,0-1,0.2-1.3
				c0.2-0.3,0.6-0.5,1-0.5c0.6,0,1.2,0.3,1.3,0.9c0.1,0.3,0.1,0.7,0.2,1.1l0.1,1.4l0.7,0l0-0.9c0-0.5,0-1.1,0-1.6
				C22.1,86.3,22.7,85.9,23.3,85.9z"/>
			<path id="XMLID_21_" class="st0" d="M17.8,90.4l-0.1-0.5c-0.1-0.6-0.3-1.3-0.3-2c0-0.9,0.1-1.5,0.4-2c0.4-0.6,1.2-1,1.9-1.1
				c0.6,0,1.2,0.2,1.7,0.5c0.4-0.4,1.1-0.7,1.8-0.7c0.9,0,1.7,0.3,2.2,0.9c0.4,0.5,0.7,1.3,0.8,2.2c0,0.7,0,1.4-0.2,1.9l-0.1,0.5
				l-1.7-0.5l0.1-0.5c0.1-0.3,0.2-0.9,0.1-1.4c0-0.5-0.1-0.9-0.3-1.1c-0.2-0.2-0.5-0.3-0.8-0.3l0,0c-0.3,0-0.7,0.2-0.8,0.5
				c0,0.5,0,1.1,0,1.6l0.1,1.4L20.9,90l-0.1-1.9c0-0.4-0.1-0.7-0.2-1c-0.1-0.3-0.5-0.5-0.8-0.5c-0.2,0-0.5,0.1-0.6,0.3
				c0,0-0.1,0.3-0.1,0.9c0,0.5,0.1,1,0.3,1.7l0.1,0.5L17.8,90.4z"/>
		</g>
		<g id="XMLID_172_">
			<path id="XMLID_14_" class="st0" d="M22.1,78.5l-1.8,0.1c-1.5,0.1-2.7,0.9-2.7,2.5c0,1.8,1.4,2.5,3.1,2.5c0.5,0,1.1,0,1.6-0.1
				c1.6-0.1,3.1-0.7,3.1-2.5C25.4,79,23.9,78.4,22.1,78.5z M22.3,82.7c-0.5,0-1.1,0-1.6,0.1c-1.3,0-2.3-0.5-2.3-1.7
				c0-1.1,0.9-1.7,2-1.7l1.8-0.1c1.3-0.1,2.5,0.4,2.5,1.7C24.6,82.1,23.4,82.7,22.3,82.7z"/>
			<path id="XMLID_17_" class="st0" d="M20.5,84c-1.1,0-2-0.3-2.6-0.9c-0.5-0.5-0.8-1.2-0.8-2.1c0-1.7,1.2-2.9,3.1-3L22,78
				c1.3-0.1,2.3,0.2,3,0.8c0.5,0.5,0.8,1.2,0.8,2.1c0,1.8-1.3,3-3.6,3c-0.3,0-0.6,0-0.8,0c-0.3,0-0.5,0-0.8,0
				C20.6,84,20.5,84,20.5,84z M22.3,79.7c-0.1,0-0.1,0-0.2,0l-1.8,0.1c-0.3,0-1.5,0.2-1.5,1.2c0,0.4,0.1,0.6,0.3,0.8
				c0.3,0.3,0.8,0.4,1.5,0.4c0.3,0,0.5,0,0.8,0c0.3,0,0.5,0,0.8,0h0c0.8,0,1.8-0.4,1.9-1.3C24.1,79.9,23,79.7,22.3,79.7z"/>
		</g>
		<g id="XMLID_173_">
			<path id="XMLID_12_" class="st0" d="M114.8,140.4c-0.6-1-1.8-1-3-1c-0.8,0-1.6,0.1-2-0.2c-0.2-0.2-0.3-0.3-0.4-0.5
				c-0.3-0.5,0-1.3,1.1-1.9c0.4-0.2,0.9-0.4,1.5-0.6l-0.2-0.7c-0.6,0.2-1.2,0.5-1.6,0.7c-1.6,0.9-1.9,2-1.4,2.9
				c0.1,0.3,0.4,0.5,0.6,0.7c0.7,0.5,1.6,0.5,2.5,0.4c1-0.1,1.9-0.1,2.2,0.6c0.4,0.8-0.2,1.5-1,1.9c-0.5,0.3-1,0.5-1.6,0.7l0.3,0.7
				c0.6-0.2,1.1-0.5,1.7-0.8C114.6,142.6,115.4,141.7,114.8,140.4z"/>
			<path id="XMLID_13_" class="st0" d="M111.5,144.7l-0.6-1.6l0.5-0.2c0.5-0.2,1.1-0.4,1.5-0.7c1.1-0.6,0.9-1.1,0.8-1.3
				c-0.2-0.4-0.9-0.3-1.8-0.3c-1.1,0.1-2.1,0.1-2.9-0.5c-0.3-0.3-0.6-0.5-0.8-0.8c-0.3-0.5-1-2.2,1.6-3.6c0.5-0.3,1-0.5,1.7-0.7
				l0.5-0.2l0.5,1.6l-0.5,0.2c-0.6,0.2-1.1,0.4-1.4,0.6c-0.5,0.3-0.9,0.7-1,0.9c0,0.1,0,0.2,0,0.3c0.1,0.1,0.2,0.2,0.3,0.4
				c0.3,0.2,1.1,0.2,1.7,0.1c1.2-0.1,2.7,0,3.4,1.2l0,0c0.4,0.8,0.7,2.3-1.5,3.6c-0.6,0.3-1.3,0.6-1.8,0.8L111.5,144.7z"/>
		</g>
		<g id="XMLID_174_">
			<path id="XMLID_10_" class="st0" d="M50.4,29.9l-0.6,0.3l3.8,6.7l0.7-0.4c-1-1.8-2-3.6-3-5.4l6.4,3.5l0.7-0.4l-3.8-6.7l-0.6,0.4
				c1,1.9,2.1,3.7,3.1,5.6L50.4,29.9z"/>
			<polygon id="XMLID_11_" class="st0" points="53.4,37.6 49.2,30 50.4,29.3 55.8,32.2 53.3,27.7 54.8,26.9 59.1,34.5 57.7,35.2 
				52.5,32.4 55,36.7 			"/>
		</g>
		<g id="XMLID_175_">
			<polygon id="XMLID_8_" class="st0" points="133.7,112.2 132,115.4 132.7,115.7 133.3,114.4 139.4,117.6 139.8,115.5 139.1,115.4 
				138.9,116.5 133.7,113.8 134.3,112.5 			"/>
			<polygon id="XMLID_9_" class="st0" points="139.8,118.4 133.5,115.1 132.9,116.4 131.3,115.6 133.5,111.5 135,112.3 134.3,113.5 
				138.5,115.7 138.7,114.8 140.4,115.1 			"/>
		</g>
		<g id="XMLID_176_">
			<path id="XMLID_6_" class="st0" d="M134.1,119.6c-0.1,0.1-0.3,0.7-0.4,0.9c-0.1,0.2-0.2,0.4-0.3,0.6c-0.4,0.7-0.9,1.4-1.8,1.3
				c-0.2,0-0.4-0.1-0.6-0.2c-0.4-0.2-0.8-0.6-0.9-1.1c-0.1-0.4,0.1-1,0.4-1.5c0.3-0.5,0.6-1,0.9-1.3l-0.5-0.5
				c-0.4,0.3-0.8,0.9-1.1,1.5c-0.3,0.7-0.6,1.4-0.4,2c0.1,0.7,0.7,1.3,1.3,1.6c0.3,0.1,0.6,0.2,0.9,0.3c1.3,0.2,2.1-0.7,2.6-1.7
				c0.1-0.2,0.2-0.4,0.3-0.6c0,0,0-0.1,0-0.1c0.8,0.5,1.2,0.8,1.9,1.3l-1.4,2.7l0.7,0.3l1.7-3.3L134.1,119.6z"/>
			<path id="XMLID_7_" class="st0" d="M135.8,125.7l-1.5-0.8l1.4-2.7l-0.4-0.3c-0.2-0.1-0.4-0.3-0.7-0.4c0,0.1-0.1,0.2-0.1,0.2
				c-0.3,0.5-1.2,2.2-3.1,1.9c-0.4-0.1-0.7-0.2-1-0.3c-0.8-0.4-1.4-1.1-1.5-1.9c-0.2-0.8,0.2-1.7,0.5-2.3c0.3-0.6,0.7-1.2,1.2-1.6
				l0.4-0.4l1.2,1.2l-0.4,0.3c-0.2,0.2-0.6,0.6-0.8,1.2c-0.2,0.5-0.4,0.9-0.3,1.2c0.1,0.2,0.3,0.5,0.6,0.7c0.2,0.1,0.3,0.1,0.5,0.2
				c0.4,0.1,0.8,0,1.3-1c0.1-0.2,0.2-0.4,0.3-0.6c0.1-0.3,0.4-0.8,0.5-0.9l0.3-0.5l4,2.7L135.8,125.7z"/>
		</g>
		<g id="XMLID_177_">
			<path id="XMLID_4_" class="st0" d="M31,59.8l0.5,0.5c0.3-0.3,0.7-0.9,1-1.4c0.3-0.6,0.5-1.4,0.4-2c-0.1-0.7-0.6-1.2-1.2-1.5
				c-0.6-0.3-1.4-0.4-2,0c-0.1-0.6-0.5-1.2-1.1-1.5c-0.5-0.3-1.2-0.3-1.8,0c-0.5,0.2-0.9,0.7-1.2,1.3c-0.3,0.6-0.5,1.3-0.7,1.8
				l0.7,0.2c0.1-0.5,0.4-1.1,0.7-1.7c0.2-0.4,0.5-0.8,0.8-1c0.4-0.2,0.8-0.1,1.1,0c0.5,0.3,0.8,0.8,0.7,1.4c-0.1,0.3-0.2,0.7-0.4,1
				L28,58.2l0.7,0.3l0.4-0.8c0.2-0.5,0.5-1,0.8-1.4c0.3-0.5,1-0.5,1.5-0.2c0.4,0.2,0.7,0.6,0.8,1c0.1,0.4-0.1,1-0.3,1.5
				C31.7,59.1,31.3,59.6,31,59.8z"/>
			<path id="XMLID_5_" class="st0" d="M31.5,61.1l-1.2-1.3l0.4-0.3c0.3-0.3,0.6-0.7,0.8-1.1c0.2-0.5,0.4-0.9,0.3-1.1
				c-0.1-0.3-0.3-0.5-0.6-0.7c-0.3-0.2-0.7-0.2-0.9,0.1c-0.3,0.4-0.6,0.9-0.8,1.4l-0.7,1.2l-1.5-0.8l0.9-1.7c0.2-0.4,0.3-0.7,0.4-1
				c0.1-0.3-0.2-0.6-0.4-0.8c-0.2-0.1-0.5-0.1-0.7,0c0,0-0.3,0.2-0.6,0.8c-0.2,0.4-0.4,1-0.6,1.6l-0.1,0.5l-1.7-0.5l0.2-0.6
				c0.2-0.5,0.4-1.2,0.7-1.8c0.4-0.8,0.9-1.3,1.4-1.5c0.7-0.3,1.5-0.3,2.2,0c0.6,0.3,1,0.8,1.2,1.3c0.6-0.1,1.3-0.1,1.9,0.3
				c0.8,0.4,1.3,1.1,1.5,1.9c0.1,0.7-0.1,1.5-0.5,2.3c-0.3,0.6-0.7,1.2-1.1,1.6L31.5,61.1z"/>
		</g>
		<g id="XMLID_178_">
			<path id="XMLID_2_" class="st0" d="M34.1,54l0.5,0.5c0.3-0.3,0.8-0.9,1-1.4c0.3-0.6,0.5-1.4,0.4-2c-0.1-0.7-0.6-1.2-1.2-1.5
				c-0.6-0.3-1.4-0.4-2,0c-0.1-0.6-0.5-1.2-1.1-1.5c-0.5-0.3-1.2-0.3-1.8,0c-0.5,0.2-0.9,0.7-1.2,1.3c-0.3,0.6-0.5,1.3-0.7,1.8
				l0.7,0.2c0.1-0.5,0.4-1.1,0.7-1.7c0.2-0.4,0.5-0.8,0.8-1c0.4-0.2,0.8-0.1,1.1,0c0.5,0.3,0.8,0.8,0.7,1.4c-0.1,0.3-0.2,0.7-0.4,1
				l-0.6,1.2l0.7,0.3l0.4-0.8c0.2-0.5,0.5-1,0.8-1.4c0.3-0.5,1-0.5,1.5-0.2c0.4,0.2,0.7,0.6,0.8,1c0.1,0.4-0.1,1-0.3,1.5
				C34.7,53.2,34.4,53.7,34.1,54z"/>
			<path id="XMLID_3_" class="st0" d="M34.6,55.2l-1.2-1.3l0.4-0.3c0.3-0.3,0.6-0.7,0.8-1.1c0.2-0.5,0.4-0.9,0.3-1.1
				c-0.1-0.3-0.3-0.5-0.6-0.7c-0.3-0.2-0.7-0.2-0.9,0.1c-0.3,0.4-0.6,0.9-0.8,1.4l-0.7,1.2l-1.5-0.8l0.9-1.7c0.2-0.4,0.3-0.7,0.4-1
				c0.1-0.3-0.2-0.6-0.4-0.8c-0.2-0.1-0.5-0.1-0.7,0c0,0-0.3,0.2-0.6,0.8c-0.2,0.4-0.4,1-0.6,1.6l-0.1,0.5l-1.7-0.5l0.2-0.6
				c0.2-0.5,0.4-1.2,0.7-1.8c0.4-0.8,0.9-1.3,1.4-1.5c0.7-0.3,1.5-0.3,2.2,0c0.6,0.3,1,0.8,1.2,1.3c0.6-0.1,1.3-0.1,1.9,0.3
				c0.8,0.4,1.3,1.1,1.5,1.9c0.1,0.7-0.1,1.5-0.5,2.3c-0.3,0.6-0.7,1.2-1.1,1.6L34.6,55.2z"/>
		</g>
	</g>
	<g id="XMLID_181_">
		<path id="XMLID_291_" class="st0" d="M83.6,129.6c24.4,0,44.2-19.8,44.2-44.2c0-24.4-19.8-44.2-44.2-44.2
			c-24.4,0-44.2,19.8-44.2,44.2C39.4,109.7,59.2,129.6,83.6,129.6z M83.6,43.2c23.3,0,42.2,18.9,42.2,42.2s-18.9,42.2-42.2,42.2
			s-42.2-18.9-42.2-42.2S60.3,43.2,83.6,43.2z"/>
	</g>
	<g id="XMLID_182_">
		<path id="XMLID_289_" class="st0" d="M83.6,14.3c0.6,0,1-0.4,1-1V6.4c0-0.6-0.4-1-1-1s-1,0.4-1,1v6.9C82.6,13.8,83,14.3,83.6,14.3
			z"/>
	</g>
	<g id="XMLID_183_">
		<path id="XMLID_287_" class="st0" d="M83.6,156.4c-0.6,0-1,0.4-1,1v7c0,0.6,0.4,1,1,1s1-0.4,1-1v-7
			C84.6,156.8,84.1,156.4,83.6,156.4z"/>
	</g>
	<g id="XMLID_184_">
		<path id="XMLID_285_" class="st0" d="M77,11.1C77,11.1,77,11.1,77,11.1c0.6-0.1,1-0.5,1-1.1l-0.3-3.4c0-0.5-0.5-0.9-1.1-0.9
			c-0.6,0-1,0.5-0.9,1.1l0.3,3.4C76,10.7,76.4,11.1,77,11.1z"/>
	</g>
	<g id="XMLID_185_">
		<path id="XMLID_283_" class="st0" d="M90.1,159.6c-0.6,0-1,0.5-0.9,1.1l0.3,3.5c0,0.5,0.5,0.9,1,0.9c0,0,0.1,0,0.1,0
			c0.6,0,1-0.5,0.9-1.1l-0.3-3.5C91.1,159.9,90.6,159.5,90.1,159.6z"/>
	</g>
	<g id="XMLID_186_">
		<path id="XMLID_281_" class="st0" d="M63,12.6c0.1,0.4,0.5,0.7,1,0.7c0.1,0,0.2,0,0.3,0c0.5-0.1,0.8-0.7,0.7-1.2L64,8.8
			c-0.1-0.5-0.7-0.8-1.2-0.7c-0.5,0.1-0.8,0.7-0.7,1.2L63,12.6z"/>
	</g>
	<g id="XMLID_187_">
		<path id="XMLID_279_" class="st0" d="M104,158c-0.1-0.5-0.7-0.9-1.2-0.7c-0.5,0.1-0.9,0.7-0.7,1.2l0.9,3.4c0.1,0.4,0.5,0.7,1,0.7
			c0.1,0,0.2,0,0.3,0c0.5-0.1,0.9-0.7,0.7-1.2L104,158z"/>
	</g>
	<g id="XMLID_188_">
		<path id="XMLID_277_" class="st0" d="M50.8,17.3c0.2,0.4,0.5,0.6,0.9,0.6c0.1,0,0.3,0,0.4-0.1c0.5-0.2,0.7-0.8,0.5-1.3l-1.5-3.1
			c-0.2-0.5-0.8-0.7-1.3-0.5c-0.5,0.2-0.7,0.8-0.5,1.3L50.8,17.3z"/>
	</g>
	<g id="XMLID_189_">
		<path id="XMLID_275_" class="st0" d="M116.4,153.4c-0.2-0.5-0.8-0.7-1.3-0.5c-0.5,0.2-0.7,0.8-0.5,1.3l1.5,3.2
			c0.2,0.4,0.5,0.6,0.9,0.6c0.1,0,0.3,0,0.4-0.1c0.5-0.2,0.7-0.8,0.5-1.3L116.4,153.4z"/>
	</g>
	<g id="XMLID_190_">
		<path id="XMLID_273_" class="st0" d="M39.3,24c0.2,0.3,0.5,0.4,0.8,0.4c0.2,0,0.4-0.1,0.6-0.2c0.5-0.3,0.6-0.9,0.3-1.4l-1.9-2.8
			c-0.3-0.5-0.9-0.6-1.4-0.3c-0.5,0.3-0.6,0.9-0.3,1.4L39.3,24z"/>
	</g>
	<g id="XMLID_191_">
		<path id="XMLID_271_" class="st0" d="M127.7,146.7c-0.3-0.4-0.9-0.6-1.4-0.2c-0.4,0.3-0.6,0.9-0.2,1.4l2,2.8
			c0.2,0.3,0.5,0.4,0.8,0.4c0.2,0,0.4-0.1,0.6-0.2c0.4-0.3,0.6-0.9,0.2-1.4L127.7,146.7z"/>
	</g>
	<g id="XMLID_192_">
		<path id="XMLID_269_" class="st0" d="M29.5,32.7c0.2,0.2,0.5,0.3,0.7,0.3s0.5-0.1,0.7-0.3c0.4-0.4,0.4-1,0-1.4l-2.5-2.5
			c-0.4-0.4-1-0.4-1.4,0s-0.4,1,0,1.4L29.5,32.7z"/>
	</g>
	<g id="XMLID_193_">
		<path id="XMLID_267_" class="st0" d="M137.7,138.1c-0.4-0.4-1-0.4-1.4,0s-0.4,1,0,1.4l2.4,2.4c0.2,0.2,0.5,0.3,0.7,0.3
			s0.5-0.1,0.7-0.3c0.4-0.4,0.4-1,0-1.4L137.7,138.1z"/>
	</g>
	<g id="XMLID_194_">
		<path id="XMLID_265_" class="st0" d="M21.1,42.9c0.2,0.1,0.4,0.2,0.6,0.2c0.3,0,0.6-0.1,0.8-0.4c0.3-0.4,0.2-1.1-0.2-1.4l-2.8-2
			C19,38.9,18.4,39,18,39.5c-0.3,0.4-0.2,1.1,0.2,1.4L21.1,42.9z"/>
	</g>
	<g id="XMLID_195_">
		<path id="XMLID_263_" class="st0" d="M145.9,127.9c-0.5-0.3-1.1-0.2-1.4,0.3c-0.3,0.5-0.2,1.1,0.3,1.4l2.9,2
			c0.2,0.1,0.4,0.2,0.6,0.2c0.3,0,0.6-0.2,0.8-0.4c0.3-0.5,0.2-1.1-0.3-1.4L145.9,127.9z"/>
	</g>
	<g id="XMLID_196_">
		<path id="XMLID_261_" class="st0" d="M11.5,52.9l3.1,1.5c0.1,0.1,0.3,0.1,0.4,0.1c0.4,0,0.7-0.2,0.9-0.6c0.2-0.5,0-1.1-0.5-1.3
			l-3.1-1.5c-0.5-0.2-1.1,0-1.3,0.5C10.8,52,11,52.6,11.5,52.9z"/>
	</g>
	<g id="XMLID_197_">
		<path id="XMLID_259_" class="st0" d="M155.6,117.9l-3.2-1.5c-0.5-0.2-1.1,0-1.3,0.5c-0.2,0.5,0,1.1,0.5,1.3l3.2,1.5
			c0.1,0.1,0.3,0.1,0.4,0.1c0.4,0,0.7-0.2,0.9-0.6C156.3,118.7,156.1,118.1,155.6,117.9z"/>
	</g>
	<g id="XMLID_198_">
		<path id="XMLID_257_" class="st0" d="M7,65.8l3.3,0.9c0.1,0,0.2,0,0.3,0c0.4,0,0.8-0.3,1-0.7c0.1-0.5-0.2-1.1-0.7-1.2l-3.3-0.9
			c-0.5-0.1-1.1,0.2-1.2,0.7C6.2,65.1,6.5,65.7,7,65.8z"/>
	</g>
	<g id="XMLID_199_">
		<path id="XMLID_255_" class="st0" d="M160.1,104.8l-3.4-0.9c-0.5-0.1-1.1,0.2-1.2,0.7s0.2,1.1,0.7,1.2l3.4,0.9c0.1,0,0.2,0,0.3,0
			c0.4,0,0.8-0.3,1-0.7C161,105.5,160.7,105,160.1,104.8z"/>
	</g>
	<g id="XMLID_200_">
		<path id="XMLID_171_" class="st0" d="M4.8,79.5l3.4,0.3c0,0,0.1,0,0.1,0c0.5,0,0.9-0.4,1-0.9c0-0.6-0.4-1-0.9-1.1l-3.4-0.3
			c-0.5,0-1,0.4-1.1,0.9C3.8,78.9,4.2,79.4,4.8,79.5z"/>
	</g>
	<g id="XMLID_201_">
		<path id="XMLID_163_" class="st0" d="M162.3,91.3l-3.5-0.3c-0.6-0.1-1,0.4-1.1,0.9c0,0.6,0.4,1,0.9,1.1l3.5,0.3c0,0,0.1,0,0.1,0
			c0.5,0,1-0.4,1-0.9C163.3,91.8,162.9,91.3,162.3,91.3z"/>
	</g>
	<g id="XMLID_202_">
		<path id="XMLID_159_" class="st0" d="M4.9,93.3L8.3,93c0.6,0,1-0.5,0.9-1.1c0-0.6-0.5-0.9-1.1-0.9l-3.4,0.3c-0.6,0-1,0.5-0.9,1.1
			C3.9,92.9,4.3,93.3,4.9,93.3C4.9,93.3,4.9,93.3,4.9,93.3z"/>
	</g>
	<g id="XMLID_203_">
		<path id="XMLID_154_" class="st0" d="M158.7,77.8c-0.6,0-1,0.5-0.9,1.1c0,0.5,0.5,0.9,1,0.9c0,0,0.1,0,0.1,0l3.5-0.3
			c0.6,0,1-0.5,0.9-1.1c0-0.6-0.5-1-1.1-0.9L158.7,77.8z"/>
	</g>
	<g id="XMLID_204_">
		<path id="XMLID_152_" class="st0" d="M11.5,104.6c-0.1-0.5-0.7-0.8-1.2-0.7L7,104.8c-0.5,0.1-0.8,0.7-0.7,1.2
			c0.1,0.4,0.5,0.7,1,0.7c0.1,0,0.2,0,0.3,0l3.3-0.9C11.4,105.7,11.7,105.1,11.5,104.6z"/>
	</g>
	<g id="XMLID_205_">
		<path id="XMLID_150_" class="st0" d="M155.5,66c0.1,0.4,0.5,0.7,1,0.7c0.1,0,0.2,0,0.3,0l3.4-0.9c0.5-0.1,0.9-0.7,0.7-1.2
			c-0.1-0.5-0.7-0.9-1.2-0.7l-3.4,0.9C155.7,65,155.4,65.5,155.5,66z"/>
	</g>
	<g id="XMLID_206_">
		<path id="XMLID_148_" class="st0" d="M16,116.8c-0.2-0.5-0.8-0.7-1.3-0.5l-3.1,1.5c-0.5,0.2-0.7,0.8-0.5,1.3
			c0.2,0.4,0.5,0.6,0.9,0.6c0.1,0,0.3,0,0.4-0.1l3.1-1.5C16,117.9,16.2,117.3,16,116.8z"/>
	</g>
	<g id="XMLID_207_">
		<path id="XMLID_146_" class="st0" d="M151.1,53.9c0.2,0.4,0.5,0.6,0.9,0.6c0.1,0,0.3,0,0.4-0.1l3.2-1.5c0.5-0.2,0.7-0.8,0.5-1.3
			c-0.2-0.5-0.8-0.7-1.3-0.5l-3.2,1.5C151,52.8,150.8,53.4,151.1,53.9z"/>
	</g>
	<g id="XMLID_208_">
		<path id="XMLID_144_" class="st0" d="M22.5,128.1c-0.3-0.5-0.9-0.6-1.4-0.2l-2.8,2c-0.4,0.3-0.6,0.9-0.2,1.4
			c0.2,0.3,0.5,0.4,0.8,0.4c0.2,0,0.4-0.1,0.6-0.2l2.8-2C22.7,129.2,22.8,128.5,22.5,128.1z"/>
	</g>
	<g id="XMLID_209_">
		<path id="XMLID_142_" class="st0" d="M144.5,42.6c0.2,0.3,0.5,0.4,0.8,0.4c0.2,0,0.4-0.1,0.6-0.2l2.9-2c0.5-0.3,0.6-0.9,0.3-1.4
			s-0.9-0.6-1.4-0.3l-2.9,2C144.3,41.6,144.2,42.2,144.5,42.6z"/>
	</g>
	<g id="XMLID_210_">
		<path id="XMLID_140_" class="st0" d="M29.5,138.1l-2.5,2.4c-0.4,0.4-0.4,1,0,1.4c0.2,0.2,0.5,0.3,0.7,0.3c0.2,0,0.5-0.1,0.7-0.3
			l2.5-2.4c0.4-0.4,0.4-1,0-1.4C30.5,137.7,29.9,137.7,29.5,138.1z"/>
	</g>
	<g id="XMLID_211_">
		<path id="XMLID_138_" class="st0" d="M137,33c0.3,0,0.5-0.1,0.7-0.3l2.4-2.5c0.4-0.4,0.4-1,0-1.4c-0.4-0.4-1-0.4-1.4,0l-2.4,2.5
			c-0.4,0.4-0.4,1,0,1.4C136.5,32.9,136.7,33,137,33z"/>
	</g>
	<g id="XMLID_212_">
		<path id="XMLID_136_" class="st0" d="M39.3,146.7l-1.9,2.8c-0.3,0.5-0.2,1.1,0.3,1.4c0.2,0.1,0.4,0.2,0.6,0.2
			c0.3,0,0.6-0.2,0.8-0.4l1.9-2.8c0.3-0.5,0.2-1.1-0.3-1.4C40.3,146.1,39.6,146.3,39.3,146.7z"/>
	</g>
	<g id="XMLID_213_">
		<path id="XMLID_134_" class="st0" d="M126.9,24.5c0.3,0,0.6-0.1,0.8-0.4l2-2.8c0.3-0.4,0.2-1.1-0.2-1.4c-0.4-0.3-1.1-0.2-1.4,0.2
			l-2,2.8c-0.3,0.4-0.2,1.1,0.2,1.4C126.5,24.4,126.7,24.5,126.9,24.5z"/>
	</g>
	<g id="XMLID_214_">
		<path id="XMLID_132_" class="st0" d="M52.1,152.9c-0.5-0.2-1.1,0-1.3,0.5l-1.5,3.2c-0.2,0.5,0,1.1,0.5,1.3
			c0.1,0.1,0.3,0.1,0.4,0.1c0.4,0,0.7-0.2,0.9-0.6l1.5-3.2C52.8,153.7,52.6,153.1,52.1,152.9z"/>
	</g>
	<g id="XMLID_215_">
		<path id="XMLID_130_" class="st0" d="M115,17.8c0.1,0.1,0.3,0.1,0.4,0.1c0.4,0,0.7-0.2,0.9-0.6l1.5-3.1c0.2-0.5,0-1.1-0.5-1.3
			c-0.5-0.2-1.1,0-1.3,0.5l-1.5,3.1C114.3,16.9,114.5,17.5,115,17.8z"/>
	</g>
	<g id="XMLID_216_">
		<path id="XMLID_128_" class="st0" d="M64.2,157.3c-0.5-0.1-1.1,0.2-1.2,0.7l-0.9,3.4c-0.1,0.5,0.2,1.1,0.7,1.2c0.1,0,0.2,0,0.3,0
			c0.4,0,0.8-0.3,1-0.7l0.9-3.4C65.1,158,64.8,157.5,64.2,157.3z"/>
	</g>
	<g id="XMLID_217_">
		<path id="XMLID_126_" class="st0" d="M102.8,13.3c0.1,0,0.2,0,0.3,0c0.4,0,0.8-0.3,1-0.7l0.9-3.3c0.1-0.5-0.2-1.1-0.7-1.2
			c-0.5-0.1-1.1,0.2-1.2,0.7l-0.9,3.3C102,12.6,102.3,13.2,102.8,13.3z"/>
	</g>
	<g id="XMLID_218_">
		<path id="XMLID_124_" class="st0" d="M77,159.6c-0.6-0.1-1,0.4-1.1,0.9l-0.3,3.5c0,0.6,0.4,1,0.9,1.1c0,0,0.1,0,0.1,0
			c0.5,0,1-0.4,1-0.9l0.3-3.5C78,160.1,77.6,159.6,77,159.6z"/>
	</g>
	<g id="XMLID_219_">
		<path id="XMLID_122_" class="st0" d="M90.1,11.1C90.1,11.1,90.1,11.1,90.1,11.1c0.6,0,1-0.4,1.1-0.9l0.3-3.4c0-0.6-0.4-1-0.9-1.1
			c-0.6,0-1,0.4-1.1,0.9L89.2,10C89.1,10.5,89.5,11,90.1,11.1z"/>
	</g>
	<g id="XMLID_220_">
		<path id="XMLID_120_" class="st0" d="M71.1,15.4c0.1,0,0.1,0,0.2,0c0.5-0.1,0.9-0.6,0.8-1.2l-1.2-6.8c-0.1-0.5-0.6-0.9-1.2-0.8
			c-0.5,0.1-0.9,0.6-0.8,1.2l1.2,6.8C70.2,15,70.6,15.4,71.1,15.4z"/>
	</g>
	<g id="XMLID_221_">
		<path id="XMLID_118_" class="st0" d="M95.9,155.3c-0.5,0.1-0.9,0.6-0.8,1.2l1.2,6.9c0.1,0.5,0.5,0.8,1,0.8c0.1,0,0.1,0,0.2,0
			c0.5-0.1,0.9-0.6,0.8-1.2l-1.2-6.9C97,155.6,96.4,155.2,95.9,155.3z"/>
	</g>
	<g id="XMLID_222_">
		<path id="XMLID_116_" class="st0" d="M57.9,18c0.1,0.4,0.5,0.7,0.9,0.7c0.1,0,0.2,0,0.3-0.1c0.5-0.2,0.8-0.8,0.6-1.3l-2.3-6.5
			c-0.2-0.5-0.8-0.8-1.3-0.6c-0.5,0.2-0.8,0.8-0.6,1.3L57.9,18z"/>
	</g>
	<g id="XMLID_223_">
		<path id="XMLID_114_" class="st0" d="M109.1,152.7c-0.2-0.5-0.8-0.8-1.3-0.6c-0.5,0.2-0.8,0.8-0.6,1.3l2.4,6.5
			c0.1,0.4,0.5,0.7,0.9,0.7c0.1,0,0.2,0,0.3-0.1c0.5-0.2,0.8-0.8,0.6-1.3L109.1,152.7z"/>
	</g>
	<g id="XMLID_224_">
		<path id="XMLID_112_" class="st0" d="M46.6,23.5c0.2,0.3,0.5,0.5,0.9,0.5c0.2,0,0.3,0,0.5-0.1c0.5-0.3,0.6-0.9,0.4-1.4l-3.4-6
			c-0.3-0.5-0.9-0.6-1.4-0.4c-0.5,0.3-0.6,0.9-0.4,1.4L46.6,23.5z"/>
	</g>
	<g id="XMLID_225_">
		<path id="XMLID_110_" class="st0" d="M120.4,147.3c-0.3-0.5-0.9-0.6-1.4-0.4c-0.5,0.3-0.6,0.9-0.4,1.4l3.5,6
			c0.2,0.3,0.5,0.5,0.9,0.5c0.2,0,0.3,0,0.5-0.1c0.5-0.3,0.6-0.9,0.4-1.4L120.4,147.3z"/>
	</g>
	<g id="XMLID_226_">
		<path id="XMLID_108_" class="st0" d="M36.5,30.8c0.2,0.2,0.5,0.4,0.8,0.4c0.2,0,0.5-0.1,0.6-0.2c0.4-0.4,0.5-1,0.1-1.4l-4.5-5.3
			c-0.4-0.4-1-0.5-1.4-0.1c-0.4,0.4-0.5,1-0.1,1.4L36.5,30.8z"/>
	</g>
	<g id="XMLID_227_">
		<path id="XMLID_106_" class="st0" d="M130.6,139.9c-0.4-0.4-1-0.5-1.4-0.1c-0.4,0.4-0.5,1-0.1,1.4l4.4,5.3
			c0.2,0.2,0.5,0.4,0.8,0.4c0.2,0,0.5-0.1,0.6-0.2c0.4-0.4,0.5-1,0.1-1.4L130.6,139.9z"/>
	</g>
	<g id="XMLID_228_">
		<path id="XMLID_104_" class="st0" d="M27.7,39.8c0.2,0.2,0.4,0.2,0.6,0.2c0.3,0,0.6-0.1,0.8-0.4c0.4-0.4,0.3-1.1-0.1-1.4l-5.3-4.5
			c-0.4-0.4-1.1-0.3-1.4,0.1c-0.4,0.4-0.3,1.1,0.1,1.4L27.7,39.8z"/>
	</g>
	<g id="XMLID_229_">
		<path id="XMLID_102_" class="st0" d="M139.4,130.9c-0.4-0.4-1.1-0.3-1.4,0.1c-0.4,0.4-0.3,1.1,0.1,1.4l5.3,4.5
			c0.2,0.2,0.4,0.2,0.6,0.2c0.3,0,0.6-0.1,0.8-0.4c0.4-0.4,0.3-1.1-0.1-1.4L139.4,130.9z"/>
	</g>
	<g id="XMLID_230_">
		<path id="XMLID_100_" class="st0" d="M14.7,46.7l6,3.5c0.2,0.1,0.3,0.1,0.5,0.1c0.3,0,0.7-0.2,0.9-0.5c0.3-0.5,0.1-1.1-0.4-1.4
			l-6-3.5c-0.5-0.3-1.1-0.1-1.4,0.4C14,45.8,14.2,46.5,14.7,46.7z"/>
	</g>
	<g id="XMLID_231_">
		<path id="XMLID_98_" class="st0" d="M152.5,124l-6-3.5c-0.5-0.3-1.1-0.1-1.4,0.4c-0.3,0.5-0.1,1.1,0.4,1.4l6,3.5
			c0.2,0.1,0.3,0.1,0.5,0.1c0.3,0,0.7-0.2,0.9-0.5C153.1,124.9,152.9,124.3,152.5,124z"/>
	</g>
	<g id="XMLID_232_">
		<path id="XMLID_96_" class="st0" d="M8.9,59.3l6.6,2.3c0.1,0,0.2,0.1,0.3,0.1c0.4,0,0.8-0.3,0.9-0.7c0.2-0.5-0.1-1.1-0.6-1.3
			l-6.6-2.3c-0.5-0.2-1.1,0.1-1.3,0.6C8.1,58.6,8.4,59.1,8.9,59.3z"/>
	</g>
	<g id="XMLID_233_">
		<path id="XMLID_94_" class="st0" d="M158.1,111.4l-6.5-2.4c-0.5-0.2-1.1,0.1-1.3,0.6c-0.2,0.5,0.1,1.1,0.6,1.3l6.5,2.4
			c0.1,0,0.2,0.1,0.3,0.1c0.4,0,0.8-0.3,0.9-0.7C158.9,112.2,158.6,111.6,158.1,111.4z"/>
	</g>
	<g id="XMLID_234_">
		<path id="XMLID_92_" class="st0" d="M5.6,72.7l6.8,1.2c0.1,0,0.1,0,0.2,0c0.5,0,0.9-0.3,1-0.8c0.1-0.5-0.3-1.1-0.8-1.2l-6.8-1.2
			c-0.5-0.1-1.1,0.3-1.2,0.8C4.7,72,5,72.6,5.6,72.7z"/>
	</g>
	<g id="XMLID_235_">
		<path id="XMLID_90_" class="st0" d="M161.5,98.1l-6.9-1.2c-0.5-0.1-1.1,0.3-1.2,0.8c-0.1,0.5,0.3,1.1,0.8,1.2l6.9,1.2
			c0.1,0,0.1,0,0.2,0c0.5,0,0.9-0.3,1-0.8C162.4,98.7,162.1,98.2,161.5,98.1z"/>
	</g>
	<g id="XMLID_236_">
		<path id="XMLID_88_" class="st0" d="M11.5,86.4c0.6,0,1-0.4,1-1s-0.4-1-1-1H4.6c-0.6,0-1,0.4-1,1s0.4,1,1,1H11.5z"/>
	</g>
	<g id="XMLID_237_">
		<path id="XMLID_86_" class="st0" d="M162.6,84.4h-7c-0.6,0-1,0.4-1,1s0.4,1,1,1h7c0.6,0,1-0.4,1-1S163.1,84.4,162.6,84.4z"/>
	</g>
	<g id="XMLID_238_">
		<path id="XMLID_84_" class="st0" d="M13.5,97.7c-0.1-0.5-0.6-0.9-1.2-0.8l-6.8,1.2c-0.5,0.1-0.9,0.6-0.8,1.2
			c0.1,0.5,0.5,0.8,1,0.8c0.1,0,0.1,0,0.2,0l6.8-1.2C13.3,98.8,13.6,98.2,13.5,97.7z"/>
	</g>
	<g id="XMLID_239_">
		<path id="XMLID_82_" class="st0" d="M153.5,73c0.1,0.5,0.5,0.8,1,0.8c0.1,0,0.1,0,0.2,0l6.9-1.2c0.5-0.1,0.9-0.6,0.8-1.2
			c-0.1-0.5-0.6-0.9-1.2-0.8l-6.9,1.2C153.7,72,153.4,72.5,153.5,73z"/>
	</g>
	<g id="XMLID_240_">
		<path id="XMLID_80_" class="st0" d="M16.8,109.6c-0.2-0.5-0.8-0.8-1.3-0.6l-6.6,2.4c-0.5,0.2-0.8,0.8-0.6,1.3
			c0.1,0.4,0.5,0.7,0.9,0.7c0.1,0,0.2,0,0.3-0.1l6.6-2.4C16.7,110.7,17,110.2,16.8,109.6z"/>
	</g>
	<g id="XMLID_241_">
		<path id="XMLID_78_" class="st0" d="M150.3,61c0.1,0.4,0.5,0.7,0.9,0.7c0.1,0,0.2,0,0.3-0.1l6.5-2.3c0.5-0.2,0.8-0.8,0.6-1.3
			c-0.2-0.5-0.8-0.8-1.3-0.6l-6.5,2.3C150.4,59.9,150.1,60.5,150.3,61z"/>
	</g>
	<g id="XMLID_242_">
		<path id="XMLID_76_" class="st0" d="M22,120.9c-0.3-0.5-0.9-0.6-1.4-0.4l-6,3.5c-0.5,0.3-0.6,0.9-0.4,1.4c0.2,0.3,0.5,0.5,0.9,0.5
			c0.2,0,0.3,0,0.5-0.1l6-3.5C22.1,122,22.3,121.3,22,120.9z"/>
	</g>
	<g id="XMLID_243_">
		<path id="XMLID_74_" class="st0" d="M145.1,49.9c0.2,0.3,0.5,0.5,0.9,0.5c0.2,0,0.3,0,0.5-0.1l6-3.5c0.5-0.3,0.6-0.9,0.4-1.4
			c-0.3-0.5-0.9-0.6-1.4-0.4l-6,3.5C145,48.8,144.8,49.4,145.1,49.9z"/>
	</g>
	<g id="XMLID_244_">
		<path id="XMLID_72_" class="st0" d="M29.1,131c-0.4-0.4-1-0.5-1.4-0.1l-5.3,4.5c-0.4,0.4-0.5,1-0.1,1.4c0.2,0.2,0.5,0.4,0.8,0.4
			c0.2,0,0.5-0.1,0.6-0.2l5.3-4.5C29.4,132.1,29.5,131.4,29.1,131z"/>
	</g>
	<g id="XMLID_245_">
		<path id="XMLID_70_" class="st0" d="M138,39.7c0.2,0.2,0.5,0.4,0.8,0.4c0.2,0,0.5-0.1,0.6-0.2l5.3-4.5c0.4-0.4,0.5-1,0.1-1.4
			c-0.4-0.4-1-0.5-1.4-0.1l-5.3,4.5C137.7,38.7,137.6,39.3,138,39.7z"/>
	</g>
	<g id="XMLID_246_">
		<path id="XMLID_68_" class="st0" d="M37.9,139.8c-0.4-0.4-1.1-0.3-1.4,0.1l-4.5,5.3c-0.4,0.4-0.3,1.1,0.1,1.4
			c0.2,0.2,0.4,0.2,0.6,0.2c0.3,0,0.6-0.1,0.8-0.4l4.5-5.3C38.4,140.8,38.3,140.2,37.9,139.8z"/>
	</g>
	<g id="XMLID_247_">
		<path id="XMLID_66_" class="st0" d="M129.2,30.9c0.2,0.2,0.4,0.2,0.6,0.2c0.3,0,0.6-0.1,0.8-0.4l4.4-5.3c0.4-0.4,0.3-1.1-0.1-1.4
			c-0.4-0.4-1.1-0.3-1.4,0.1l-4.4,5.3C128.7,30,128.8,30.6,129.2,30.9z"/>
	</g>
	<g id="XMLID_248_">
		<path id="XMLID_64_" class="st0" d="M48,146.9c-0.5-0.3-1.1-0.1-1.4,0.4l-3.4,6c-0.3,0.5-0.1,1.1,0.4,1.4c0.2,0.1,0.3,0.1,0.5,0.1
			c0.3,0,0.7-0.2,0.9-0.5l3.4-6C48.6,147.8,48.4,147.2,48,146.9z"/>
	</g>
	<g id="XMLID_249_">
		<path id="XMLID_62_" class="st0" d="M119.1,23.8c0.2,0.1,0.3,0.1,0.5,0.1c0.3,0,0.7-0.2,0.9-0.5l3.5-6c0.3-0.5,0.1-1.1-0.4-1.4
			c-0.5-0.3-1.1-0.1-1.4,0.4l-3.5,6C118.4,22.9,118.6,23.6,119.1,23.8z"/>
	</g>
	<g id="XMLID_250_">
		<path id="XMLID_60_" class="st0" d="M59.2,152.1c-0.5-0.2-1.1,0.1-1.3,0.6l-2.3,6.5c-0.2,0.5,0.1,1.1,0.6,1.3
			c0.1,0,0.2,0.1,0.3,0.1c0.4,0,0.8-0.3,0.9-0.7l2.3-6.5C60,152.9,59.7,152.3,59.2,152.1z"/>
	</g>
	<g id="XMLID_251_">
		<path id="XMLID_58_" class="st0" d="M107.8,18.6c0.1,0,0.2,0.1,0.3,0.1c0.4,0,0.8-0.3,0.9-0.7l2.4-6.5c0.2-0.5-0.1-1.1-0.6-1.3
			c-0.5-0.2-1.1,0.1-1.3,0.6l-2.4,6.5C107,17.8,107.3,18.4,107.8,18.6z"/>
	</g>
	<g id="XMLID_252_">
		<path id="XMLID_56_" class="st0" d="M71.2,155.3c-0.5-0.1-1.1,0.3-1.2,0.8l-1.2,6.9c-0.1,0.5,0.3,1.1,0.8,1.2c0.1,0,0.1,0,0.2,0
			c0.5,0,0.9-0.3,1-0.8l1.2-6.9C72.1,155.9,71.8,155.4,71.2,155.3z"/>
	</g>
	<g id="XMLID_253_">
		<path id="XMLID_54_" class="st0" d="M95.9,15.4c0.1,0,0.1,0,0.2,0c0.5,0,0.9-0.3,1-0.8l1.2-6.8c0.1-0.5-0.3-1.1-0.8-1.2
			c-0.5-0.1-1.1,0.3-1.2,0.8l-1.2,6.8C95,14.7,95.3,15.3,95.9,15.4z"/>
	</g>
</g>
<g id="XMLID_153_">
</g>
<g id="XMLID_158_">
</g>
<g id="XMLID_162_">
</g>
<g id="XMLID_170_">
</g>
<g id="XMLID_254_">
</g>
<g id="XMLID_256_">
</g>
</svg>
