<?xml version="1.0" encoding="utf-8"?>
<!-- Generator: Adobe Illustrator 19.0.0, SVG Export Plug-In . SVG Version: 6.00 Build 0)  -->
<svg version="1.0" id="图层_1" xmlns="http://www.w3.org/2000/svg" xmlns:xlink="http://www.w3.org/1999/xlink" x="0px" y="0px"
	 viewBox="-265 251.9 65 338" style="enable-background:new -265 251.9 65 338;" xml:space="preserve">
<style type="text/css">
	.st0{fill:#FFFFFF;}
	.st1{enable-background:new    ;}
</style>
<g>
	<g id="XMLID_577_">
		<path class="st0" d="M-218.5,263.7h-28.2c-0.2,0-0.3-0.1-0.3-0.3c0-0.2,0.1-0.3,0.3-0.3h28.2c0.2,0,0.3,0.1,0.3,0.3
			C-218.2,263.6-218.4,263.7-218.5,263.7z"/>
	</g>
	<g id="XMLID_576_">
		<path class="st0" d="M-218.5,281.1h-28.2c-0.2,0-0.3-0.1-0.3-0.3c0-0.2,0.1-0.3,0.3-0.3h28.2c0.2,0,0.3,0.1,0.3,0.3
			C-218.2,281-218.4,281.1-218.5,281.1z"/>
	</g>
	<g id="XMLID_575_">
		<path class="st0" d="M-228.7,268h-7.9c-0.2,0-0.3-0.1-0.3-0.3c0-0.2,0.1-0.3,0.3-0.3h7.9c0.2,0,0.3,0.1,0.3,0.3
			C-228.4,267.9-228.5,268-228.7,268z"/>
	</g>
	<g id="XMLID_574_">
		<path class="st0" d="M-228.7,277.1h-7.9c-0.2,0-0.3-0.1-0.3-0.3c0-0.2,0.1-0.3,0.3-0.3h7.9c0.2,0,0.3,0.1,0.3,0.3
			C-228.4,277-228.5,277.1-228.7,277.1z"/>
	</g>
	<g id="XMLID_573_">
		<path class="st0" d="M-225.5,272.7h-14.2c-0.2,0-0.3-0.1-0.3-0.3c0-0.2,0.1-0.3,0.3-0.3h14.2c0.2,0,0.3,0.1,0.3,0.3
			C-225.2,272.6-225.3,272.7-225.5,272.7z"/>
	</g>
	<g id="XMLID_572_">
		<path class="st0" d="M-228.7,285.5h-7.9c-0.2,0-0.3-0.1-0.3-0.3c0-0.2,0.1-0.3,0.3-0.3h7.9c0.2,0,0.3,0.1,0.3,0.3
			C-228.4,285.4-228.5,285.5-228.7,285.5z"/>
	</g>
	<g id="XMLID_571_">
		<path class="st0" d="M-228.7,294.5h-7.9c-0.2,0-0.3-0.1-0.3-0.3c0-0.2,0.1-0.3,0.3-0.3h7.9c0.2,0,0.3,0.1,0.3,0.3
			C-228.4,294.4-228.5,294.5-228.7,294.5z"/>
	</g>
	<g id="XMLID_570_">
		<path class="st0" d="M-225.5,290.1h-14.2c-0.2,0-0.3-0.1-0.3-0.3c0-0.2,0.1-0.3,0.3-0.3h14.2c0.2,0,0.3,0.1,0.3,0.3
			C-225.2,290-225.3,290.1-225.5,290.1z"/>
	</g>
	<g id="XMLID_568_" class="st1">
		<path class="st0" d="M-253.5,264.9h0.1c0.2,0.1,0.5,0.1,0.7,0.1c0.4,0,0.8-0.1,0.8-0.8v-0.3c-0.3,0.1-0.6,0.1-0.8,0.1
			c-0.8,0-1-0.4-1.1-0.9c0-0.1,0-0.1,0-0.2c0-0.5,0.1-0.7,0.3-0.9c0.2-0.2,0.5-0.3,0.8-0.3s0.5,0.1,0.7,0.2l0,0
			c0.3,0.2,0.4,0.7,0.4,1.2v0.7c0,0.2,0,0.4,0,0.4l0,0c-0.1,0.9-0.6,1.1-1.2,1.1c-0.3,0-0.5-0.1-0.8-0.1l0,0h-0.1L-253.5,264.9z
			 M-251.9,263.6v-0.4c0-0.4-0.1-0.8-0.3-0.9c-0.1-0.1-0.3-0.1-0.5-0.1s-0.4,0.1-0.5,0.1c-0.1,0.1-0.2,0.3-0.2,0.7v0.2
			c0,0.3,0.2,0.6,0.8,0.6C-252.4,263.7-252.2,263.7-251.9,263.6z"/>
		<path class="st0" d="M-248.5,263v0.8c0,0.8-0.3,1.5-1.2,1.5c-0.8,0-1.1-0.7-1.1-1.5c0-0.3,0-0.5,0-0.7c0-0.8,0.3-1.4,1.2-1.3
			C-248.9,261.8-248.5,262.4-248.5,263z M-250.4,263.1c0,0.2,0,0.5,0,0.7c0,0.5,0.2,1,0.8,1.1c0.6,0,0.8-0.5,0.8-1.1V263
			c0-0.5-0.2-0.9-0.7-0.9C-250.2,262.1-250.4,262.6-250.4,263.1z"/>
	</g>
	<g id="XMLID_567_" class="st1">
		<path class="st0" d="M-251.9,280.4c0.2,0.1,0.4,0.4,0.4,0.8c0,0.8-0.6,1.1-1.2,1.1c-0.6,0-1.2-0.3-1.2-1c0-0.4,0.2-0.7,0.5-0.9
			c-0.2-0.1-0.4-0.3-0.4-0.8c0-0.7,0.6-0.9,1.1-0.9c0.6,0,1.1,0.2,1.1,0.9C-251.5,280.1-251.6,280.3-251.9,280.4z M-252.5,280.6
			L-252.5,280.6c-0.5,0-0.9,0.2-0.9,0.7s0.4,0.7,0.9,0.7c0.4,0,0.8-0.2,0.8-0.8C-251.8,280.8-252.2,280.6-252.5,280.6z
			 M-252.6,279.1c-0.4,0-0.8,0.1-0.8,0.6s0.4,0.6,0.8,0.6l0,0c0.3,0,0.8-0.1,0.8-0.5C-251.9,279.3-252.2,279.1-252.6,279.1z"/>
		<path class="st0" d="M-248.5,280.1v0.8c0,0.8-0.3,1.5-1.2,1.5c-0.8,0-1.1-0.7-1.1-1.5c0-0.3,0-0.5,0-0.7c0-0.8,0.3-1.4,1.2-1.3
			C-248.9,278.8-248.5,279.4-248.5,280.1z M-250.4,280.1c0,0.2,0,0.5,0,0.7c0,0.5,0.2,1,0.8,1.1c0.6,0,0.8-0.5,0.8-1.1V280
			c0-0.5-0.2-0.9-0.7-0.9C-250.2,279.1-250.4,279.6-250.4,280.1z"/>
	</g>
	<g id="XMLID_566_">
		<path class="st0" d="M-218.5,298.9h-28.2c-0.2,0-0.3-0.1-0.3-0.3s0.1-0.3,0.3-0.3h28.2c0.2,0,0.3,0.1,0.3,0.3
			S-218.4,298.9-218.5,298.9z"/>
	</g>
	<g id="XMLID_565_">
		<path class="st0" d="M-218.5,316.3h-28.2c-0.2,0-0.3-0.1-0.3-0.3s0.1-0.3,0.3-0.3h28.2c0.2,0,0.3,0.1,0.3,0.3
			S-218.4,316.3-218.5,316.3z"/>
	</g>
	<g id="XMLID_564_">
		<path class="st0" d="M-228.7,303.2h-7.9c-0.2,0-0.3-0.1-0.3-0.3c0-0.2,0.1-0.3,0.3-0.3h7.9c0.2,0,0.3,0.1,0.3,0.3
			S-228.5,303.2-228.7,303.2z"/>
	</g>
	<g id="XMLID_563_">
		<path class="st0" d="M-228.7,312.2h-7.9c-0.2,0-0.3-0.1-0.3-0.3c0-0.2,0.1-0.3,0.3-0.3h7.9c0.2,0,0.3,0.1,0.3,0.3
			S-228.5,312.2-228.7,312.2z"/>
	</g>
	<g id="XMLID_562_">
		<path class="st0" d="M-225.5,307.9h-14.2c-0.2,0-0.3-0.1-0.3-0.3s0.1-0.3,0.3-0.3h14.2c0.2,0,0.3,0.1,0.3,0.3
			S-225.3,307.9-225.5,307.9z"/>
	</g>
	<g id="XMLID_561_">
		<path class="st0" d="M-228.7,320.7h-7.9c-0.2,0-0.3-0.1-0.3-0.3c0-0.2,0.1-0.3,0.3-0.3h7.9c0.2,0,0.3,0.1,0.3,0.3
			S-228.5,320.7-228.7,320.7z"/>
	</g>
	<g id="XMLID_560_">
		<path class="st0" d="M-228.7,329.7h-7.9c-0.2,0-0.3-0.1-0.3-0.3s0.1-0.3,0.3-0.3h7.9c0.2,0,0.3,0.1,0.3,0.3
			S-228.5,329.7-228.7,329.7z"/>
	</g>
	<g id="XMLID_559_">
		<path class="st0" d="M-225.5,325.3h-14.2c-0.2,0-0.3-0.1-0.3-0.3s0.1-0.3,0.3-0.3h14.2c0.2,0,0.3,0.1,0.3,0.3
			S-225.3,325.3-225.5,325.3z"/>
	</g>
	<g id="XMLID_558_" class="st1">
		<path class="st0" d="M-253.6,297h2.2v0.3l-1.4,3.2l-0.3-0.1l1.3-3c-0.6,0-1.2,0-1.8,0C-253.6,297.3-253.6,297-253.6,297z"/>
		<path class="st0" d="M-248.5,298.2v0.8c0,0.8-0.3,1.5-1.2,1.5c-0.8,0-1.1-0.7-1.1-1.5c0-0.3,0-0.5,0-0.7c0-0.8,0.3-1.4,1.2-1.3
			C-248.9,297-248.5,297.6-248.5,298.2z M-250.4,298.3c0,0.2,0,0.5,0,0.7c0,0.5,0.2,1,0.8,1.1c0.6,0,0.8-0.5,0.8-1.1v-0.8
			c0-0.5-0.2-0.9-0.7-0.9C-250.2,297.3-250.4,297.7-250.4,298.3z"/>
	</g>
	<g id="XMLID_557_" class="st1">
		<path class="st0" d="M-251.7,314.4h-0.1c-0.2,0-0.5-0.1-0.7-0.1c-0.4,0-0.8,0.1-0.8,0.8c0,0,0,0.1,0,0.3c0.3-0.1,0.6-0.1,0.8-0.1
			c0.8,0,1,0.4,1.1,0.9v0.2c0,0.5-0.1,0.7-0.3,0.9l0,0c-0.2,0.2-0.5,0.3-0.8,0.3s-0.5-0.1-0.7-0.2c-0.3-0.2-0.4-0.7-0.4-1.2v-1.1
			c0.1-0.8,0.6-1.1,1.2-1.1c0.2,0,0.5,0.1,0.8,0.1l0,0h0.1L-251.7,314.4z M-253.4,315.7c0,0.2,0,0.4,0,0.4c0,0.4,0.1,0.8,0.3,0.9
			l0,0c0.1,0.1,0.3,0.1,0.5,0.1s0.4-0.1,0.5-0.1c0.1-0.1,0.2-0.3,0.2-0.7c0-0.1,0-0.1,0-0.2c0-0.3-0.2-0.6-0.8-0.6
			C-252.8,315.6-253.1,315.6-253.4,315.7z"/>
		<path class="st0" d="M-248.5,315.2v0.8c0,0.8-0.3,1.5-1.2,1.5c-0.8,0-1.1-0.7-1.1-1.5c0-0.3,0-0.5,0-0.7c0-0.8,0.3-1.4,1.2-1.3
			C-248.9,314-248.5,314.6-248.5,315.2z M-250.4,315.3c0,0.2,0,0.5,0,0.7c0,0.5,0.2,1,0.8,1.1c0.6,0,0.8-0.5,0.8-1.1v-0.8
			c0-0.5-0.2-0.9-0.7-0.9C-250.2,314.3-250.4,314.7-250.4,315.3z"/>
	</g>
	<g id="XMLID_556_">
		<path class="st0" d="M-218.5,334.1h-28.2c-0.2,0-0.3-0.1-0.3-0.3c0-0.2,0.1-0.3,0.3-0.3h28.2c0.2,0,0.3,0.1,0.3,0.3
			C-218.2,334-218.4,334.1-218.5,334.1z"/>
	</g>
	<g id="XMLID_555_">
		<path class="st0" d="M-218.5,351.5h-28.2c-0.2,0-0.3-0.1-0.3-0.3c0-0.2,0.1-0.3,0.3-0.3h28.2c0.2,0,0.3,0.1,0.3,0.3
			C-218.2,351.4-218.4,351.5-218.5,351.5z"/>
	</g>
	<g id="XMLID_554_">
		<path class="st0" d="M-228.7,338.4h-7.9c-0.2,0-0.3-0.1-0.3-0.3s0.1-0.3,0.3-0.3h7.9c0.2,0,0.3,0.1,0.3,0.3
			S-228.5,338.4-228.7,338.4z"/>
	</g>
	<g id="XMLID_553_">
		<path class="st0" d="M-228.7,347.4h-7.9c-0.2,0-0.3-0.1-0.3-0.3s0.1-0.3,0.3-0.3h7.9c0.2,0,0.3,0.1,0.3,0.3
			S-228.5,347.4-228.7,347.4z"/>
	</g>
	<g id="XMLID_549_">
		<path class="st0" d="M-225.5,343.1h-14.2c-0.2,0-0.3-0.1-0.3-0.3c0-0.2,0.1-0.3,0.3-0.3h14.2c0.2,0,0.3,0.1,0.3,0.3
			C-225.2,343-225.3,343.1-225.5,343.1z"/>
	</g>
	<g id="XMLID_548_">
		<path class="st0" d="M-228.7,355.9h-7.9c-0.2,0-0.3-0.1-0.3-0.3s0.1-0.3,0.3-0.3h7.9c0.2,0,0.3,0.1,0.3,0.3
			C-228.4,355.7-228.5,355.9-228.7,355.9z"/>
	</g>
	<g id="XMLID_547_">
		<path class="st0" d="M-228.7,364.9h-7.9c-0.2,0-0.3-0.1-0.3-0.3s0.1-0.3,0.3-0.3h7.9c0.2,0,0.3,0.1,0.3,0.3
			C-228.4,364.8-228.5,364.9-228.7,364.9z"/>
	</g>
	<g id="XMLID_546_">
		<path class="st0" d="M-225.5,360.5h-14.2c-0.2,0-0.3-0.1-0.3-0.3c0-0.2,0.1-0.3,0.3-0.3h14.2c0.2,0,0.3,0.1,0.3,0.3
			C-225.2,360.4-225.3,360.5-225.5,360.5z"/>
	</g>
	<g id="XMLID_545_" class="st1">
		<path class="st0" d="M-253.5,335.3c0.2,0.1,0.4,0.1,0.7,0.1s0.5-0.1,0.7-0.2c0.1-0.1,0.2-0.3,0.2-0.6c0-0.1,0-0.2-0.1-0.3
			c-0.1-0.4-0.5-0.4-0.9-0.4c-0.1,0-0.2,0-0.3,0s-0.4,0-0.4,0l0.2-1.7h1.7v0.3h-1.4c0,0.4-0.1,0.6-0.1,1c0,0,0,0,0.1,0s0.2,0,0.3,0
			c0.5,0,1,0.1,1.2,0.7c0,0.1,0.1,0.3,0.1,0.4c0,0.3-0.1,0.6-0.4,0.8c-0.2,0.2-0.6,0.2-0.9,0.2c-0.3,0-0.6-0.1-0.8-0.1L-253.5,335.3
			z"/>
		<path class="st0" d="M-248.5,333.4v0.8c0,0.8-0.3,1.5-1.2,1.5c-0.8,0-1.1-0.7-1.1-1.5c0-0.3,0-0.5,0-0.7c0-0.8,0.3-1.4,1.2-1.3
			C-248.9,332.2-248.5,332.7-248.5,333.4z M-250.4,333.5c0,0.2,0,0.5,0,0.7c0,0.5,0.2,1,0.8,1.1c0.6,0,0.8-0.5,0.8-1.1v-0.8
			c0-0.5-0.2-0.9-0.7-0.9C-250.2,332.5-250.4,332.9-250.4,333.5z"/>
	</g>
	<g id="XMLID_544_" class="st1">
		<path class="st0" d="M-251.5,351.7h-0.4v0.9h-0.3v-0.9h-1.6v-0.3l1.6-2.3h0.3v2.2h0.4V351.7z M-252.3,351.4v-1.6l-1.2,1.6
			C-253.1,351.4-252.7,351.4-252.3,351.4z"/>
		<path class="st0" d="M-248.5,350.4v0.8c0,0.8-0.3,1.5-1.2,1.5c-0.8,0-1.1-0.7-1.1-1.5c0-0.3,0-0.5,0-0.7c0-0.8,0.3-1.4,1.2-1.3
			C-248.9,349.2-248.5,349.8-248.5,350.4z M-250.4,350.5c0,0.2,0,0.5,0,0.7c0,0.5,0.2,1,0.8,1.1c0.6,0,0.8-0.5,0.8-1.1v-0.8
			c0-0.5-0.2-0.9-0.7-0.9C-250.2,349.5-250.4,349.9-250.4,350.5z"/>
	</g>
	<g id="XMLID_543_">
		<path class="st0" d="M-218.5,369.2h-28.2c-0.2,0-0.3-0.1-0.3-0.3c0-0.2,0.1-0.3,0.3-0.3h28.2c0.2,0,0.3,0.1,0.3,0.3
			C-218.2,369.1-218.4,369.2-218.5,369.2z"/>
	</g>
	<g id="XMLID_542_">
		<path class="st0" d="M-218.5,386.7h-28.2c-0.2,0-0.3-0.1-0.3-0.3c0-0.2,0.1-0.3,0.3-0.3h28.2c0.2,0,0.3,0.1,0.3,0.3
			C-218.2,386.6-218.4,386.7-218.5,386.7z"/>
	</g>
	<g id="XMLID_541_">
		<path class="st0" d="M-228.7,373.6h-7.9c-0.2,0-0.3-0.1-0.3-0.3c0-0.2,0.1-0.3,0.3-0.3h7.9c0.2,0,0.3,0.1,0.3,0.3
			C-228.4,373.5-228.5,373.6-228.7,373.6z"/>
	</g>
	<g id="XMLID_540_">
		<path class="st0" d="M-228.7,382.6h-7.9c-0.2,0-0.3-0.1-0.3-0.3c0-0.2,0.1-0.3,0.3-0.3h7.9c0.2,0,0.3,0.1,0.3,0.3
			C-228.4,382.5-228.5,382.6-228.7,382.6z"/>
	</g>
	<g id="XMLID_539_">
		<path class="st0" d="M-225.5,378.3h-14.2c-0.2,0-0.3-0.1-0.3-0.3s0.1-0.3,0.3-0.3h14.2c0.2,0,0.3,0.1,0.3,0.3
			C-225.2,378.1-225.3,378.3-225.5,378.3z"/>
	</g>
	<g id="XMLID_538_">
		<path class="st0" d="M-228.7,391h-7.9c-0.2,0-0.3-0.1-0.3-0.3c0-0.2,0.1-0.3,0.3-0.3h7.9c0.2,0,0.3,0.1,0.3,0.3
			C-228.4,390.9-228.5,391-228.7,391z"/>
	</g>
	<g id="XMLID_537_">
		<path class="st0" d="M-228.7,400.1h-7.9c-0.2,0-0.3-0.1-0.3-0.3c0-0.2,0.1-0.3,0.3-0.3h7.9c0.2,0,0.3,0.1,0.3,0.3
			C-228.4,400-228.5,400.1-228.7,400.1z"/>
	</g>
	<g id="XMLID_536_">
		<path class="st0" d="M-225.5,395.7h-14.2c-0.2,0-0.3-0.1-0.3-0.3c0-0.2,0.1-0.3,0.3-0.3h14.2c0.2,0,0.3,0.1,0.3,0.3
			C-225.2,395.6-225.3,395.7-225.5,395.7z"/>
	</g>
	<g id="XMLID_535_" class="st1">
		<path class="st0" d="M-253.5,370.4c0.2,0.1,0.4,0.1,0.7,0.1s0.5-0.1,0.7-0.2c0.2-0.1,0.2-0.3,0.2-0.6c0-0.3-0.1-0.6-0.4-0.6
			c-0.2,0-0.5,0-0.8,0h-0.4v-0.3h0.6c0.2,0,0.3,0,0.5-0.1c0.3-0.1,0.4-0.3,0.4-0.6c0-0.1-0.1-0.3-0.2-0.4c-0.1-0.1-0.3-0.1-0.6-0.1
			s-0.6,0.1-0.8,0.1l-0.1-0.3c0.2,0,0.6-0.1,0.9-0.1s0.6,0.1,0.8,0.2c0.2,0.2,0.3,0.4,0.3,0.7s-0.1,0.6-0.4,0.8
			c0.3,0.2,0.4,0.5,0.4,0.8c0,0.3-0.1,0.6-0.4,0.8c-0.2,0.2-0.6,0.2-0.9,0.2c-0.3,0-0.6-0.1-0.8-0.1L-253.5,370.4z"/>
		<path class="st0" d="M-248.5,368.6v0.8c0,0.8-0.3,1.5-1.2,1.5c-0.8,0-1.1-0.7-1.1-1.5c0-0.3,0-0.5,0-0.7c0-0.8,0.3-1.4,1.2-1.3
			C-248.9,367.4-248.5,367.9-248.5,368.6z M-250.4,368.7c0,0.2,0,0.5,0,0.7c0,0.5,0.2,1,0.8,1.1c0.6,0,0.8-0.5,0.8-1.1v-0.8
			c0-0.5-0.2-0.9-0.7-0.9C-250.2,367.7-250.4,368.1-250.4,368.7z"/>
	</g>
	<g id="XMLID_534_" class="st1">
		<path class="st0" d="M-253.6,384.4c0.3-0.1,0.6-0.1,1-0.1c0.6,0,1,0.2,1,0.8c0,0.5-0.4,0.7-0.8,1c-0.4,0.3-0.9,0.6-1,1.3h1.7v0.3
			h-2c0-0.2,0-0.2,0-0.3c0-0.8,0.6-1.2,1.1-1.6c0.3-0.2,0.7-0.5,0.7-0.7c0-0.4-0.3-0.5-0.7-0.5c-0.3,0-0.6,0.1-0.9,0.1L-253.6,384.4
			z"/>
		<path class="st0" d="M-248.5,385.6v0.8c0,0.8-0.3,1.5-1.2,1.5c-0.8,0-1.1-0.7-1.1-1.5c0-0.3,0-0.5,0-0.7c0-0.8,0.3-1.4,1.2-1.3
			C-248.9,384.4-248.5,384.9-248.5,385.6z M-250.4,385.7c0,0.2,0,0.5,0,0.7c0,0.5,0.2,1,0.8,1.1c0.6,0,0.8-0.5,0.8-1.1v-0.8
			c0-0.5-0.2-0.9-0.7-0.9C-250.2,384.7-250.4,385.1-250.4,385.7z"/>
	</g>
	<g id="XMLID_533_">
		<path class="st0" d="M-218.5,404.4h-28.2c-0.2,0-0.3-0.1-0.3-0.3c0-0.2,0.1-0.3,0.3-0.3h28.2c0.2,0,0.3,0.1,0.3,0.3
			C-218.2,404.3-218.4,404.4-218.5,404.4z"/>
	</g>
	<g id="XMLID_531_">
		<g>
			<path class="st0" d="M-246.2,421.9h-0.6c-0.2,0-0.3-0.1-0.3-0.3c0-0.2,0.1-0.3,0.3-0.3h0.6c0.2,0,0.3,0.1,0.3,0.3
				C-245.9,421.8-246,421.9-246.2,421.9z"/>
		</g>
		<g>
			<path class="st0" d="M-220.5,421.9h-1.1c-0.2,0-0.3-0.1-0.3-0.3c0-0.2,0.1-0.3,0.3-0.3h1.1c0.2,0,0.3,0.1,0.3,0.3
				C-220.2,421.8-220.4,421.9-220.5,421.9z M-223.1,421.9h-1.1c-0.2,0-0.3-0.1-0.3-0.3c0-0.2,0.1-0.3,0.3-0.3h1.1
				c0.2,0,0.3,0.1,0.3,0.3C-222.8,421.8-222.9,421.9-223.1,421.9z M-225.7,421.9h-1.1c-0.2,0-0.3-0.1-0.3-0.3c0-0.2,0.1-0.3,0.3-0.3
				h1.1c0.2,0,0.3,0.1,0.3,0.3C-225.4,421.8-225.5,421.9-225.7,421.9z M-228.2,421.9h-1.1c-0.2,0-0.3-0.1-0.3-0.3
				c0-0.2,0.1-0.3,0.3-0.3h1.1c0.2,0,0.3,0.1,0.3,0.3C-227.9,421.8-228.1,421.9-228.2,421.9z M-230.8,421.9h-1.2
				c-0.2,0-0.3-0.1-0.3-0.3c0-0.2,0.1-0.3,0.3-0.3h1.2c0.2,0,0.3,0.1,0.3,0.3C-230.5,421.8-230.6,421.9-230.8,421.9z M-233.3,421.9
				h-1.1c-0.2,0-0.3-0.1-0.3-0.3c0-0.2,0.1-0.3,0.3-0.3h1.1c0.2,0,0.3,0.1,0.3,0.3C-233,421.8-233.2,421.9-233.3,421.9z
				 M-235.9,421.9h-1.1c-0.2,0-0.3-0.1-0.3-0.3c0-0.2,0.1-0.3,0.3-0.3h1.1c0.2,0,0.3,0.1,0.3,0.3
				C-235.6,421.8-235.7,421.9-235.9,421.9z M-238.5,421.9h-1.1c-0.2,0-0.3-0.1-0.3-0.3c0-0.2,0.1-0.3,0.3-0.3h1.1
				c0.2,0,0.3,0.1,0.3,0.3C-238.2,421.8-238.3,421.9-238.5,421.9z M-241,421.9h-1.1c-0.2,0-0.3-0.1-0.3-0.3c0-0.2,0.1-0.3,0.3-0.3
				h1.1c0.2,0,0.3,0.1,0.3,0.3C-240.7,421.8-240.9,421.9-241,421.9z M-243.6,421.9h-1.1c-0.2,0-0.3-0.1-0.3-0.3
				c0-0.2,0.1-0.3,0.3-0.3h1.1c0.2,0,0.3,0.1,0.3,0.3C-243.3,421.8-243.4,421.9-243.6,421.9z"/>
		</g>
		<g>
			<path class="st0" d="M-218.5,421.9h-0.6c-0.2,0-0.3-0.1-0.3-0.3c0-0.2,0.1-0.3,0.3-0.3h0.6c0.2,0,0.3,0.1,0.3,0.3
				C-218.2,421.8-218.4,421.9-218.5,421.9z"/>
		</g>
	</g>
	<g id="XMLID_530_">
		<path class="st0" d="M-228.7,408.8h-7.9c-0.2,0-0.3-0.1-0.3-0.3s0.1-0.3,0.3-0.3h7.9c0.2,0,0.3,0.1,0.3,0.3
			S-228.5,408.8-228.7,408.8z"/>
	</g>
	<g id="XMLID_529_">
		<path class="st0" d="M-228.7,417.8h-7.9c-0.2,0-0.3-0.1-0.3-0.3s0.1-0.3,0.3-0.3h7.9c0.2,0,0.3,0.1,0.3,0.3
			S-228.5,417.8-228.7,417.8z"/>
	</g>
	<g id="XMLID_528_">
		<path class="st0" d="M-225.5,413.4h-14.2c-0.2,0-0.3-0.1-0.3-0.3c0-0.2,0.1-0.3,0.3-0.3h14.2c0.2,0,0.3,0.1,0.3,0.3
			C-225.2,413.3-225.3,413.4-225.5,413.4z"/>
	</g>
	<g id="XMLID_527_">
		<path class="st0" d="M-228.7,426.2h-7.9c-0.2,0-0.3-0.1-0.3-0.3c0-0.2,0.1-0.3,0.3-0.3h7.9c0.2,0,0.3,0.1,0.3,0.3
			C-228.4,426.1-228.5,426.2-228.7,426.2z"/>
	</g>
	<g id="XMLID_526_">
		<path class="st0" d="M-228.7,435.2h-7.9c-0.2,0-0.3-0.1-0.3-0.3c0-0.2,0.1-0.3,0.3-0.3h7.9c0.2,0,0.3,0.1,0.3,0.3
			C-228.4,435.1-228.5,435.2-228.7,435.2z"/>
	</g>
	<g id="XMLID_525_">
		<path class="st0" d="M-225.5,430.9h-14.2c-0.2,0-0.3-0.1-0.3-0.3c0-0.2,0.1-0.3,0.3-0.3h14.2c0.2,0,0.3,0.1,0.3,0.3
			C-225.2,430.8-225.3,430.9-225.5,430.9z"/>
	</g>
	<g id="XMLID_524_" class="st1">
		<path class="st0" d="M-253.4,405.6h0.6V403l-0.5,0.1l-0.1-0.3l0.9-0.3v3.1h0.6v0.3h-1.6C-253.4,406-253.4,405.6-253.4,405.6z"/>
		<path class="st0" d="M-248.5,403.8v0.8c0,0.8-0.3,1.5-1.2,1.5c-0.8,0-1.1-0.7-1.1-1.5c0-0.3,0-0.5,0-0.7c0-0.8,0.3-1.4,1.2-1.3
			C-248.9,402.6-248.5,403.1-248.5,403.8z M-250.4,403.9c0,0.2,0,0.5,0,0.7c0,0.5,0.2,1,0.8,1.1c0.6,0,0.8-0.5,0.8-1.1v-0.8
			c0-0.5-0.2-0.9-0.7-0.9C-250.2,402.9-250.4,403.3-250.4,403.9z"/>
	</g>
	<g id="XMLID_523_" class="st1">
		<path class="st0" d="M-248.5,420.8v0.8c0,0.8-0.3,1.5-1.2,1.5c-0.8,0-1.1-0.7-1.1-1.5c0-0.3,0-0.5,0-0.7c0-0.8,0.3-1.4,1.2-1.3
			C-248.9,419.6-248.5,420.1-248.5,420.8z M-250.4,420.9c0,0.2,0,0.5,0,0.7c0,0.5,0.2,1,0.8,1.1c0.6,0,0.8-0.5,0.8-1.1v-0.8
			c0-0.5-0.2-0.9-0.7-0.9C-250.2,419.9-250.4,420.3-250.4,420.9z"/>
	</g>
	<g id="XMLID_522_">
		<path class="st0" d="M-218.5,439.6h-28.2c-0.2,0-0.3-0.1-0.3-0.3c0-0.2,0.1-0.3,0.3-0.3h28.2c0.2,0,0.3,0.1,0.3,0.3
			C-218.2,439.5-218.4,439.6-218.5,439.6z"/>
	</g>
	<g id="XMLID_521_">
		<path class="st0" d="M-218.5,457.1h-28.2c-0.2,0-0.3-0.1-0.3-0.3c0-0.2,0.1-0.3,0.3-0.3h28.2c0.2,0,0.3,0.1,0.3,0.3
			C-218.2,457-218.4,457.1-218.5,457.1z"/>
	</g>
	<g id="XMLID_520_">
		<path class="st0" d="M-228.7,444h-7.9c-0.2,0-0.3-0.1-0.3-0.3c0-0.2,0.1-0.3,0.3-0.3h7.9c0.2,0,0.3,0.1,0.3,0.3
			C-228.4,443.9-228.5,444-228.7,444z"/>
	</g>
	<g id="XMLID_519_">
		<path class="st0" d="M-228.7,453h-7.9c-0.2,0-0.3-0.1-0.3-0.3c0-0.2,0.1-0.3,0.3-0.3h7.9c0.2,0,0.3,0.1,0.3,0.3
			C-228.4,452.9-228.5,453-228.7,453z"/>
	</g>
	<g id="XMLID_518_">
		<path class="st0" d="M-225.5,448.6h-14.2c-0.2,0-0.3-0.1-0.3-0.3c0-0.2,0.1-0.3,0.3-0.3h14.2c0.2,0,0.3,0.1,0.3,0.3
			C-225.2,448.5-225.3,448.6-225.5,448.6z"/>
	</g>
	<g id="XMLID_517_">
		<path class="st0" d="M-228.7,461.4h-7.9c-0.2,0-0.3-0.1-0.3-0.3s0.1-0.3,0.3-0.3h7.9c0.2,0,0.3,0.1,0.3,0.3
			S-228.5,461.4-228.7,461.4z"/>
	</g>
	<g id="XMLID_516_">
		<path class="st0" d="M-228.7,470.4h-7.9c-0.2,0-0.3-0.1-0.3-0.3s0.1-0.3,0.3-0.3h7.9c0.2,0,0.3,0.1,0.3,0.3
			C-228.4,470.3-228.5,470.4-228.7,470.4z"/>
	</g>
	<g id="XMLID_515_">
		<path class="st0" d="M-225.5,466.1h-14.2c-0.2,0-0.3-0.1-0.3-0.3c0-0.2,0.1-0.3,0.3-0.3h14.2c0.2,0,0.3,0.1,0.3,0.3
			C-225.2,466-225.3,466.1-225.5,466.1z"/>
	</g>
	<g id="XMLID_514_" class="st1">
		<path class="st0" d="M-255.6,439.7h1.4v0.3h-1.4V439.7z"/>
		<path class="st0" d="M-253.4,440.8h0.6v-2.7l-0.5,0.1l-0.1-0.3l0.9-0.3v3.1h0.6v0.3h-1.6C-253.4,441.2-253.4,440.8-253.4,440.8z"
			/>
		<path class="st0" d="M-248.5,439v0.8c0,0.8-0.3,1.5-1.2,1.5c-0.8,0-1.1-0.7-1.1-1.5c0-0.3,0-0.5,0-0.7c0-0.8,0.3-1.4,1.2-1.3
			C-248.9,437.7-248.5,438.3-248.5,439z M-250.4,439.1c0,0.2,0,0.5,0,0.7c0,0.5,0.2,1,0.8,1.1c0.6,0,0.8-0.5,0.8-1.1V439
			c0-0.5-0.2-0.9-0.7-0.9C-250.2,438-250.4,438.5-250.4,439.1z"/>
	</g>
	<g id="XMLID_513_" class="st1">
		<path class="st0" d="M-255.6,456.7h1.4v0.3h-1.4V456.7z"/>
		<path class="st0" d="M-253.6,454.8c0.3-0.1,0.6-0.1,1-0.1c0.6,0,1,0.2,1,0.8c0,0.5-0.4,0.7-0.8,1c-0.4,0.3-0.9,0.6-1,1.3h1.7v0.3
			h-2c0-0.2,0-0.2,0-0.3c0-0.8,0.6-1.2,1.1-1.6c0.3-0.2,0.7-0.5,0.7-0.7c0-0.4-0.3-0.5-0.7-0.5c-0.3,0-0.6,0.1-0.9,0.1L-253.6,454.8
			z"/>
		<path class="st0" d="M-248.5,456v0.8c0,0.8-0.3,1.5-1.2,1.5c-0.8,0-1.1-0.7-1.1-1.5c0-0.3,0-0.5,0-0.7c0-0.8,0.3-1.4,1.2-1.3
			C-248.9,454.8-248.5,455.3-248.5,456z M-250.4,456.1c0,0.2,0,0.5,0,0.7c0,0.5,0.2,1,0.8,1.1c0.6,0,0.8-0.5,0.8-1.1V456
			c0-0.5-0.2-0.9-0.7-0.9C-250.2,455-250.4,455.5-250.4,456.1z"/>
	</g>
	<g id="XMLID_512_">
		<path class="st0" d="M-218.5,474.8h-28.2c-0.2,0-0.3-0.1-0.3-0.3s0.1-0.3,0.3-0.3h28.2c0.2,0,0.3,0.1,0.3,0.3
			S-218.4,474.8-218.5,474.8z"/>
	</g>
	<g id="XMLID_511_">
		<path class="st0" d="M-218.5,492.2h-28.2c-0.2,0-0.3-0.1-0.3-0.3s0.1-0.3,0.3-0.3h28.2c0.2,0,0.3,0.1,0.3,0.3
			S-218.4,492.2-218.5,492.2z"/>
	</g>
	<g id="XMLID_510_">
		<path class="st0" d="M-228.7,479.2h-7.9c-0.2,0-0.3-0.1-0.3-0.3c0-0.2,0.1-0.3,0.3-0.3h7.9c0.2,0,0.3,0.1,0.3,0.3
			C-228.4,479.1-228.5,479.2-228.7,479.2z"/>
	</g>
	<g id="XMLID_509_">
		<path class="st0" d="M-228.7,488.2h-7.9c-0.2,0-0.3-0.1-0.3-0.3c0-0.2,0.1-0.3,0.3-0.3h7.9c0.2,0,0.3,0.1,0.3,0.3
			S-228.5,488.2-228.7,488.2z"/>
	</g>
	<g id="XMLID_508_">
		<path class="st0" d="M-225.5,483.8h-14.2c-0.2,0-0.3-0.1-0.3-0.3c0-0.2,0.1-0.3,0.3-0.3h14.2c0.2,0,0.3,0.1,0.3,0.3
			S-225.3,483.8-225.5,483.8z"/>
	</g>
	<g id="XMLID_507_">
		<path class="st0" d="M-228.7,496.6h-7.9c-0.2,0-0.3-0.1-0.3-0.3c0-0.2,0.1-0.3,0.3-0.3h7.9c0.2,0,0.3,0.1,0.3,0.3
			C-228.4,496.5-228.5,496.6-228.7,496.6z"/>
	</g>
	<g id="XMLID_506_">
		<path class="st0" d="M-228.7,505.6h-7.9c-0.2,0-0.3-0.1-0.3-0.3c0-0.2,0.1-0.3,0.3-0.3h7.9c0.2,0,0.3,0.1,0.3,0.3
			C-228.4,505.5-228.5,505.6-228.7,505.6z"/>
	</g>
	<g id="XMLID_505_">
		<path class="st0" d="M-225.5,501.3h-14.2c-0.2,0-0.3-0.1-0.3-0.3c0-0.2,0.1-0.3,0.3-0.3h14.2c0.2,0,0.3,0.1,0.3,0.3
			C-225.2,501.1-225.3,501.3-225.5,501.3z"/>
	</g>
	<g id="XMLID_504_" class="st1">
		<path class="st0" d="M-255.6,474.9h1.4v0.3h-1.4V474.9z"/>
		<path class="st0" d="M-253.5,476c0.2,0.1,0.4,0.1,0.7,0.1s0.5-0.1,0.7-0.2s0.2-0.3,0.2-0.6c0-0.3-0.1-0.6-0.4-0.6
			c-0.2,0-0.5,0-0.8,0h-0.4v-0.3h0.6c0.2,0,0.3,0,0.5-0.1c0.3-0.1,0.4-0.3,0.4-0.6c0-0.1-0.1-0.3-0.2-0.4c-0.1-0.1-0.3-0.1-0.6-0.1
			s-0.6,0.1-0.8,0.1l-0.1-0.3c0.2,0,0.6-0.1,0.9-0.1s0.6,0.1,0.8,0.2c0.2,0.2,0.3,0.4,0.3,0.7c0,0.3-0.1,0.6-0.4,0.8
			c0.3,0.2,0.4,0.5,0.4,0.8c0,0.3-0.1,0.6-0.4,0.8c-0.2,0.2-0.6,0.2-0.9,0.2c-0.3,0-0.6-0.1-0.8-0.1L-253.5,476z"/>
		<path class="st0" d="M-248.5,474.2v0.8c0,0.8-0.3,1.5-1.2,1.5c-0.8,0-1.1-0.7-1.1-1.5c0-0.3,0-0.5,0-0.7c0-0.8,0.3-1.4,1.2-1.3
			C-248.9,472.9-248.5,473.5-248.5,474.2z M-250.4,474.2c0,0.2,0,0.5,0,0.7c0,0.5,0.2,1,0.8,1.1c0.6,0,0.8-0.5,0.8-1.1v-0.8
			c0-0.5-0.2-0.9-0.7-0.9C-250.2,473.2-250.4,473.7-250.4,474.2z"/>
	</g>
	<g id="XMLID_503_" class="st1">
		<path class="st0" d="M-255.6,491.9h1.4v0.3h-1.4V491.9z"/>
		<path class="st0" d="M-251.5,492.5h-0.4v0.9h-0.3v-0.9h-1.6v-0.3l1.6-2.3h0.3v2.2h0.4V492.5z M-252.3,492.1v-1.6l-1.2,1.6
			C-253.1,492.1-252.7,492.1-252.3,492.1z"/>
		<path class="st0" d="M-248.5,491.2v0.8c0,0.8-0.3,1.5-1.2,1.5c-0.8,0-1.1-0.7-1.1-1.5c0-0.3,0-0.5,0-0.7c0-0.8,0.3-1.4,1.2-1.3
			C-248.9,489.9-248.5,490.5-248.5,491.2z M-250.4,491.2c0,0.2,0,0.5,0,0.7c0,0.5,0.2,1,0.8,1.1c0.6,0,0.8-0.5,0.8-1.1v-0.8
			c0-0.5-0.2-0.9-0.7-0.9C-250.2,490.2-250.4,490.7-250.4,491.2z"/>
	</g>
	<g id="XMLID_502_">
		<path class="st0" d="M-218.5,510h-28.2c-0.2,0-0.3-0.1-0.3-0.3c0-0.2,0.1-0.3,0.3-0.3h28.2c0.2,0,0.3,0.1,0.3,0.3
			C-218.2,509.9-218.4,510-218.5,510z"/>
	</g>
	<g id="XMLID_501_">
		<path class="st0" d="M-218.5,527.4h-28.2c-0.2,0-0.3-0.1-0.3-0.3s0.1-0.3,0.3-0.3h28.2c0.2,0,0.3,0.1,0.3,0.3
			S-218.4,527.4-218.5,527.4z"/>
	</g>
	<g id="XMLID_500_">
		<path class="st0" d="M-228.7,514.3h-7.9c-0.2,0-0.3-0.1-0.3-0.3c0-0.2,0.1-0.3,0.3-0.3h7.9c0.2,0,0.3,0.1,0.3,0.3
			C-228.4,514.2-228.5,514.3-228.7,514.3z"/>
	</g>
	<g id="XMLID_499_">
		<path class="st0" d="M-228.7,523.4h-7.9c-0.2,0-0.3-0.1-0.3-0.3s0.1-0.3,0.3-0.3h7.9c0.2,0,0.3,0.1,0.3,0.3
			S-228.5,523.4-228.7,523.4z"/>
	</g>
	<g id="XMLID_498_">
		<path class="st0" d="M-225.5,519h-14.2c-0.2,0-0.3-0.1-0.3-0.3c0-0.2,0.1-0.3,0.3-0.3h14.2c0.2,0,0.3,0.1,0.3,0.3
			S-225.3,519-225.5,519z"/>
	</g>
	<g id="XMLID_497_">
		<path class="st0" d="M-228.7,531.8h-7.9c-0.2,0-0.3-0.1-0.3-0.3c0-0.2,0.1-0.3,0.3-0.3h7.9c0.2,0,0.3,0.1,0.3,0.3
			C-228.4,531.7-228.5,531.8-228.7,531.8z"/>
	</g>
	<g id="XMLID_496_">
		<path class="st0" d="M-228.7,540.8h-7.9c-0.2,0-0.3-0.1-0.3-0.3c0-0.2,0.1-0.3,0.3-0.3h7.9c0.2,0,0.3,0.1,0.3,0.3
			C-228.4,540.7-228.5,540.8-228.7,540.8z"/>
	</g>
	<g id="XMLID_495_">
		<path class="st0" d="M-225.5,536.4h-14.2c-0.2,0-0.3-0.1-0.3-0.3s0.1-0.3,0.3-0.3h14.2c0.2,0,0.3,0.1,0.3,0.3
			S-225.3,536.4-225.5,536.4z"/>
	</g>
	<g id="XMLID_494_" class="st1">
		<path class="st0" d="M-255.6,510.1h1.4v0.3h-1.4V510.1z"/>
		<path class="st0" d="M-253.5,511.2c0.2,0.1,0.4,0.1,0.7,0.1s0.5-0.1,0.7-0.2c0.1-0.1,0.2-0.3,0.2-0.6c0-0.1,0-0.2-0.1-0.3
			c-0.1-0.4-0.5-0.4-0.9-0.4c-0.1,0-0.2,0-0.3,0s-0.4,0-0.4,0l0.2-1.7h1.7v0.3h-1.4c0,0.4-0.1,0.6-0.1,1c0,0,0,0,0.1,0s0.2,0,0.3,0
			c0.5,0,1,0.1,1.2,0.7c0,0.1,0.1,0.3,0.1,0.4c0,0.3-0.1,0.6-0.4,0.8c-0.2,0.2-0.6,0.2-0.9,0.2c-0.3,0-0.6-0.1-0.8-0.1L-253.5,511.2
			z"/>
		<path class="st0" d="M-248.5,509.3v0.8c0,0.8-0.3,1.5-1.2,1.5c-0.8,0-1.1-0.7-1.1-1.5c0-0.3,0-0.5,0-0.7c0-0.8,0.3-1.4,1.2-1.3
			C-248.9,508.1-248.5,508.7-248.5,509.3z M-250.4,509.4c0,0.2,0,0.5,0,0.7c0,0.5,0.2,1,0.8,1.1c0.6,0,0.8-0.5,0.8-1.1v-0.8
			c0-0.5-0.2-0.9-0.7-0.9C-250.2,508.4-250.4,508.8-250.4,509.4z"/>
	</g>
	<g id="XMLID_493_" class="st1">
		<path class="st0" d="M-255.6,527.1h1.4v0.3h-1.4V527.1z"/>
		<path class="st0" d="M-251.7,525.5h-0.1c-0.2,0-0.5-0.1-0.7-0.1c-0.4,0-0.8,0.1-0.8,0.8c0,0,0,0.1,0,0.3c0.3-0.1,0.6-0.1,0.8-0.1
			c0.8,0,1,0.4,1.1,0.9v0.2c0,0.5-0.1,0.7-0.3,0.9l0,0c-0.2,0.2-0.5,0.3-0.8,0.3s-0.5-0.1-0.7-0.2c-0.3-0.2-0.4-0.7-0.4-1.2v-1.1
			c0.1-0.8,0.6-1.1,1.2-1.1c0.2,0,0.5,0.1,0.8,0.1l0,0h0.1L-251.7,525.5z M-253.4,526.8c0,0.2,0,0.4,0,0.4c0,0.4,0.1,0.8,0.3,0.9
			l0,0c0.1,0.1,0.3,0.1,0.5,0.1s0.4-0.1,0.5-0.1c0.1-0.1,0.2-0.3,0.2-0.7c0-0.1,0-0.1,0-0.2c0-0.3-0.2-0.6-0.8-0.6
			C-252.8,526.7-253.1,526.8-253.4,526.8z"/>
		<path class="st0" d="M-248.5,526.3v0.8c0,0.8-0.3,1.5-1.2,1.5c-0.8,0-1.1-0.7-1.1-1.5c0-0.3,0-0.5,0-0.7c0-0.8,0.3-1.4,1.2-1.3
			C-248.9,525.1-248.5,525.7-248.5,526.3z M-250.4,526.4c0,0.2,0,0.5,0,0.7c0,0.5,0.2,1,0.8,1.1c0.6,0,0.8-0.5,0.8-1.1v-0.8
			c0-0.5-0.2-0.9-0.7-0.9C-250.2,525.4-250.4,525.9-250.4,526.4z"/>
	</g>
	<g id="XMLID_492_">
		<path class="st0" d="M-218.5,545.2h-28.2c-0.2,0-0.3-0.1-0.3-0.3s0.1-0.3,0.3-0.3h28.2c0.2,0,0.3,0.1,0.3,0.3
			C-218.2,545-218.4,545.2-218.5,545.2z"/>
	</g>
	<g id="XMLID_491_">
		<path class="st0" d="M-218.5,562.6h-28.2c-0.2,0-0.3-0.1-0.3-0.3s0.1-0.3,0.3-0.3h28.2c0.2,0,0.3,0.1,0.3,0.3
			S-218.4,562.6-218.5,562.6z"/>
	</g>
	<g id="XMLID_490_">
		<path class="st0" d="M-228.7,549.5h-7.9c-0.2,0-0.3-0.1-0.3-0.3c0-0.2,0.1-0.3,0.3-0.3h7.9c0.2,0,0.3,0.1,0.3,0.3
			C-228.4,549.4-228.5,549.5-228.7,549.5z"/>
	</g>
	<g id="XMLID_489_">
		<path class="st0" d="M-228.7,558.5h-7.9c-0.2,0-0.3-0.1-0.3-0.3c0-0.2,0.1-0.3,0.3-0.3h7.9c0.2,0,0.3,0.1,0.3,0.3
			C-228.4,558.4-228.5,558.5-228.7,558.5z"/>
	</g>
	<g id="XMLID_488_">
		<path class="st0" d="M-225.5,554.2h-14.2c-0.2,0-0.3-0.1-0.3-0.3s0.1-0.3,0.3-0.3h14.2c0.2,0,0.3,0.1,0.3,0.3
			S-225.3,554.2-225.5,554.2z"/>
	</g>
	<g id="XMLID_487_">
		<path class="st0" d="M-228.7,567h-7.9c-0.2,0-0.3-0.1-0.3-0.3c0-0.2,0.1-0.3,0.3-0.3h7.9c0.2,0,0.3,0.1,0.3,0.3
			C-228.4,566.9-228.5,567-228.7,567z"/>
	</g>
	<g id="XMLID_486_">
		<path class="st0" d="M-228.7,576h-7.9c-0.2,0-0.3-0.1-0.3-0.3c0-0.2,0.1-0.3,0.3-0.3h7.9c0.2,0,0.3,0.1,0.3,0.3
			C-228.4,575.9-228.5,576-228.7,576z"/>
	</g>
	<g id="XMLID_485_">
		<path class="st0" d="M-225.5,571.6h-14.2c-0.2,0-0.3-0.1-0.3-0.3s0.1-0.3,0.3-0.3h14.2c0.2,0,0.3,0.1,0.3,0.3
			S-225.3,571.6-225.5,571.6z"/>
	</g>
	<g id="XMLID_484_" class="st1">
		<path class="st0" d="M-255.6,545.2h1.4v0.3h-1.4V545.2z"/>
		<path class="st0" d="M-253.6,543.3h2.2v0.3l-1.4,3.2l-0.3-0.1l1.3-3c-0.6,0-1.2,0-1.8,0C-253.6,543.6-253.6,543.3-253.6,543.3z"/>
		<path class="st0" d="M-248.5,544.5v0.8c0,0.8-0.3,1.5-1.2,1.5c-0.8,0-1.1-0.7-1.1-1.5c0-0.3,0-0.5,0-0.7c0-0.8,0.3-1.4,1.2-1.3
			C-248.9,543.3-248.5,543.9-248.5,544.5z M-250.4,544.6c0,0.2,0,0.5,0,0.7c0,0.5,0.2,1,0.8,1.1c0.6,0,0.8-0.5,0.8-1.1v-0.8
			c0-0.5-0.2-0.9-0.7-0.9C-250.2,543.6-250.4,544-250.4,544.6z"/>
	</g>
	<g id="XMLID_483_" class="st1">
		<path class="st0" d="M-255.6,562.3h1.4v0.3h-1.4V562.3z"/>
		<path class="st0" d="M-251.9,561.9c0.2,0.1,0.4,0.4,0.4,0.8c0,0.8-0.6,1.1-1.2,1.1c-0.6,0-1.2-0.3-1.2-1c0-0.4,0.2-0.7,0.5-0.9
			c-0.2-0.1-0.4-0.3-0.4-0.8c0-0.7,0.6-0.9,1.1-0.9c0.6,0,1.1,0.2,1.1,0.9C-251.5,561.6-251.6,561.8-251.9,561.9z M-252.5,562.1
			L-252.5,562.1c-0.5,0-0.9,0.2-0.9,0.7s0.4,0.7,0.9,0.7c0.4,0,0.8-0.2,0.8-0.8C-251.8,562.2-252.2,562.1-252.5,562.1z
			 M-252.6,560.6c-0.4,0-0.8,0.1-0.8,0.6s0.4,0.6,0.8,0.6l0,0c0.3,0,0.8-0.1,0.8-0.5C-251.9,560.7-252.2,560.6-252.6,560.6z"/>
		<path class="st0" d="M-248.5,561.5v0.8c0,0.8-0.3,1.5-1.2,1.5c-0.8,0-1.1-0.7-1.1-1.5c0-0.3,0-0.5,0-0.7c0-0.8,0.3-1.4,1.2-1.3
			C-248.9,560.3-248.5,560.9-248.5,561.5z M-250.4,561.6c0,0.2,0,0.5,0,0.7c0,0.5,0.2,1,0.8,1.1c0.6,0,0.8-0.5,0.8-1.1v-0.8
			c0-0.5-0.2-0.9-0.7-0.9C-250.2,560.6-250.4,561-250.4,561.6z"/>
	</g>
	<g id="XMLID_482_">
		<path class="st0" d="M-218.5,580.3h-28.2c-0.2,0-0.3-0.1-0.3-0.3c0-0.2,0.1-0.3,0.3-0.3h28.2c0.2,0,0.3,0.1,0.3,0.3
			C-218.2,580.2-218.4,580.3-218.5,580.3z"/>
	</g>
	<g id="XMLID_480_" class="st1">
		<path class="st0" d="M-255.6,580.4h1.4v0.3h-1.4V580.4z"/>
		<path class="st0" d="M-253.5,581.5h0.1c0.2,0.1,0.5,0.1,0.7,0.1c0.4,0,0.8-0.1,0.8-0.8v-0.3c-0.3,0.1-0.6,0.1-0.8,0.1
			c-0.8,0-1-0.4-1.1-0.9c0-0.1,0-0.1,0-0.2c0-0.5,0.1-0.7,0.3-0.9c0.2-0.2,0.5-0.3,0.8-0.3s0.5,0.1,0.7,0.2l0,0
			c0.3,0.2,0.4,0.7,0.4,1.2v0.7c0,0.2,0,0.4,0,0.4l0,0c-0.1,0.9-0.6,1.1-1.2,1.1c-0.3,0-0.5-0.1-0.8-0.1l0,0h-0.1L-253.5,581.5z
			 M-251.9,580.2v-0.4c0-0.4-0.1-0.8-0.3-0.9c-0.1-0.1-0.3-0.1-0.5-0.1s-0.4,0.1-0.5,0.1c-0.1,0.1-0.2,0.3-0.2,0.7v0.2
			c0,0.3,0.2,0.6,0.8,0.6C-252.4,580.3-252.2,580.3-251.9,580.2z"/>
		<path class="st0" d="M-248.5,579.7v0.8c0,0.8-0.3,1.5-1.2,1.5c-0.8,0-1.1-0.7-1.1-1.5c0-0.3,0-0.5,0-0.7c0-0.8,0.3-1.4,1.2-1.3
			C-248.9,578.5-248.5,579-248.5,579.7z M-250.4,579.8c0,0.2,0,0.5,0,0.7c0,0.5,0.2,1,0.8,1.1c0.6,0,0.8-0.5,0.8-1.1v-0.8
			c0-0.5-0.2-0.9-0.7-0.9C-250.2,578.8-250.4,579.2-250.4,579.8z"/>
	</g>
	<g id="XMLID_479_" class="st1">
		<path class="st0" d="M-216,264.9h0.1c0.2,0.1,0.5,0.1,0.7,0.1c0.4,0,0.8-0.1,0.8-0.8v-0.3c-0.3,0.1-0.6,0.1-0.8,0.1
			c-0.8,0-1-0.4-1.1-0.9c0-0.1,0-0.1,0-0.2c0-0.5,0.1-0.7,0.3-0.9c0.2-0.2,0.5-0.3,0.8-0.3s0.5,0.1,0.7,0.2l0,0
			c0.3,0.2,0.4,0.7,0.4,1.2v0.7c0,0.2,0,0.4,0,0.4l0,0c-0.1,0.9-0.6,1.1-1.2,1.1c-0.3,0-0.5-0.1-0.8-0.1l0,0h-0.1L-216,264.9z
			 M-214.4,263.6v-0.4c0-0.4-0.1-0.8-0.3-0.9c-0.1-0.1-0.3-0.1-0.5-0.1s-0.4,0.1-0.5,0.1c-0.1,0.1-0.2,0.3-0.2,0.7v0.2
			c0,0.3,0.2,0.6,0.8,0.6C-215,263.7-214.7,263.7-214.4,263.6z"/>
		<path class="st0" d="M-211,263v0.8c0,0.8-0.3,1.5-1.2,1.5c-0.8,0-1.1-0.7-1.1-1.5c0-0.3,0-0.5,0-0.7c0-0.8,0.3-1.4,1.2-1.3
			C-211.4,261.8-211,262.4-211,263z M-212.9,263.1c0,0.2,0,0.5,0,0.7c0,0.5,0.2,1,0.8,1.1c0.6,0,0.8-0.5,0.8-1.1V263
			c0-0.5-0.2-0.9-0.7-0.9C-212.7,262.1-212.9,262.6-212.9,263.1z"/>
	</g>
	<g id="XMLID_478_" class="st1">
		<path class="st0" d="M-214.4,280.4c0.2,0.1,0.4,0.4,0.4,0.8c0,0.8-0.6,1.1-1.2,1.1s-1.2-0.3-1.2-1c0-0.4,0.2-0.7,0.5-0.9
			c-0.2-0.1-0.4-0.3-0.4-0.8c0-0.7,0.6-0.9,1.1-0.9c0.6,0,1.1,0.2,1.1,0.9C-214,280.1-214.2,280.3-214.4,280.4z M-215.1,280.6
			L-215.1,280.6c-0.5,0-0.9,0.2-0.9,0.7s0.4,0.7,0.9,0.7c0.4,0,0.8-0.2,0.8-0.8C-214.3,280.8-214.7,280.6-215.1,280.6z
			 M-215.1,279.1c-0.4,0-0.8,0.1-0.8,0.6s0.4,0.6,0.8,0.6l0,0c0.3,0,0.8-0.1,0.8-0.5C-214.4,279.3-214.7,279.1-215.1,279.1z"/>
		<path class="st0" d="M-211,280.1v0.8c0,0.8-0.3,1.5-1.2,1.5c-0.8,0-1.1-0.7-1.1-1.5c0-0.3,0-0.5,0-0.7c0-0.8,0.3-1.4,1.2-1.3
			C-211.4,278.8-211,279.4-211,280.1z M-212.9,280.1c0,0.2,0,0.5,0,0.7c0,0.5,0.2,1,0.8,1.1c0.6,0,0.8-0.5,0.8-1.1V280
			c0-0.5-0.2-0.9-0.7-0.9C-212.7,279.1-212.9,279.6-212.9,280.1z"/>
	</g>
	<g id="XMLID_477_" class="st1">
		<path class="st0" d="M-216.1,297h2.2v0.3l-1.4,3.2l-0.3-0.1l1.3-3c-0.6,0-1.2,0-1.8,0V297L-216.1,297z"/>
		<path class="st0" d="M-211,298.2v0.8c0,0.8-0.3,1.5-1.2,1.5c-0.8,0-1.1-0.7-1.1-1.5c0-0.3,0-0.5,0-0.7c0-0.8,0.3-1.4,1.2-1.3
			C-211.4,297-211,297.6-211,298.2z M-212.9,298.3c0,0.2,0,0.5,0,0.7c0,0.5,0.2,1,0.8,1.1c0.6,0,0.8-0.5,0.8-1.1v-0.8
			c0-0.5-0.2-0.9-0.7-0.9C-212.7,297.3-212.9,297.7-212.9,298.3z"/>
	</g>
	<g id="XMLID_476_" class="st1">
		<path class="st0" d="M-214.3,314.4h-0.1c-0.2,0-0.5-0.1-0.7-0.1c-0.4,0-0.8,0.1-0.8,0.8c0,0,0,0.1,0,0.3c0.3-0.1,0.6-0.1,0.8-0.1
			c0.8,0,1,0.4,1.1,0.9v0.2c0,0.5-0.1,0.7-0.3,0.9l0,0c-0.2,0.2-0.5,0.3-0.8,0.3s-0.5-0.1-0.7-0.2c-0.3-0.2-0.4-0.7-0.4-1.2v-1.1
			c0.1-0.8,0.6-1.1,1.2-1.1c0.3,0,0.5,0.1,0.8,0.1l0,0h0.1L-214.3,314.4z M-215.9,315.7c0,0.2,0,0.4,0,0.4c0,0.4,0.1,0.8,0.3,0.9
			l0,0c0.1,0.1,0.3,0.1,0.5,0.1s0.4-0.1,0.5-0.1c0.1-0.1,0.2-0.3,0.2-0.7c0-0.1,0-0.1,0-0.2c0-0.3-0.2-0.6-0.8-0.6
			C-215.3,315.6-215.6,315.6-215.9,315.7z"/>
		<path class="st0" d="M-211,315.2v0.8c0,0.8-0.3,1.5-1.2,1.5c-0.8,0-1.1-0.7-1.1-1.5c0-0.3,0-0.5,0-0.7c0-0.8,0.3-1.4,1.2-1.3
			C-211.4,314-211,314.6-211,315.2z M-212.9,315.3c0,0.2,0,0.5,0,0.7c0,0.5,0.2,1,0.8,1.1c0.6,0,0.8-0.5,0.8-1.1v-0.8
			c0-0.5-0.2-0.9-0.7-0.9C-212.7,314.3-212.9,314.7-212.9,315.3z"/>
	</g>
	<g id="XMLID_475_" class="st1">
		<path class="st0" d="M-216,335.3c0.2,0.1,0.4,0.1,0.7,0.1s0.5-0.1,0.7-0.2c0.1-0.1,0.2-0.3,0.2-0.6c0-0.1,0-0.2-0.1-0.3
			c-0.1-0.4-0.5-0.4-0.9-0.4c-0.1,0-0.2,0-0.3,0s-0.4,0-0.4,0l0.2-1.7h1.7v0.3h-1.4c0,0.4-0.1,0.6-0.1,1c0,0,0,0,0.1,0s0.2,0,0.3,0
			c0.5,0,1,0.1,1.2,0.7c0,0.1,0.1,0.3,0.1,0.4c0,0.3-0.1,0.6-0.4,0.8c-0.2,0.2-0.6,0.2-0.9,0.2c-0.3,0-0.6-0.1-0.8-0.1L-216,335.3z"
			/>
		<path class="st0" d="M-211,333.4v0.8c0,0.8-0.3,1.5-1.2,1.5c-0.8,0-1.1-0.7-1.1-1.5c0-0.3,0-0.5,0-0.7c0-0.8,0.3-1.4,1.2-1.3
			C-211.4,332.2-211,332.7-211,333.4z M-212.9,333.5c0,0.2,0,0.5,0,0.7c0,0.5,0.2,1,0.8,1.1c0.6,0,0.8-0.5,0.8-1.1v-0.8
			c0-0.5-0.2-0.9-0.7-0.9C-212.7,332.5-212.9,332.9-212.9,333.5z"/>
	</g>
	<g id="XMLID_474_" class="st1">
		<path class="st0" d="M-214.1,351.7h-0.4v0.9h-0.3v-0.9h-1.6v-0.3l1.6-2.3h0.3v2.2h0.4V351.7L-214.1,351.7z M-214.8,351.4v-1.6
			l-1.2,1.6C-215.6,351.4-215.2,351.4-214.8,351.4z"/>
		<path class="st0" d="M-211,350.4v0.8c0,0.8-0.3,1.5-1.2,1.5c-0.8,0-1.1-0.7-1.1-1.5c0-0.3,0-0.5,0-0.7c0-0.8,0.3-1.4,1.2-1.3
			C-211.4,349.2-211,349.8-211,350.4z M-212.9,350.5c0,0.2,0,0.5,0,0.7c0,0.5,0.2,1,0.8,1.1c0.6,0,0.8-0.5,0.8-1.1v-0.8
			c0-0.5-0.2-0.9-0.7-0.9C-212.7,349.5-212.9,349.9-212.9,350.5z"/>
	</g>
	<g id="XMLID_473_" class="st1">
		<path class="st0" d="M-216,370.4c0.2,0.1,0.4,0.1,0.7,0.1s0.5-0.1,0.7-0.2c0.2-0.1,0.2-0.3,0.2-0.6c0-0.3-0.1-0.6-0.4-0.6
			c-0.2,0-0.5,0-0.7,0h-0.4v-0.3h0.6c0.2,0,0.3,0,0.5-0.1c0.3-0.1,0.4-0.3,0.4-0.6c0-0.1-0.1-0.3-0.2-0.4c-0.1-0.1-0.3-0.1-0.6-0.1
			s-0.6,0.1-0.8,0.1l-0.1-0.3c0.2,0,0.6-0.1,0.9-0.1s0.6,0.1,0.8,0.2c0.2,0.2,0.3,0.4,0.3,0.7s-0.1,0.6-0.4,0.8
			c0.3,0.2,0.4,0.5,0.4,0.8c0,0.3-0.1,0.6-0.4,0.8c-0.2,0.2-0.6,0.2-0.9,0.2c-0.3,0-0.6-0.1-0.8-0.1L-216,370.4z"/>
		<path class="st0" d="M-211,368.6v0.8c0,0.8-0.3,1.5-1.2,1.5c-0.8,0-1.1-0.7-1.1-1.5c0-0.3,0-0.5,0-0.7c0-0.8,0.3-1.4,1.2-1.3
			C-211.4,367.4-211,367.9-211,368.6z M-212.9,368.7c0,0.2,0,0.5,0,0.7c0,0.5,0.2,1,0.8,1.1c0.6,0,0.8-0.5,0.8-1.1v-0.8
			c0-0.5-0.2-0.9-0.7-0.9C-212.7,367.7-212.9,368.1-212.9,368.7z"/>
	</g>
	<g id="XMLID_472_" class="st1">
		<path class="st0" d="M-216.1,384.4c0.3-0.1,0.6-0.1,1-0.1c0.6,0,1,0.2,1,0.8c0,0.5-0.4,0.7-0.8,1c-0.4,0.3-0.9,0.6-1,1.3h1.7v0.3
			h-2c0-0.2,0-0.2,0-0.3c0-0.8,0.6-1.2,1.1-1.6c0.3-0.2,0.7-0.5,0.7-0.7c0-0.4-0.3-0.5-0.7-0.5c-0.3,0-0.6,0.1-0.9,0.1L-216.1,384.4
			z"/>
		<path class="st0" d="M-211,385.6v0.8c0,0.8-0.3,1.5-1.2,1.5c-0.8,0-1.1-0.7-1.1-1.5c0-0.3,0-0.5,0-0.7c0-0.8,0.3-1.4,1.2-1.3
			C-211.4,384.4-211,384.9-211,385.6z M-212.9,385.7c0,0.2,0,0.5,0,0.7c0,0.5,0.2,1,0.8,1.1c0.6,0,0.8-0.5,0.8-1.1v-0.8
			c0-0.5-0.2-0.9-0.7-0.9C-212.7,384.7-212.9,385.1-212.9,385.7z"/>
	</g>
	<g id="XMLID_471_" class="st1">
		<path class="st0" d="M-216,405.6h0.6V403l-0.5,0.1l-0.1-0.3l0.9-0.3v3.1h0.6v0.3h-1.6v-0.3H-216z"/>
		<path class="st0" d="M-211,403.8v0.8c0,0.8-0.3,1.5-1.2,1.5c-0.8,0-1.1-0.7-1.1-1.5c0-0.3,0-0.5,0-0.7c0-0.8,0.3-1.4,1.2-1.3
			C-211.4,402.6-211,403.1-211,403.8z M-212.9,403.9c0,0.2,0,0.5,0,0.7c0,0.5,0.2,1,0.8,1.1c0.6,0,0.8-0.5,0.8-1.1v-0.8
			c0-0.5-0.2-0.9-0.7-0.9C-212.7,402.9-212.9,403.3-212.9,403.9z"/>
	</g>
	<g id="XMLID_470_" class="st1">
		<path class="st0" d="M-214,420.8v0.8c0,0.8-0.3,1.5-1.2,1.5c-0.8,0-1.1-0.7-1.1-1.5c0-0.3,0-0.5,0-0.7c0-0.8,0.3-1.4,1.2-1.3
			C-214.4,419.6-214,420.1-214,420.8z M-215.9,420.9c0,0.2,0,0.5,0,0.7c0,0.5,0.2,1,0.8,1.1c0.6,0,0.8-0.5,0.8-1.1v-0.8
			c0-0.5-0.2-0.9-0.7-0.9C-215.7,419.9-215.9,420.3-215.9,420.9z"/>
	</g>
	<g id="XMLID_469_" class="st1">
		<path class="st0" d="M-216.5,439.7h1.4v0.3h-1.4V439.7z"/>
		<path class="st0" d="M-214.3,440.8h0.6v-2.7l-0.5,0.1l-0.1-0.3l0.9-0.3v3.1h0.6v0.3h-1.6L-214.3,440.8L-214.3,440.8z"/>
		<path class="st0" d="M-209.4,439v0.8c0,0.8-0.3,1.5-1.2,1.5c-0.8,0-1.1-0.7-1.1-1.5c0-0.3,0-0.5,0-0.7c0-0.8,0.3-1.4,1.2-1.3
			C-209.7,437.7-209.4,438.3-209.4,439z M-211.3,439.1c0,0.2,0,0.5,0,0.7c0,0.5,0.2,1,0.8,1.1c0.6,0,0.8-0.5,0.8-1.1V439
			c0-0.5-0.2-0.9-0.7-0.9C-211.1,438-211.3,438.5-211.3,439.1z"/>
	</g>
	<g id="XMLID_467_" class="st1">
		<path class="st0" d="M-216.5,456.7h1.4v0.3h-1.4V456.7z"/>
		<path class="st0" d="M-214.5,454.8c0.3-0.1,0.6-0.1,1-0.1c0.6,0,1,0.2,1,0.8c0,0.5-0.4,0.7-0.8,1c-0.4,0.3-0.9,0.6-1,1.3h1.7v0.3
			h-2c0-0.2,0-0.2,0-0.3c0-0.8,0.6-1.2,1.1-1.6c0.3-0.2,0.7-0.5,0.7-0.7c0-0.4-0.3-0.5-0.7-0.5c-0.3,0-0.6,0.1-0.9,0.1L-214.5,454.8
			z"/>
		<path class="st0" d="M-209.4,456v0.8c0,0.8-0.3,1.5-1.2,1.5c-0.8,0-1.1-0.7-1.1-1.5c0-0.3,0-0.5,0-0.7c0-0.8,0.3-1.4,1.2-1.3
			C-209.7,454.8-209.4,455.3-209.4,456z M-211.3,456.1c0,0.2,0,0.5,0,0.7c0,0.5,0.2,1,0.8,1.1c0.6,0,0.8-0.5,0.8-1.1V456
			c0-0.5-0.2-0.9-0.7-0.9C-211.1,455-211.3,455.5-211.3,456.1z"/>
	</g>
	<g id="XMLID_364_" class="st1">
		<path class="st0" d="M-216.5,474.9h1.4v0.3h-1.4V474.9z"/>
		<path class="st0" d="M-214.3,476c0.2,0.1,0.4,0.1,0.7,0.1s0.5-0.1,0.7-0.2s0.2-0.3,0.2-0.6c0-0.3-0.1-0.6-0.4-0.6
			c-0.2,0-0.5,0-0.8,0h-0.4v-0.3h0.6c0.2,0,0.3,0,0.5-0.1c0.3-0.1,0.4-0.3,0.4-0.6c0-0.1-0.1-0.3-0.2-0.4c-0.1-0.1-0.3-0.1-0.6-0.1
			s-0.6,0.1-0.8,0.1l-0.1-0.3c0.2,0,0.6-0.1,0.9-0.1s0.6,0.1,0.8,0.2c0.2,0.2,0.3,0.4,0.3,0.7c0,0.3-0.1,0.6-0.4,0.8
			c0.3,0.2,0.4,0.5,0.4,0.8c0,0.3-0.1,0.6-0.4,0.8c-0.2,0.2-0.6,0.2-0.9,0.2c-0.3,0-0.6-0.1-0.8-0.1L-214.3,476z"/>
		<path class="st0" d="M-209.4,474.2v0.8c0,0.8-0.3,1.5-1.2,1.5c-0.8,0-1.1-0.7-1.1-1.5c0-0.3,0-0.5,0-0.7c0-0.8,0.3-1.4,1.2-1.3
			C-209.7,472.9-209.4,473.5-209.4,474.2z M-211.3,474.2c0,0.2,0,0.5,0,0.7c0,0.5,0.2,1,0.8,1.1c0.6,0,0.8-0.5,0.8-1.1v-0.8
			c0-0.5-0.2-0.9-0.7-0.9C-211.1,473.2-211.3,473.7-211.3,474.2z"/>
	</g>
	<g id="XMLID_361_" class="st1">
		<path class="st0" d="M-216.5,491.9h1.4v0.3h-1.4V491.9z"/>
		<path class="st0" d="M-212.4,492.5h-0.4v0.9h-0.3v-0.9h-1.6v-0.3l1.6-2.3h0.3v2.2h0.4V492.5z M-213.2,492.1v-1.6l-1.2,1.6
			C-214,492.1-213.6,492.1-213.2,492.1z"/>
		<path class="st0" d="M-209.4,491.2v0.8c0,0.8-0.3,1.5-1.2,1.5c-0.8,0-1.1-0.7-1.1-1.5c0-0.3,0-0.5,0-0.7c0-0.8,0.3-1.4,1.2-1.3
			C-209.7,489.9-209.4,490.5-209.4,491.2z M-211.3,491.2c0,0.2,0,0.5,0,0.7c0,0.5,0.2,1,0.8,1.1c0.6,0,0.8-0.5,0.8-1.1v-0.8
			c0-0.5-0.2-0.9-0.7-0.9C-211.1,490.2-211.3,490.7-211.3,491.2z"/>
	</g>
	<g id="XMLID_326_" class="st1">
		<path class="st0" d="M-216.5,510.1h1.4v0.3h-1.4V510.1z"/>
		<path class="st0" d="M-214.4,511.2c0.2,0.1,0.4,0.1,0.7,0.1s0.5-0.1,0.7-0.2c0.1-0.1,0.2-0.3,0.2-0.6c0-0.1,0-0.2-0.1-0.3
			c-0.1-0.4-0.5-0.4-0.9-0.4c-0.1,0-0.2,0-0.3,0s-0.4,0-0.4,0l0.2-1.7h1.7v0.3h-1.4c0,0.4-0.1,0.6-0.1,1c0,0,0,0,0.1,0s0.2,0,0.3,0
			c0.5,0,1,0.1,1.2,0.7c0,0.1,0.1,0.3,0.1,0.4c0,0.3-0.1,0.6-0.4,0.8c-0.2,0.2-0.6,0.2-0.9,0.2c-0.3,0-0.6-0.1-0.8-0.1L-214.4,511.2
			z"/>
		<path class="st0" d="M-209.4,509.3v0.8c0,0.8-0.3,1.5-1.2,1.5c-0.8,0-1.1-0.7-1.1-1.5c0-0.3,0-0.5,0-0.7c0-0.8,0.3-1.4,1.2-1.3
			C-209.7,508.1-209.4,508.7-209.4,509.3z M-211.3,509.4c0,0.2,0,0.5,0,0.7c0,0.5,0.2,1,0.8,1.1c0.6,0,0.8-0.5,0.8-1.1v-0.8
			c0-0.5-0.2-0.9-0.7-0.9C-211.1,508.4-211.3,508.8-211.3,509.4z"/>
	</g>
	<g id="XMLID_254_" class="st1">
		<path class="st0" d="M-216.5,527.1h1.4v0.3h-1.4V527.1z"/>
		<path class="st0" d="M-212.6,525.5h-0.1c-0.2,0-0.5-0.1-0.7-0.1c-0.4,0-0.8,0.1-0.8,0.8c0,0,0,0.1,0,0.3c0.3-0.1,0.6-0.1,0.8-0.1
			c0.8,0,1,0.4,1.1,0.9v0.2c0,0.5-0.1,0.7-0.3,0.9l0,0c-0.2,0.2-0.5,0.3-0.8,0.3s-0.5-0.1-0.7-0.2c-0.3-0.2-0.4-0.7-0.4-1.2v-1.1
			c0.1-0.8,0.6-1.1,1.2-1.1c0.2,0,0.5,0.1,0.8,0.1l0,0h0.1L-212.6,525.5z M-214.3,526.8c0,0.2,0,0.4,0,0.4c0,0.4,0.1,0.8,0.3,0.9
			l0,0c0.1,0.1,0.3,0.1,0.5,0.1s0.4-0.1,0.5-0.1c0.1-0.1,0.2-0.3,0.2-0.7c0-0.1,0-0.1,0-0.2c0-0.3-0.2-0.6-0.8-0.6
			C-213.7,526.7-214,526.8-214.3,526.8z"/>
		<path class="st0" d="M-209.4,526.3v0.8c0,0.8-0.3,1.5-1.2,1.5c-0.8,0-1.1-0.7-1.1-1.5c0-0.3,0-0.5,0-0.7c0-0.8,0.3-1.4,1.2-1.3
			C-209.7,525.1-209.4,525.7-209.4,526.3z M-211.3,526.4c0,0.2,0,0.5,0,0.7c0,0.5,0.2,1,0.8,1.1c0.6,0,0.8-0.5,0.8-1.1v-0.8
			c0-0.5-0.2-0.9-0.7-0.9C-211.1,525.4-211.3,525.9-211.3,526.4z"/>
	</g>
	<g id="XMLID_200_" class="st1">
		<path class="st0" d="M-216.5,545.2h1.4v0.3h-1.4V545.2z"/>
		<path class="st0" d="M-214.5,543.3h2.2v0.3l-1.4,3.2l-0.3-0.1l1.3-3c-0.6,0-1.2,0-1.8,0V543.3L-214.5,543.3z"/>
		<path class="st0" d="M-209.4,544.5v0.8c0,0.8-0.3,1.5-1.2,1.5c-0.8,0-1.1-0.7-1.1-1.5c0-0.3,0-0.5,0-0.7c0-0.8,0.3-1.4,1.2-1.3
			C-209.7,543.3-209.4,543.9-209.4,544.5z M-211.3,544.6c0,0.2,0,0.5,0,0.7c0,0.5,0.2,1,0.8,1.1c0.6,0,0.8-0.5,0.8-1.1v-0.8
			c0-0.5-0.2-0.9-0.7-0.9C-211.1,543.6-211.3,544-211.3,544.6z"/>
	</g>
	<g id="XMLID_84_" class="st1">
		<path class="st0" d="M-216.5,562.3h1.4v0.3h-1.4V562.3z"/>
		<path class="st0" d="M-212.7,561.9c0.2,0.1,0.4,0.4,0.4,0.8c0,0.8-0.6,1.1-1.2,1.1s-1.2-0.3-1.2-1c0-0.4,0.2-0.7,0.5-0.9
			c-0.2-0.1-0.4-0.3-0.4-0.8c0-0.7,0.6-0.9,1.1-0.9c0.6,0,1.1,0.2,1.1,0.9C-212.4,561.6-212.5,561.8-212.7,561.9z M-213.4,562.1
			L-213.4,562.1c-0.5,0-0.9,0.2-0.9,0.7s0.4,0.7,0.9,0.7c0.4,0,0.8-0.2,0.8-0.8C-212.7,562.2-213.1,562.1-213.4,562.1z
			 M-213.5,560.6c-0.4,0-0.8,0.1-0.8,0.6s0.4,0.6,0.8,0.6l0,0c0.3,0,0.8-0.1,0.8-0.5C-212.7,560.7-213.1,560.6-213.5,560.6z"/>
		<path class="st0" d="M-209.4,561.5v0.8c0,0.8-0.3,1.5-1.2,1.5c-0.8,0-1.1-0.7-1.1-1.5c0-0.3,0-0.5,0-0.7c0-0.8,0.3-1.4,1.2-1.3
			C-209.7,560.3-209.4,560.9-209.4,561.5z M-211.3,561.6c0,0.2,0,0.5,0,0.7c0,0.5,0.2,1,0.8,1.1c0.6,0,0.8-0.5,0.8-1.1v-0.8
			c0-0.5-0.2-0.9-0.7-0.9C-211.1,560.6-211.3,561-211.3,561.6z"/>
	</g>
	<g id="XMLID_83_" class="st1">
		<path class="st0" d="M-216.5,580.4h1.4v0.3h-1.4V580.4z"/>
		<path class="st0" d="M-214.4,581.5h0.1c0.2,0.1,0.5,0.1,0.7,0.1c0.4,0,0.8-0.1,0.8-0.8v-0.3c-0.3,0.1-0.6,0.1-0.8,0.1
			c-0.8,0-1-0.4-1.1-0.9c0-0.1,0-0.1,0-0.2c0-0.5,0.1-0.7,0.3-0.9c0.2-0.2,0.5-0.3,0.8-0.3s0.5,0.1,0.7,0.2l0,0
			c0.3,0.2,0.4,0.7,0.4,1.2v0.7c0,0.2,0,0.4,0,0.4l0,0c-0.1,0.9-0.6,1.1-1.2,1.1c-0.3,0-0.5-0.1-0.8-0.1l0,0h-0.1L-214.4,581.5z
			 M-212.7,580.2v-0.4c0-0.4-0.1-0.8-0.3-0.9c-0.1-0.1-0.3-0.1-0.5-0.1s-0.4,0.1-0.5,0.1c-0.1,0.1-0.2,0.3-0.2,0.7v0.2
			c0,0.3,0.2,0.6,0.8,0.6C-213.3,580.3-213.1,580.3-212.7,580.2z"/>
		<path class="st0" d="M-209.4,579.7v0.8c0,0.8-0.3,1.5-1.2,1.5c-0.8,0-1.1-0.7-1.1-1.5c0-0.3,0-0.5,0-0.7c0-0.8,0.3-1.4,1.2-1.3
			C-209.7,578.5-209.4,579-209.4,579.7z M-211.3,579.8c0,0.2,0,0.5,0,0.7c0,0.5,0.2,1,0.8,1.1c0.6,0,0.8-0.5,0.8-1.1v-0.8
			c0-0.5-0.2-0.9-0.7-0.9C-211.1,578.8-211.3,579.2-211.3,579.8z"/>
	</g>
</g>
</svg>
