<?xml version="1.0" encoding="utf-8"?>
<!-- Generator: Adobe Illustrator 21.0.0, SVG Export Plug-In . SVG Version: 6.00 Build 0)  -->
<svg version="1.0" id="图层_1" xmlns="http://www.w3.org/2000/svg" xmlns:xlink="http://www.w3.org/1999/xlink" x="0px" y="0px"
	 viewBox="0 0 335 199.8" style="enable-background:new 0 0 335 199.8;" xml:space="preserve">
<style type="text/css">
	.st0{fill:#FFFFFF;}
	.st1{fill:#F2F632;}
	.st2{fill:#8A901C;}
</style>
<g id="XMLID_255_">
	<polygon class="st0" points="174.5,16.2 167.4,28.5 160.4,16.2 	"/>
</g>
<g id="XMLID_257_">
	<polygon class="st0" points="160.4,46.3 167.4,34 174.5,46.3 	"/>
</g>
<g id="XMLID_260_">
	<polygon class="st0" points="160.3,48.6 158.1,52.5 177.2,52.5 175,48.6 	"/>
</g>
<g>
	<g>
		<polygon id="XMLID_282_" class="st1" points="167.1,162.7 167.1,183.7 111.9,191.5 		"/>
		<polygon id="XMLID_267_" class="st2" points="167.1,174.7 167.1,183.7 111.9,191.5 		"/>
		<polygon id="XMLID_284_" class="st1" points="167.1,162.7 167.1,183.7 222.1,191.5 		"/>
		<polygon id="XMLID_283_" class="st2" points="167.1,174.7 167.1,183.7 222.1,191.5 		"/>
	</g>
	<g>
		<polygon id="XMLID_286_" class="st1" points="264.3,163.8 322.9,163.8 322.9,157.7 267.6,157.7 		"/>
		<polygon id="XMLID_293_" class="st2" points="264.3,163.8 322.9,163.8 322.9,170 267.6,170 		"/>
	</g>
	<polygon id="XMLID_297_" class="st2" points="71.8,163.8 13.2,163.8 13.2,170 68.5,170 	"/>
	<polygon id="XMLID_296_" class="st1" points="71.8,163.8 13.2,163.8 13.2,157.7 68.5,157.7 	"/>
</g>
</svg>
