<?xml version="1.0" encoding="utf-8"?>
<!-- Generator: Adobe Illustrator 19.0.0, SVG Export Plug-In . SVG Version: 6.00 Build 0)  -->
<svg version="1.0" id="图层_1" xmlns="http://www.w3.org/2000/svg" xmlns:xlink="http://www.w3.org/1999/xlink" x="0px" y="0px"
	 viewBox="0 0 303.8 303" style="enable-background:new 0 0 303.8 303;" xml:space="preserve">
<style type="text/css">
	.st0{fill:#FFFFFF;stroke:#FFFFFF;stroke-linecap:square;stroke-linejoin:bevel;stroke-miterlimit:10;}
	.st1{font-family:'RTWSYueGoDemo-Regular-GBpc-EUC-H';}
	.st2{font-size:19.0009px;}
	.st3{font-size:19px;}
	.st4{font-size:18.9994px;}
	.st5{fill:none;stroke:#FFFFFF;stroke-width:3;stroke-linecap:square;stroke-linejoin:bevel;stroke-miterlimit:10;}
	.st6{fill:#FFFFFF;}
	.st7{fill:#5D5D5D;}
	.st8{enable-background:new    ;}
</style>
<g>
	<text id="XMLID_208_" transform="matrix(0.9066 0.4221 -0.4221 0.9066 196.8568 62.265)" class="st0 st1 st2">3</text>
	<text id="XMLID_209_" transform="matrix(-0.9066 -0.4221 0.4221 -0.9066 114.2191 242.4416)" class="st0 st1 st2">21</text>
	<text id="XMLID_210_" transform="matrix(0.5421 0.8403 -0.8403 0.5421 234.4279 94.5846)" class="st0 st1 st3">6</text>
	<text id="XMLID_207_" transform="matrix(-0.5327 -0.8463 0.8463 -0.5327 72.9955 210.5949)" class="st0 st1 st3">24</text>
	<text id="XMLID_212_" transform="matrix(3.785580e-002 0.9993 -0.9993 3.785580e-002 251.9388 144.1077)" class="st0 st1 st3">E</text>
	<text id="XMLID_211_" transform="matrix(-3.785580e-002 -0.9993 0.9993 -3.785580e-002 53.7878 158.4751)" class="st0 st1 st3">W</text>
	<text id="XMLID_214_" transform="matrix(-0.4328 0.9015 -0.9015 -0.4328 243.844 191.1717)" class="st0 st1 st3">12</text>
	<text id="XMLID_213_" transform="matrix(0.4328 -0.9015 0.9015 0.4328 61.884 111.4113)" class="st0 st1 st3">30</text>
	<text id="XMLID_218_" transform="matrix(-0.9998 1.983323e-002 -1.983323e-002 -0.9998 158.2592 250.4801)" class="st0 st1 st3">S</text>
	<text id="XMLID_217_" transform="matrix(0.9998 -1.983323e-002 1.983323e-002 0.9998 147.4666 52.1029)" class="st0 st1 st3">N</text>
	<text id="XMLID_216_" transform="matrix(-0.8271 0.562 -0.562 -0.8271 211.4942 231.4785)" class="st0 st1 st4">15</text>
	<text id="XMLID_215_" transform="matrix(0.8271 -0.562 0.562 0.8271 94.2323 71.1063)" class="st0 st1 st4">33</text>
</g>
<g>
	<g id="XMLID_98_">
		<line id="XMLID_104_" class="st5" x1="154" y1="16" x2="154.2" y2="0"/>
		<line id="XMLID_105_" class="st5" x1="150.4" y1="303" x2="150.6" y2="287"/>
	</g>
	<g id="XMLID_1_">
		<line id="XMLID_4_" class="st5" x1="287.8" y1="153.2" x2="303.8" y2="153.4"/>
		<line id="XMLID_3_" class="st5" x1="0.8" y1="149.6" x2="16.8" y2="149.8"/>
	</g>
	<g id="XMLID_8_">
		<line id="XMLID_10_" class="st5" x1="249.3" y1="56.9" x2="260.7" y2="45.7"/>
		<line id="XMLID_9_" class="st5" x1="43.9" y1="257.3" x2="55.3" y2="246.1"/>
	</g>
	<g id="XMLID_5_">
		<line id="XMLID_7_" class="st5" x1="246.9" y1="248.5" x2="258.1" y2="259.9"/>
		<line id="XMLID_6_" class="st5" x1="46.5" y1="43.1" x2="57.7" y2="54.5"/>
	</g>
	<g id="XMLID_169_">
		<g id="XMLID_115_">
			<line id="XMLID_117_" class="st5" x1="153.9" y1="32.1" x2="154.1" y2="18"/>
			<line id="XMLID_116_" class="st5" x1="150.9" y1="284.4" x2="151.1" y2="270.2"/>
		</g>
		<g id="XMLID_118_">
			<line id="XMLID_120_" class="st5" x1="171.5" y1="33.7" x2="173.8" y2="19.7"/>
			<line id="XMLID_119_" class="st5" x1="131.2" y1="282.7" x2="133.5" y2="268.7"/>
		</g>
		<g id="XMLID_121_">
			<line id="XMLID_123_" class="st5" x1="192.7" y1="39.1" x2="197.4" y2="25.8"/>
			<line id="XMLID_122_" class="st5" x1="107.5" y1="276.6" x2="112.3" y2="263.3"/>
		</g>
		<g id="XMLID_124_">
			<line id="XMLID_126_" class="st5" x1="212.5" y1="48.3" x2="219.6" y2="36.1"/>
			<line id="XMLID_125_" class="st5" x1="85.4" y1="266.2" x2="92.5" y2="254"/>
		</g>
		<g id="XMLID_127_">
			<line id="XMLID_129_" class="st5" x1="229.6" y1="60.4" x2="238.7" y2="49.7"/>
			<line id="XMLID_128_" class="st5" x1="66.3" y1="252.7" x2="75.4" y2="241.9"/>
		</g>
		<g id="XMLID_130_">
			<line id="XMLID_132_" class="st5" x1="244.3" y1="75.3" x2="255.2" y2="66.3"/>
			<line id="XMLID_131_" class="st5" x1="49.8" y1="236" x2="60.7" y2="227"/>
		</g>
		<g id="XMLID_133_">
			<line id="XMLID_135_" class="st5" x1="256.1" y1="92.6" x2="268.4" y2="85.6"/>
			<line id="XMLID_134_" class="st5" x1="36.6" y1="216.8" x2="48.8" y2="209.8"/>
		</g>
		<g id="XMLID_136_">
			<line id="XMLID_138_" class="st5" x1="264.8" y1="111.6" x2="278.1" y2="106.9"/>
			<line id="XMLID_137_" class="st5" x1="26.9" y1="195.4" x2="40.2" y2="190.7"/>
		</g>
		<g id="XMLID_139_">
			<line id="XMLID_141_" class="st5" x1="270" y1="131.9" x2="283.9" y2="129.6"/>
			<line id="XMLID_140_" class="st5" x1="21.1" y1="172.8" x2="35" y2="170.5"/>
		</g>
		<g id="XMLID_142_">
			<line id="XMLID_144_" class="st5" x1="271.5" y1="152.8" x2="285.7" y2="153"/>
			<line id="XMLID_143_" class="st5" x1="19.3" y1="149.4" x2="33.4" y2="149.6"/>
		</g>
		<g id="XMLID_145_">
			<line id="XMLID_147_" class="st5" x1="269.4" y1="173.6" x2="283.3" y2="176.3"/>
			<line id="XMLID_146_" class="st5" x1="21.7" y1="126.1" x2="35.6" y2="128.8"/>
		</g>
		<g id="XMLID_148_">
			<line id="XMLID_150_" class="st5" x1="263.7" y1="193.7" x2="276.9" y2="198.8"/>
			<line id="XMLID_149_" class="st5" x1="28.1" y1="103.6" x2="41.3" y2="108.6"/>
		</g>
		<g id="XMLID_151_">
			<line id="XMLID_153_" class="st5" x1="254.5" y1="212.6" x2="266.6" y2="219.8"/>
			<line id="XMLID_152_" class="st5" x1="38.4" y1="82.5" x2="50.5" y2="89.8"/>
		</g>
		<g id="XMLID_154_">
			<line id="XMLID_156_" class="st5" x1="242.2" y1="229.5" x2="252.8" y2="238.8"/>
			<line id="XMLID_155_" class="st5" x1="52.1" y1="63.6" x2="62.8" y2="72.9"/>
		</g>
		<g id="XMLID_157_">
			<line id="XMLID_159_" class="st5" x1="227.1" y1="244" x2="235.9" y2="255"/>
			<line id="XMLID_158_" class="st5" x1="69" y1="47.4" x2="77.9" y2="58.4"/>
		</g>
		<g id="XMLID_160_">
			<line id="XMLID_162_" class="st5" x1="209.7" y1="255.6" x2="216.5" y2="268"/>
			<line id="XMLID_161_" class="st5" x1="88.5" y1="34.4" x2="95.3" y2="46.8"/>
		</g>
		<g id="XMLID_163_">
			<line id="XMLID_165_" class="st5" x1="190.5" y1="264" x2="195" y2="277.4"/>
			<line id="XMLID_164_" class="st5" x1="109.9" y1="25" x2="114.5" y2="38.4"/>
		</g>
		<g id="XMLID_166_">
			<line id="XMLID_168_" class="st5" x1="170.2" y1="268.9" x2="172.3" y2="282.9"/>
			<line id="XMLID_167_" class="st5" x1="132.7" y1="19.5" x2="134.8" y2="33.4"/>
		</g>
	</g>
	<circle id="XMLID_90_" class="st5" cx="153.2" cy="150" r="75"/>
	<path id="XMLID_101_" class="st6" d="M169.2,151.7v-2.6c0-0.7-0.4-1.2-1-1.5l-9.1-4.5c-0.6-0.3-1-0.9-1-1.5v-4.9
		c0-0.5-0.2-1-0.7-1.4l-3.3-2.5c-0.6-0.5-1.5-0.5-2.1,0l-3.3,2.5c-0.4,0.3-0.7,0.8-0.7,1.4v4.9c0,0.7-0.4,1.2-1,1.5l-9.1,4.5
		c-0.6,0.3-1,0.9-1,1.5v2.6c0,1,0.9,1.8,1.9,1.7l7.2-0.7c1-0.1,1.9,0.7,1.9,1.7v5.5c0,0.4-0.1,0.7-0.3,1l-2.3,3.1
		c-0.2,0.3-0.3,0.7-0.3,1v0.7c0,0.9,0.8,1.7,1.7,1.7h6.3h6.3c0.9,0,1.7-0.8,1.7-1.7V165c0-0.4-0.1-0.7-0.3-1l-2.3-3.1
		c-0.2-0.3-0.3-0.7-0.3-1v-5.5c0-1,0.9-1.8,1.9-1.7l7.2,0.7C168.3,153.5,169.2,152.7,169.2,151.7z"/>
	<path id="XMLID_172_" class="st5" d="M281.7,118.5l-8.1,2.1L281.7,118.5"/>
	<path id="XMLID_173_" class="st5" d="M285.4,141.6l-8.3,0.6L285.4,141.6"/>
	<path id="XMLID_175_" class="st5" d="M280.6,188l-8.1-2.3L280.6,188"/>
	<path id="XMLID_176_" class="st5" d="M272.1,209.9l-7.5-3.7L272.1,209.9"/>
	<path id="XMLID_177_" class="st5" d="M260,229.9l-6.7-4.9L260,229.9"/>
	<path id="XMLID_178_" class="st5" d="M244.5,247.5l-5.8-6L244.5,247.5"/>
	<path id="XMLID_179_" class="st5" d="M226.3,262.2l-4.6-7L226.3,262.2"/>
	<path id="XMLID_180_" class="st5" d="M205.7,273.4l-3.3-7.7L205.7,273.4"/>
	<path id="XMLID_181_" class="st5" d="M183.5,280.8l-1.9-8.1L183.5,280.8"/>
	<path id="XMLID_171_" class="st5" d="M160.3,284.2l-0.5-8.3L160.3,284.2"/>
	<path id="XMLID_183_" class="st5" d="M138.9,283.7l0.9-8.3L138.9,283.7"/>
	<path id="XMLID_184_" class="st5" d="M119.4,280.3l2.1-8.1L119.4,280.3"/>
	<path id="XMLID_185_" class="st5" d="M96.4,272.1l3.5-7.6L96.4,272.1"/>
	<path id="XMLID_186_" class="st5" d="M75.2,259.7l4.8-6.8L75.2,259.7"/>
	<path id="XMLID_187_" class="st5" d="M57.4,244.5l6-5.8L57.4,244.5"/>
	<path id="XMLID_188_" class="st5" d="M42.5,226.5l6.9-4.7L42.5,226.5"/>
	<path id="XMLID_189_" class="st5" d="M31,206l7.6-3.4L31,206"/>
	<path id="XMLID_182_" class="st5" d="M23.3,183.9l8.1-2.1L23.3,183.9"/>
	<path id="XMLID_170_" class="st5" d="M19.6,160.8l8.3-0.6L19.6,160.8"/>
	<path id="XMLID_192_" class="st5" d="M20,137.4l8.3,0.9L20,137.4"/>
	<path id="XMLID_193_" class="st5" d="M24.4,114.4l8.1,2.3L24.4,114.4"/>
	<path id="XMLID_194_" class="st5" d="M32.8,92.5l7.5,3.7L32.8,92.5"/>
	<path id="XMLID_195_" class="st5" d="M45,72.5l6.7,4.9L45,72.5"/>
	<path id="XMLID_196_" class="st5" d="M60.4,54.9l5.8,6L60.4,54.9"/>
	<path id="XMLID_197_" class="st5" d="M78.7,40.2l4.6,7L78.7,40.2"/>
	<path id="XMLID_198_" class="st5" d="M100.7,28.4l3.3,7.7L100.7,28.4"/>
	<path id="XMLID_199_" class="st5" d="M121.5,21.6l1.9,8.1L121.5,21.6"/>
	<path id="XMLID_191_" class="st5" d="M144.7,18.2l0.5,8.3L144.7,18.2"/>
	<path id="XMLID_201_" class="st5" d="M166.1,18.6l-0.9,8.3L166.1,18.6"/>
	<path id="XMLID_202_" class="st5" d="M185.6,22.1l-2.1,8.1L185.6,22.1"/>
	<path id="XMLID_203_" class="st5" d="M208.6,30.3l-3.5,7.6L208.6,30.3"/>
	<path id="XMLID_204_" class="st5" d="M229.7,42.6l-4.8,6.8L229.7,42.6"/>
	<path id="XMLID_205_" class="st5" d="M247.6,57.8l-6,5.8L247.6,57.8"/>
	<path id="XMLID_206_" class="st5" d="M262.4,75.9l-6.9,4.7L262.4,75.9"/>
	<path id="XMLID_190_" class="st5" d="M273.9,96.3l-7.6,3.4L273.9,96.3"/>
	<circle id="XMLID_200_" class="st5" cx="152.3" cy="151.5" r="134.4"/>
	<line id="XMLID_2_" class="st5" x1="285.3" y1="165" x2="275.3" y2="164"/>
</g>
<g>
	<g id="XMLID_234_">
		<g id="XMLID_236_">
			<path class="st7" d="M697.9,666.1C697.9,666.1,697.9,666.1,697.9,666.1c-0.6,0-1-0.5-1-1l0.2-16c0-0.5,0.5-1,1-1c0,0,0,0,0,0
				c0.6,0,1,0.5,1,1l-0.2,16C698.9,665.7,698.5,666.1,697.9,666.1z"/>
		</g>
		<g id="XMLID_235_">
			<path class="st7" d="M694.3,953.1C694.3,953.1,694.3,953.1,694.3,953.1c-0.6,0-1-0.5-1-1l0.2-16c0-0.5,0.5-1,1-1c0,0,0,0,0,0
				c0.6,0,1,0.5,1,1l-0.2,16C695.3,952.7,694.9,953.1,694.3,953.1z"/>
		</g>
	</g>
	<g id="XMLID_231_">
		<g id="XMLID_233_">
			<path class="st7" d="M847.7,803.5C847.7,803.5,847.7,803.5,847.7,803.5l-16-0.2c-0.6,0-1-0.5-1-1c0-0.5,0.5-1,1-1c0,0,0,0,0,0
				l16,0.2c0.6,0,1,0.5,1,1C848.7,803.1,848.3,803.5,847.7,803.5z"/>
		</g>
		<g id="XMLID_232_">
			<path class="st7" d="M560.7,799.9C560.7,799.9,560.7,799.9,560.7,799.9l-16-0.2c-0.6,0-1-0.5-1-1c0-0.5,0.5-1,1-1c0,0,0,0,0,0
				l16,0.2c0.6,0,1,0.5,1,1C561.7,799.5,561.3,799.9,560.7,799.9z"/>
		</g>
	</g>
	<g id="XMLID_228_">
		<g id="XMLID_230_">
			<path class="st7" d="M793.2,707c-0.3,0-0.5-0.1-0.7-0.3c-0.4-0.4-0.4-1,0-1.4l11.4-11.2c0.4-0.4,1-0.4,1.4,0c0.4,0.4,0.4,1,0,1.4
				l-11.4,11.2C793.7,706.9,793.5,707,793.2,707z"/>
		</g>
		<g id="XMLID_229_">
			<path class="st7" d="M587.8,907.4c-0.3,0-0.5-0.1-0.7-0.3c-0.4-0.4-0.4-1,0-1.4l11.4-11.2c0.4-0.4,1-0.4,1.4,0
				c0.4,0.4,0.4,1,0,1.4l-11.4,11.2C588.3,907.3,588.1,907.4,587.8,907.4z"/>
		</g>
	</g>
	<g id="XMLID_225_">
		<g id="XMLID_227_">
			<path class="st7" d="M802,910c-0.3,0-0.5-0.1-0.7-0.3l-11.2-11.4c-0.4-0.4-0.4-1,0-1.4c0.4-0.4,1-0.4,1.4,0l11.2,11.4
				c0.4,0.4,0.4,1,0,1.4C802.5,909.9,802.3,910,802,910z"/>
		</g>
		<g id="XMLID_226_">
			<path class="st7" d="M601.6,704.6c-0.3,0-0.5-0.1-0.7-0.3l-11.2-11.4c-0.4-0.4-0.4-1,0-1.4c0.4-0.4,1-0.4,1.4,0l11.2,11.4
				c0.4,0.4,0.4,1,0,1.4C602.1,704.5,601.9,704.6,601.6,704.6z"/>
		</g>
	</g>
	<g id="XMLID_62_">
		<g id="XMLID_222_">
			<g id="XMLID_224_">
				<path class="st7" d="M697.8,682.2C697.8,682.2,697.8,682.2,697.8,682.2c-0.6,0-1-0.5-1-1l0.2-14.1c0-0.6,0.5-1,1-1
					c0.6,0,1,0.5,1,1l-0.2,14.1C698.8,681.8,698.4,682.2,697.8,682.2z"/>
			</g>
			<g id="XMLID_223_">
				<path class="st7" d="M694.8,934.5C694.8,934.5,694.8,934.5,694.8,934.5c-0.6,0-1-0.5-1-1l0.2-14.2c0-0.5,0.5-1,1-1c0,0,0,0,0,0
					c0.6,0,1,0.5,1,1l-0.2,14.2C695.8,934.1,695.4,934.5,694.8,934.5z"/>
			</g>
		</g>
		<g id="XMLID_219_">
			<g id="XMLID_221_">
				<path class="st7" d="M715.4,683.8c-0.1,0-0.1,0-0.2,0c-0.5-0.1-0.9-0.6-0.8-1.1l2.3-14c0.1-0.5,0.6-0.9,1.1-0.8
					c0.5,0.1,0.9,0.6,0.8,1.1l-2.3,14C716.3,683.5,715.9,683.8,715.4,683.8z"/>
			</g>
			<g id="XMLID_220_">
				<path class="st7" d="M675.1,932.8c-0.1,0-0.1,0-0.2,0c-0.5-0.1-0.9-0.6-0.8-1.1l2.3-14c0.1-0.5,0.6-0.9,1.1-0.8
					c0.5,0.1,0.9,0.6,0.8,1.1l-2.3,14C676,932.5,675.6,932.8,675.1,932.8z"/>
			</g>
		</g>
		<g id="XMLID_113_">
			<g id="XMLID_174_">
				<path class="st7" d="M736.6,689.2c-0.1,0-0.2,0-0.3-0.1c-0.5-0.2-0.8-0.8-0.6-1.3l4.7-13.3c0.2-0.5,0.8-0.8,1.3-0.6
					c0.5,0.2,0.8,0.8,0.6,1.3l-4.7,13.3C737.4,688.9,737,689.2,736.6,689.2z"/>
			</g>
			<g id="XMLID_114_">
				<path class="st7" d="M651.4,926.7c-0.1,0-0.2,0-0.3-0.1c-0.5-0.2-0.8-0.8-0.6-1.3l4.8-13.3c0.2-0.5,0.8-0.8,1.3-0.6
					c0.5,0.2,0.8,0.8,0.6,1.3l-4.8,13.3C652.2,926.4,651.8,926.7,651.4,926.7z"/>
			</g>
		</g>
		<g id="XMLID_110_">
			<g id="XMLID_112_">
				<path class="st7" d="M756.4,698.4c-0.2,0-0.3,0-0.5-0.1c-0.5-0.3-0.6-0.9-0.4-1.4l7.1-12.2c0.3-0.5,0.9-0.6,1.4-0.4
					c0.5,0.3,0.6,0.9,0.4,1.4l-7.1,12.2C757.1,698.2,756.8,698.4,756.4,698.4z"/>
			</g>
			<g id="XMLID_111_">
				<path class="st7" d="M629.3,916.3c-0.2,0-0.3,0-0.5-0.1c-0.5-0.3-0.6-0.9-0.4-1.4l7.1-12.2c0.3-0.5,0.9-0.6,1.4-0.4
					s0.6,0.9,0.4,1.4l-7.1,12.2C630,916.1,629.7,916.3,629.3,916.3z"/>
			</g>
		</g>
		<g id="XMLID_107_">
			<g id="XMLID_109_">
				<path class="st7" d="M773.5,710.5c-0.2,0-0.5-0.1-0.6-0.2c-0.4-0.4-0.5-1-0.1-1.4l9.1-10.7c0.4-0.4,1-0.5,1.4-0.1
					c0.4,0.4,0.5,1,0.1,1.4l-9.1,10.7C774.1,710.4,773.8,710.5,773.5,710.5z"/>
			</g>
			<g id="XMLID_108_">
				<path class="st7" d="M610.2,902.8c-0.2,0-0.5-0.1-0.6-0.2c-0.4-0.4-0.5-1-0.1-1.4l9.1-10.8c0.4-0.4,1-0.5,1.4-0.1
					c0.4,0.4,0.5,1,0.1,1.4l-9.1,10.8C610.8,902.7,610.5,902.8,610.2,902.8z"/>
			</g>
		</g>
		<g id="XMLID_102_">
			<g id="XMLID_106_">
				<path class="st7" d="M788.2,725.4c-0.3,0-0.6-0.1-0.8-0.4c-0.4-0.4-0.3-1.1,0.1-1.4l10.9-9c0.4-0.4,1.1-0.3,1.4,0.1
					c0.4,0.4,0.3,1.1-0.1,1.4l-10.9,9C788.7,725.3,788.4,725.4,788.2,725.4z"/>
			</g>
			<g id="XMLID_103_">
				<path class="st7" d="M593.7,886.1c-0.3,0-0.6-0.1-0.8-0.4c-0.4-0.4-0.3-1.1,0.1-1.4l10.9-9c0.4-0.3,1.1-0.3,1.4,0.1
					c0.4,0.4,0.3,1.1-0.1,1.4l-10.9,9C594.2,886,593.9,886.1,593.7,886.1z"/>
			</g>
		</g>
		<g id="XMLID_97_">
			<g id="XMLID_100_">
				<path class="st7" d="M800,742.7c-0.3,0-0.7-0.2-0.9-0.5c-0.3-0.5-0.1-1.1,0.4-1.4l12.3-7c0.5-0.3,1.1-0.1,1.4,0.4
					c0.3,0.5,0.1,1.1-0.4,1.4l-12.3,7C800.4,742.7,800.2,742.7,800,742.7z"/>
			</g>
			<g id="XMLID_99_">
				<path class="st7" d="M580.5,866.9c-0.3,0-0.7-0.2-0.9-0.5c-0.3-0.5-0.1-1.1,0.4-1.4l12.2-7c0.5-0.3,1.1-0.1,1.4,0.4
					c0.3,0.5,0.1,1.1-0.4,1.4l-12.2,7C580.9,866.9,580.7,866.9,580.5,866.9z"/>
			</g>
		</g>
		<g id="XMLID_94_">
			<g id="XMLID_96_">
				<path class="st7" d="M808.7,761.7c-0.4,0-0.8-0.3-0.9-0.7c-0.2-0.5,0.1-1.1,0.6-1.3l13.3-4.7c0.5-0.2,1.1,0.1,1.3,0.6
					c0.2,0.5-0.1,1.1-0.6,1.3l-13.3,4.7C808.9,761.7,808.8,761.7,808.7,761.7z"/>
			</g>
			<g id="XMLID_95_">
				<path class="st7" d="M570.8,845.5c-0.4,0-0.8-0.3-0.9-0.7c-0.2-0.5,0.1-1.1,0.6-1.3l13.3-4.7c0.5-0.2,1.1,0.1,1.3,0.6
					c0.2,0.5-0.1,1.1-0.6,1.3l-13.3,4.7C571,845.5,570.9,845.5,570.8,845.5z"/>
			</g>
		</g>
		<g id="XMLID_91_">
			<g id="XMLID_93_">
				<path class="st7" d="M813.9,782c-0.5,0-0.9-0.3-1-0.8c-0.1-0.5,0.3-1.1,0.8-1.1l13.9-2.3c0.5-0.1,1.1,0.3,1.1,0.8
					c0.1,0.5-0.3,1.1-0.8,1.1l-13.9,2.3C814,782,814,782,813.9,782z"/>
			</g>
			<g id="XMLID_92_">
				<path class="st7" d="M565,822.9c-0.5,0-0.9-0.3-1-0.8c-0.1-0.5,0.3-1.1,0.8-1.1l13.9-2.3c0.5-0.1,1.1,0.3,1.1,0.8
					c0.1,0.5-0.3,1.1-0.8,1.1l-13.9,2.3C565.1,822.9,565.1,822.9,565,822.9z"/>
			</g>
		</g>
		<g id="XMLID_87_">
			<g id="XMLID_89_">
				<path class="st7" d="M829.6,803.1C829.6,803.1,829.6,803.1,829.6,803.1l-14.2-0.2c-0.6,0-1-0.5-1-1c0-0.5,0.5-1,1-1c0,0,0,0,0,0
					l14.2,0.2c0.6,0,1,0.5,1,1C830.6,802.7,830.2,803.1,829.6,803.1z"/>
			</g>
			<g id="XMLID_88_">
				<path class="st7" d="M577.3,799.7C577.3,799.7,577.3,799.7,577.3,799.7l-14.1-0.2c-0.6,0-1-0.5-1-1s0.5-1,1-1l14.1,0.2
					c0.6,0,1,0.5,1,1C578.3,799.3,577.9,799.7,577.3,799.7z"/>
			</g>
		</g>
		<g id="XMLID_84_">
			<g id="XMLID_86_">
				<path class="st7" d="M827.2,826.4c-0.1,0-0.1,0-0.2,0l-13.9-2.7c-0.5-0.1-0.9-0.6-0.8-1.2c0.1-0.5,0.6-0.9,1.2-0.8l13.9,2.7
					c0.5,0.1,0.9,0.6,0.8,1.2C828.1,826.1,827.7,826.4,827.2,826.4z"/>
			</g>
			<g id="XMLID_85_">
				<path class="st7" d="M579.5,778.9c-0.1,0-0.1,0-0.2,0l-13.9-2.7c-0.5-0.1-0.9-0.6-0.8-1.2s0.6-0.9,1.2-0.8l13.9,2.7
					c0.5,0.1,0.9,0.6,0.8,1.2C580.4,778.6,580,778.9,579.5,778.9z"/>
			</g>
		</g>
		<g id="XMLID_81_">
			<g id="XMLID_83_">
				<path class="st7" d="M820.8,848.9c-0.1,0-0.2,0-0.4-0.1l-13.2-5.1c-0.5-0.2-0.8-0.8-0.6-1.3s0.8-0.8,1.3-0.6l13.2,5.1
					c0.5,0.2,0.8,0.8,0.6,1.3C821.6,848.7,821.2,848.9,820.8,848.9z"/>
			</g>
			<g id="XMLID_82_">
				<path class="st7" d="M585.2,758.7c-0.1,0-0.2,0-0.4-0.1l-13.2-5c-0.5-0.2-0.8-0.8-0.6-1.3c0.2-0.5,0.8-0.8,1.3-0.6l13.2,5
					c0.5,0.2,0.8,0.8,0.6,1.3C586,758.5,585.6,758.7,585.2,758.7z"/>
			</g>
		</g>
		<g id="XMLID_78_">
			<g id="XMLID_80_">
				<path class="st7" d="M810.5,869.9c-0.2,0-0.3,0-0.5-0.1l-12.1-7.2c-0.5-0.3-0.6-0.9-0.3-1.4c0.3-0.5,0.9-0.6,1.4-0.3L811,868
					c0.5,0.3,0.6,0.9,0.3,1.4C811.2,869.7,810.9,869.9,810.5,869.9z"/>
			</g>
			<g id="XMLID_79_">
				<path class="st7" d="M594.4,739.9c-0.2,0-0.4,0-0.5-0.1l-12.1-7.3c-0.5-0.3-0.6-0.9-0.3-1.4c0.3-0.5,0.9-0.6,1.4-0.3l12.1,7.3
					c0.5,0.3,0.6,0.9,0.3,1.4C595.1,739.7,594.8,739.9,594.4,739.9z"/>
			</g>
		</g>
		<g id="XMLID_75_">
			<g id="XMLID_77_">
				<path class="st7" d="M796.7,888.9c-0.2,0-0.5-0.1-0.7-0.2l-10.6-9.3c-0.4-0.4-0.5-1-0.1-1.4c0.4-0.4,1-0.5,1.4-0.1l10.6,9.3
					c0.4,0.4,0.5,1,0.1,1.4C797.3,888.8,797,888.9,796.7,888.9z"/>
			</g>
			<g id="XMLID_76_">
				<path class="st7" d="M606.7,723c-0.2,0-0.5-0.1-0.7-0.2l-10.7-9.3c-0.4-0.4-0.5-1-0.1-1.4c0.4-0.4,1-0.5,1.4-0.1l10.7,9.3
					c0.4,0.4,0.5,1,0.1,1.4C607.3,722.9,607,723,606.7,723z"/>
			</g>
		</g>
		<g id="XMLID_72_">
			<g id="XMLID_74_">
				<path class="st7" d="M779.8,905.1c-0.3,0-0.6-0.1-0.8-0.4l-8.8-11c-0.3-0.4-0.3-1.1,0.2-1.4c0.4-0.3,1.1-0.3,1.4,0.2l8.8,11
					c0.3,0.4,0.3,1.1-0.2,1.4C780.3,905,780,905.1,779.8,905.1z"/>
			</g>
			<g id="XMLID_73_">
				<path class="st7" d="M621.8,708.5c-0.3,0-0.6-0.1-0.8-0.4l-8.9-11c-0.3-0.4-0.3-1.1,0.1-1.4c0.4-0.3,1.1-0.3,1.4,0.1l8.9,11
					c0.3,0.4,0.3,1.1-0.1,1.4C622.3,708.4,622,708.5,621.8,708.5z"/>
			</g>
		</g>
		<g id="XMLID_69_">
			<g id="XMLID_71_">
				<path class="st7" d="M760.4,918.1c-0.4,0-0.7-0.2-0.9-0.5l-6.8-12.4c-0.3-0.5-0.1-1.1,0.4-1.4c0.5-0.3,1.1-0.1,1.4,0.4l6.8,12.4
					c0.3,0.5,0.1,1.1-0.4,1.4C760.7,918.1,760.6,918.1,760.4,918.1z"/>
			</g>
			<g id="XMLID_70_">
				<path class="st7" d="M639.2,696.9c-0.4,0-0.7-0.2-0.9-0.5l-6.8-12.4c-0.3-0.5-0.1-1.1,0.4-1.4c0.5-0.3,1.1-0.1,1.4,0.4l6.8,12.4
					c0.3,0.5,0.1,1.1-0.4,1.4C639.5,696.9,639.4,696.9,639.2,696.9z"/>
			</g>
		</g>
		<g id="XMLID_66_">
			<g id="XMLID_68_">
				<path class="st7" d="M738.9,927.5c-0.4,0-0.8-0.3-0.9-0.7l-4.5-13.4c-0.2-0.5,0.1-1.1,0.6-1.3c0.5-0.2,1.1,0.1,1.3,0.6l4.5,13.4
					c0.2,0.5-0.1,1.1-0.6,1.3C739.1,927.5,739,927.5,738.9,927.5z"/>
			</g>
			<g id="XMLID_67_">
				<path class="st7" d="M658.4,688.5c-0.4,0-0.8-0.3-0.9-0.7l-4.6-13.4c-0.2-0.5,0.1-1.1,0.6-1.3c0.5-0.2,1.1,0.1,1.3,0.6l4.6,13.4
					c0.2,0.5-0.1,1.1-0.6,1.3C658.6,688.5,658.5,688.5,658.4,688.5z"/>
			</g>
		</g>
		<g id="XMLID_63_">
			<g id="XMLID_65_">
				<path class="st7" d="M716.2,933c-0.5,0-0.9-0.4-1-0.9l-2.1-14c-0.1-0.5,0.3-1.1,0.8-1.1c0.6-0.1,1.1,0.3,1.1,0.8l2.1,14
					c0.1,0.5-0.3,1.1-0.8,1.1C716.3,933,716.3,933,716.2,933z"/>
			</g>
			<g id="XMLID_64_">
				<path class="st7" d="M678.7,683.5c-0.5,0-0.9-0.4-1-0.9l-2.1-13.9c-0.1-0.5,0.3-1.1,0.8-1.1c0.5-0.1,1.1,0.3,1.1,0.8l2.1,13.9
					c0.1,0.5-0.3,1.1-0.8,1.1C678.8,683.5,678.8,683.5,678.7,683.5z"/>
			</g>
		</g>
	</g>
	<g id="XMLID_61_" class="st8">
		<path class="st7" d="M743.5,711.2c0.5,0.5,1.3,1,2.2,1.5c0.9,0.4,1.8,0.7,2.6,0.5c0.8-0.2,1.4-0.8,1.7-1.5
			c0.4-0.9,0.3-2.1-0.5-2.7c-0.8-0.5-1.7-0.9-2.5-1.3l-1.4-0.7l0.5-1.2l2.2,1c0.6,0.2,1.2,0.5,1.8,0.6c1,0.2,1.9-0.4,2.3-1.3
			c0.3-0.6,0.3-1.3,0-1.9c-0.3-0.5-1-1-1.8-1.3c-1-0.5-2.1-0.8-3-1l0.3-1.2c0.9,0.3,2.1,0.6,3.2,1.1c1,0.5,1.9,1.1,2.4,1.9
			c0.5,1,0.5,2.1,0.1,3c-0.5,1-1.4,1.8-2.5,2c0.6,1,0.6,2.3,0.1,3.4c-0.5,1-1.4,1.9-2.6,2.2c-1,0.2-2.4-0.1-3.4-0.6
			c-1-0.5-2-1.1-2.6-1.7L743.5,711.2z"/>
	</g>
	<g id="XMLID_60_" class="st8">
		<path class="st7" d="M650.9,902.3c-1.2-0.4-2.4-0.7-3.5-1.2c-2-0.9-3.3-2.3-2.2-4.6c0.7-1.6,2.5-1.9,4.4-2.2
			c2-0.3,4.3-0.8,5.3-2.8l-5.8-2.7l0.6-1.2l6.9,3.2c-0.2,0.7-0.3,0.9-0.4,1.1c-1.3,2.8-3.9,3.3-6.3,3.7c-1.6,0.3-3.1,0.5-3.5,1.5
			c-0.6,1.4,0.2,2.3,1.6,2.9c0.9,0.4,2.1,0.8,3.3,1.1L650.9,902.3z"/>
		<path class="st7" d="M644.8,886.7l-2.2-1l-4.3,9.3l1.9,0.3l-0.2,1.3l-3.6-0.5l5-10.8l-2.3-1.1l0.5-1.2l5.7,2.6L644.8,886.7z"/>
	</g>
	<g id="XMLID_59_" class="st8">
		<path class="st7" d="M792.9,745.2l-0.2-0.4c-0.3-0.8-0.7-1.7-1.2-2.4c-0.8-1.3-2.1-2.2-4.2-1.1c-0.1,0-0.5,0.3-1,0.6
			c0.9,0.8,1.5,1.6,2,2.3c1.6,2.4,0.9,4.2-0.6,5.4l-0.6,0.4c-1.6,1-2.6,1.1-3.6,0.8l0,0c-0.9-0.2-1.8-1-2.4-2
			c-0.5-0.8-0.9-1.9-0.9-2.6c0.1-1.4,1.3-2.7,2.8-3.8l3.6-2.3c2.9-1.4,4.7-0.2,5.9,1.6c0.5,0.8,0.9,1.8,1.3,2.6l0,0l0.2,0.4
			L792.9,745.2z M785.2,742.5c-0.6,0.4-1.2,0.8-1.3,0.9c-1.3,0.8-2.3,1.8-2.3,2.8l0,0c0,0.5,0.2,1.2,0.7,1.9
			c0.5,0.7,1.1,1.3,1.6,1.4c0.7,0.2,1.4,0.1,2.6-0.6c0.2-0.1,0.4-0.2,0.6-0.4c1-0.7,1.4-1.9,0.3-3.6
			C786.8,744.2,786.2,743.4,785.2,742.5z"/>
	</g>
	<g id="XMLID_58_" class="st8">
		<path class="st7" d="M605,864.8c-0.8-0.9-1.6-1.9-2.3-2.9c-1.2-1.9-1.5-3.7,0.7-5.1c1.5-0.9,3.1-0.2,5,0.5c1.9,0.8,4,1.7,6,0.5
			l-3.4-5.4l1.1-0.7l4.1,6.5c-0.6,0.4-0.7,0.6-1,0.7c-2.6,1.6-5.1,0.6-7.3-0.3c-1.5-0.6-2.9-1.2-3.8-0.6c-1.3,0.9-1,2-0.3,3.3
			c0.5,0.9,1.4,1.8,2.1,2.7L605,864.8z"/>
		<path class="st7" d="M602.7,843.4l0.9,1.4l2.9-1.8l0.7,1.1l-2.9,1.8l3.3,5.2l-1,0.6l-10.7-0.6l-0.7-1l7.3-4.6l-0.9-1.4
			L602.7,843.4z M603.1,846.6l-5.3,3.3l7.7,0.4C604.7,849.1,603.9,847.8,603.1,846.6z"/>
	</g>
	<g id="XMLID_57_" class="st8">
		<path class="st7" d="M808,801.4l-0.2-4c0-1.2-1-2-2.6-2l-2.2,0.1l0.2,6.3l-1.3,0l-0.2-6.3l-2.9,0.1c-1.4,0.1-2.1,0.9-2.1,2
			l0.2,4.1l-1.3,0l-0.2-4.1c-0.1-1.8,1-3.2,3.3-3.4l6.4-0.2c2.4-0.1,3.8,1.2,3.9,3.2l0.2,4L808,801.4z"/>
	</g>
	<g id="XMLID_56_" class="st8">
		<path class="st7" d="M584.1,793.9l13.2,2.1l0,1.1l-7.4,3.3l7.7,2.8l0,1.1l-13,3l-0.3-1.2l10.6-2.4l-7.1-2.5l0-1.1l6.9-3.1
			l-10.7-1.7L584.1,793.9z"/>
	</g>
	<g id="XMLID_55_" class="st8">
		<path class="st7" d="M787.7,843.1l-1.1,2.2l9.2,4.4l0.3-1.9l1.3,0.2l-0.6,3.6l-10.8-5.2l-1.1,2.3l-1.2-0.6l2.7-5.6L787.7,843.1z"
			/>
		<path class="st7" d="M793.4,858c-0.4,1.2-0.7,2.4-1.2,3.5c-1,2-2.3,3.2-4.7,2.1c-1.6-0.7-1.9-2.5-2.2-4.5
			c-0.3-2.1-0.7-4.3-2.8-5.4l-2.8,5.8l-1.2-0.6l3.3-6.9c0.7,0.2,0.9,0.3,1.1,0.4c2.8,1.3,3.2,4,3.6,6.4c0.3,1.6,0.5,3.1,1.5,3.5
			c1.4,0.7,2.3-0.2,2.9-1.5c0.4-0.9,0.8-2.1,1.2-3.3L793.4,858z"/>
	</g>
	<g id="XMLID_54_" class="st8">
		<path class="st7" d="M605.7,757.7c0.5-0.5,1.1-1.3,1.5-2.2c0.4-0.9,0.7-1.8,0.5-2.6c-0.2-0.8-0.8-1.4-1.5-1.7
			c-0.9-0.5-2.1-0.3-2.7,0.5c-0.5,0.8-0.9,1.7-1.4,2.5l-0.7,1.4l-1.2-0.6l1-2.2c0.3-0.6,0.5-1.2,0.6-1.8c0.2-1-0.4-1.9-1.3-2.4
			c-0.5-0.3-1.3-0.3-1.9,0c-0.5,0.3-1,1-1.4,1.7c-0.5,1-0.8,2.1-1,3l-1.2-0.4c0.3-0.9,0.6-2.1,1.1-3.2c0.5-1,1.1-1.9,2-2.3
			c1-0.5,2.1-0.5,3,0c1,0.5,1.8,1.5,2,2.6c1-0.6,2.3-0.6,3.4-0.1c1,0.5,1.9,1.4,2.2,2.6c0.2,1-0.1,2.4-0.6,3.4c-0.5,1-1.2,2-1.7,2.6
			L605.7,757.7z"/>
		<path class="st7" d="M607.6,737.5l2.8,1.4c2.8,1.3,4.6,3.5,3,6.5c-1.5,2.8-4.3,2.5-6.8,1.3c-0.9-0.4-1.7-0.9-2.6-1.3
			c-2.7-1.3-4.1-3.5-2.6-6.3C602.7,736.7,605.3,736.4,607.6,737.5z M604.7,744.2c0.8,0.4,1.7,0.9,2.6,1.3c1.8,0.9,4,0.9,5.1-0.8
			c1-2-0.3-3.7-2.4-4.7l-2.8-1.4c-1.7-0.8-3.5-0.6-4.4,1C601.6,741.6,602.7,743.2,604.7,744.2z"/>
	</g>
	<g id="XMLID_53_" class="st8">
		<path class="st7" d="M693.7,911.4c1,0.1,2.1,0.2,3,0.2c1.7,0,3.1-0.5,3.2-2.1c0-1.3-1.4-2-3-2.7c-1.5-0.7-3-1.4-3.6-2.7
			c-0.2-0.5-0.4-1.1-0.4-1.6c0-1.8,1.3-3.3,4.6-3.3c0.8,0,1.9,0.1,3,0.3l-0.2,1.3c-1.1-0.2-2-0.3-2.8-0.2c-2.4,0-3.3,0.9-3.3,2
			c0,0.4,0.1,0.7,0.3,1.1c0.4,0.9,1.7,1.5,2.9,2.1c1.8,0.8,3.6,2,3.7,3.9c-0.1,2.5-2.1,3.3-4.4,3.4c-1.1,0-2.2-0.1-3.2-0.2
			L693.7,911.4z"/>
	</g>
	<g id="XMLID_52_" class="st8">
		<path class="st7" d="M701.9,687.8l0.3,13.4l-1.3,0l-7-10.6c0.1,3.6,0.2,7.1,0.2,10.7l-1.3,0l-0.3-13.4l1.1,0l7.2,11
			c-0.1-3.7-0.1-7.4-0.2-11.1L701.9,687.8z"/>
	</g>
	<g id="XMLID_51_" class="st8">
		<path class="st7" d="M753.9,883l-2,1.4l5.8,8.5l1.2-1.5l1,0.8l-2.3,2.8l-6.7-9.9l-2.1,1.4l-0.7-1.1l5.2-3.5L753.9,883z"/>
		<path class="st7" d="M744.6,889.4c-0.7,0.2-1.6,0.6-2.5,1.2c-0.8,0.6-1.6,1.3-1.8,2c-0.2,0.8,0,1.7,0.5,2.4
			c0.2,0.3,0.5,0.6,0.8,0.8c1.2,1,2.6,0.3,3.8-0.5c0.3-0.2,0.6-0.5,1-0.7c0.3-0.2,1.2-0.8,1.4-1l3.2,5.9l-5.3,3.6l-0.7-1.1l4.4-3
			c-0.7-1.3-1.2-2.2-1.9-3.6c0,0-0.1,0.1-0.2,0.1c-0.3,0.2-0.7,0.5-1,0.7c-1.6,1.1-3.5,1.8-5.3,0.5c-0.4-0.3-0.8-0.7-1.1-1.2
			c-0.7-1-1-2.3-0.7-3.5c0.3-1,1.3-2,2.3-2.7c1-0.7,2-1.1,2.9-1.4L744.6,889.4z"/>
	</g>
	<g id="XMLID_50_" class="st8">
		<path class="st7" d="M639.4,717.7c0.7-0.2,1.6-0.6,2.4-1.2c0.8-0.6,1.5-1.2,1.7-2c0.2-0.8,0-1.6-0.4-2.3c-0.6-0.9-1.7-1.4-2.5-0.9
			c-0.8,0.4-1.7,1-2.4,1.5l-1.3,0.9l-0.7-1.1l2-1.3c0.5-0.4,1-0.8,1.5-1.3c0.7-0.7,0.6-1.9,0.1-2.7c-0.3-0.5-1-0.9-1.7-1
			c-0.6,0-1.4,0.3-2.1,0.8c-0.9,0.6-1.8,1.4-2.4,2l-0.9-0.9c0.7-0.7,1.6-1.5,2.5-2.2c0.9-0.6,1.9-1.1,2.9-1c1.1,0.1,2.1,0.7,2.7,1.5
			c0.6,0.9,0.8,2.2,0.4,3.2c1.2,0,2.3,0.7,3,1.7c0.6,0.9,0.9,2.2,0.6,3.4c-0.3,1-1.3,2-2.3,2.7c-0.9,0.6-2,1.1-2.8,1.3L639.4,717.7z
			"/>
		<path class="st7" d="M648.9,711.3c0.7-0.2,1.6-0.6,2.4-1.2c0.8-0.6,1.5-1.2,1.7-2c0.2-0.8,0-1.6-0.4-2.3c-0.6-0.9-1.7-1.4-2.5-0.9
			c-0.8,0.4-1.7,1-2.4,1.5l-1.3,0.9l-0.7-1.1l2-1.3c0.5-0.4,1-0.8,1.5-1.3c0.7-0.7,0.6-1.9,0.1-2.7c-0.3-0.5-1-0.9-1.7-1
			c-0.6,0-1.4,0.3-2.1,0.8c-0.9,0.6-1.8,1.4-2.4,2l-0.9-0.9c0.7-0.7,1.6-1.5,2.5-2.2c0.9-0.6,1.9-1.1,2.9-1c1.1,0.1,2.1,0.7,2.7,1.5
			c0.6,0.9,0.8,2.2,0.5,3.2c1.2,0,2.3,0.7,3,1.7c0.6,0.9,0.9,2.2,0.6,3.4c-0.3,1-1.3,2-2.3,2.7c-0.9,0.6-2,1.1-2.8,1.3L648.9,711.3z
			"/>
	</g>
	<g id="XMLID_49_">
		<path class="st7" d="M697.1,875.1c-41.9,0-76-34.1-76-76c0-41.9,34.1-76,76-76s76,34.1,76,76C773.1,841,739,875.1,697.1,875.1z
			 M697.1,725.1c-40.8,0-74,33.2-74,74s33.2,74,74,74s74-33.2,74-74S737.9,725.1,697.1,725.1z"/>
	</g>
	<g id="XMLID_48_">
		<path class="st7" d="M713.1,800.8v-2.6c0-0.7-0.4-1.2-1-1.5l-9.1-4.5c-0.6-0.3-1-0.9-1-1.5v-4.9c0-0.5-0.2-1-0.7-1.4l-3.3-2.5
			c-0.6-0.5-1.5-0.5-2.1,0l-3.3,2.5c-0.4,0.3-0.7,0.8-0.7,1.4v4.9c0,0.7-0.4,1.2-1,1.5l-9.1,4.5c-0.6,0.3-1,0.9-1,1.5v2.6
			c0,1,0.9,1.8,1.9,1.7l7.2-0.7c1-0.1,1.9,0.7,1.9,1.7v5.5c0,0.4-0.1,0.7-0.3,1l-2.3,3.1c-0.2,0.3-0.3,0.7-0.3,1v0.7
			c0,0.9,0.8,1.7,1.7,1.7h6.3h6.3c0.9,0,1.7-0.8,1.7-1.7v-0.7c0-0.4-0.1-0.7-0.3-1l-2.3-3.1c-0.2-0.3-0.3-0.7-0.3-1v-5.5
			c0-1,0.9-1.8,1.9-1.7l7.2,0.7C712.2,802.6,713.1,801.8,713.1,800.8z"/>
	</g>
	<g id="XMLID_47_">
		<path class="st7" d="M817.5,770.7c-0.4,0-0.9-0.3-1-0.7c0-0.1,0-0.2,0-0.3c0-0.4,0.3-0.9,0.7-1l8.1-2.1c0.5-0.1,1.1,0.2,1.2,0.7
			c0,0.1,0,0.2,0,0.3c0,0.4-0.3,0.9-0.7,1l-8.1,2.1C817.7,770.7,817.6,770.7,817.5,770.7z"/>
	</g>
	<g id="XMLID_46_">
		<path class="st7" d="M821,792.3c-0.5,0-1-0.4-1-0.9c0,0,0,0,0-0.1c0-0.5,0.4-1,0.9-1l8.3-0.6c0.5,0,1,0.4,1.1,0.9c0,0,0,0,0,0.1
			c0,0.5-0.4,1-0.9,1L821,792.3C821.1,792.3,821,792.3,821,792.3z"/>
	</g>
	<g id="XMLID_45_">
		<path class="st7" d="M824.5,838.1c-0.1,0-0.2,0-0.3,0l-8.1-2.3c-0.4-0.1-0.7-0.5-0.7-1c0-0.1,0-0.2,0-0.3c0.2-0.5,0.7-0.8,1.2-0.7
			l8.1,2.3c0.4,0.1,0.7,0.5,0.7,1c0,0.1,0,0.2,0,0.3C825.4,837.8,825,838.1,824.5,838.1z"/>
	</g>
	<g id="XMLID_44_">
		<path class="st7" d="M816,860c-0.1,0-0.3,0-0.4-0.1l-7.5-3.7c-0.4-0.2-0.6-0.5-0.6-0.9c0-0.1,0-0.3,0.1-0.4
			c0.2-0.5,0.8-0.7,1.3-0.5l7.5,3.7c0.4,0.2,0.6,0.5,0.6,0.9c0,0.1,0,0.3-0.1,0.4C816.7,859.8,816.4,860,816,860z"/>
	</g>
	<g id="XMLID_43_">
		<path class="st7" d="M803.9,880c-0.2,0-0.4-0.1-0.6-0.2l-6.7-4.9c-0.3-0.2-0.4-0.5-0.4-0.8c0-0.2,0.1-0.4,0.2-0.6
			c0.3-0.4,1-0.5,1.4-0.2l6.7,4.9c0.3,0.2,0.4,0.5,0.4,0.8c0,0.2-0.1,0.4-0.2,0.6C804.5,879.9,804.2,880,803.9,880z"/>
	</g>
	<g id="XMLID_42_">
		<path class="st7" d="M788.4,897.6c-0.3,0-0.5-0.1-0.7-0.3l-5.8-6c-0.2-0.2-0.3-0.4-0.3-0.7c0-0.3,0.1-0.5,0.3-0.7
			c0.4-0.4,1-0.4,1.4,0l5.8,6c0.2,0.2,0.3,0.4,0.3,0.7c0,0.3-0.1,0.5-0.3,0.7C788.9,897.5,788.7,897.6,788.4,897.6z"/>
	</g>
	<g id="XMLID_41_">
		<path class="st7" d="M770.2,912.3c-0.3,0-0.6-0.2-0.8-0.5l-4.6-7c-0.1-0.2-0.2-0.4-0.2-0.5c0-0.3,0.2-0.6,0.5-0.8
			c0.5-0.3,1.1-0.2,1.4,0.3l4.6,7c0.1,0.2,0.2,0.4,0.2,0.5c0,0.3-0.2,0.6-0.5,0.8C770.6,912.2,770.4,912.3,770.2,912.3z"/>
	</g>
	<g id="XMLID_40_">
		<path class="st7" d="M749.6,923.5c-0.4,0-0.8-0.2-0.9-0.6l-3.3-7.7c-0.1-0.1-0.1-0.3-0.1-0.4c0-0.4,0.2-0.8,0.6-0.9
			c0.5-0.2,1.1,0,1.3,0.5l3.3,7.7c0.1,0.1,0.1,0.3,0.1,0.4c0,0.4-0.2,0.8-0.6,0.9C749.9,923.5,749.7,923.5,749.6,923.5z"/>
	</g>
	<g id="XMLID_39_">
		<path class="st7" d="M727.4,930.9c-0.5,0-0.9-0.3-1-0.8l-1.9-8.1c0-0.1,0-0.2,0-0.2c0-0.5,0.3-0.9,0.8-1c0.5-0.1,1.1,0.2,1.2,0.7
			l1.9,8.1c0,0.1,0,0.2,0,0.2c0,0.5-0.3,0.9-0.8,1C727.6,930.9,727.5,930.9,727.4,930.9z"/>
	</g>
	<g id="XMLID_38_">
		<path class="st7" d="M704.2,934.3c-0.5,0-1-0.4-1-0.9l-0.5-8.3c0,0,0,0,0-0.1c0-0.5,0.4-1,0.9-1c0.5,0,1,0.4,1.1,0.9l0.5,8.3
			c0,0,0,0,0,0.1C705.2,933.8,704.8,934.3,704.2,934.3C704.3,934.3,704.2,934.3,704.2,934.3z"/>
	</g>
	<g id="XMLID_37_">
		<path class="st7" d="M682.8,933.8c0,0-0.1,0-0.1,0c-0.5-0.1-0.9-0.5-0.9-1c0,0,0-0.1,0-0.1l0.9-8.3c0.1-0.5,0.6-1,1.1-0.9
			c0.5,0.1,0.9,0.5,0.9,1c0,0,0,0.1,0,0.1l-0.9,8.3C683.8,933.4,683.3,933.8,682.8,933.8z"/>
	</g>
	<g id="XMLID_36_">
		<path class="st7" d="M663.3,930.4c-0.1,0-0.2,0-0.3,0c-0.5-0.1-0.7-0.5-0.7-1c0-0.1,0-0.2,0-0.3l2.1-8.1c0.1-0.5,0.7-0.9,1.2-0.7
			c0.5,0.1,0.7,0.5,0.7,1c0,0.1,0,0.2,0,0.3l-2.1,8.1C664.2,930.1,663.8,930.4,663.3,930.4z"/>
	</g>
	<g id="XMLID_35_">
		<path class="st7" d="M640.3,922.2c-0.1,0-0.3,0-0.4-0.1c-0.4-0.2-0.6-0.5-0.6-0.9c0-0.1,0-0.3,0.1-0.4l3.5-7.6
			c0.2-0.5,0.8-0.7,1.3-0.5c0.4,0.2,0.6,0.5,0.6,0.9c0,0.1,0,0.3-0.1,0.4l-3.5,7.6C641.1,922,640.7,922.2,640.3,922.2z"/>
	</g>
	<g id="XMLID_34_">
		<path class="st7" d="M619.1,909.8c-0.2,0-0.4-0.1-0.6-0.2c-0.3-0.2-0.4-0.5-0.4-0.8c0-0.2,0.1-0.4,0.2-0.6l4.8-6.8
			c0.3-0.5,0.9-0.6,1.4-0.2c0.3,0.2,0.4,0.5,0.4,0.8c0,0.2-0.1,0.4-0.2,0.6l-4.8,6.8C619.7,909.7,619.4,909.8,619.1,909.8z"/>
	</g>
	<g id="XMLID_33_">
		<path class="st7" d="M601.3,894.6c-0.3,0-0.5-0.1-0.7-0.3c-0.2-0.2-0.3-0.4-0.3-0.7c0-0.3,0.1-0.5,0.3-0.7l6-5.8
			c0.4-0.4,1-0.4,1.4,0c0.2,0.2,0.3,0.4,0.3,0.7c0,0.3-0.1,0.5-0.3,0.7l-6,5.8C601.8,894.5,601.6,894.6,601.3,894.6z"/>
	</g>
	<g id="XMLID_32_">
		<path class="st7" d="M586.4,876.6c-0.3,0-0.6-0.2-0.8-0.4c-0.1-0.2-0.2-0.4-0.2-0.6c0-0.3,0.2-0.6,0.4-0.8l6.9-4.7
			c0.5-0.3,1.1-0.2,1.4,0.3c0.1,0.2,0.2,0.4,0.2,0.6c0,0.3-0.2,0.6-0.4,0.8l-6.9,4.7C586.8,876.5,586.6,876.6,586.4,876.6z"/>
	</g>
	<g id="XMLID_31_">
		<path class="st7" d="M574.9,856.1c-0.4,0-0.7-0.2-0.9-0.6c-0.1-0.1-0.1-0.3-0.1-0.4c0-0.4,0.2-0.7,0.6-0.9l7.6-3.4
			c0.5-0.2,1.1,0,1.3,0.5c0.1,0.1,0.1,0.3,0.1,0.4c0,0.4-0.2,0.7-0.6,0.9l-7.6,3.4C575.2,856.1,575.1,856.1,574.9,856.1z"/>
	</g>
	<g id="XMLID_30_">
		<path class="st7" d="M567.2,834c-0.4,0-0.9-0.3-1-0.7c0-0.1,0-0.2,0-0.3c0-0.4,0.3-0.9,0.7-1l8.1-2.1c0.5-0.1,1.1,0.2,1.2,0.7
			c0,0.1,0,0.2,0,0.3c0,0.4-0.3,0.9-0.7,1l-8.1,2.1C567.4,834,567.3,834,567.2,834z"/>
	</g>
	<g id="XMLID_29_">
		<path class="st7" d="M563.5,810.9c-0.5,0-1-0.4-1-0.9c0,0,0,0,0-0.1c0-0.5,0.4-1,0.9-1l8.3-0.6c0.5,0,1,0.4,1.1,0.9c0,0,0,0,0,0.1
			c0,0.5-0.4,1-0.9,1L563.5,810.9C563.6,810.9,563.5,810.9,563.5,810.9z"/>
	</g>
	<g id="XMLID_28_">
		<path class="st7" d="M572.2,788.4c0,0-0.1,0-0.1,0l-8.3-0.9c-0.5-0.1-0.9-0.5-0.9-1c0,0,0-0.1,0-0.1c0.1-0.5,0.6-0.9,1.1-0.9
			l8.3,0.9c0.5,0.1,0.9,0.5,0.9,1c0,0,0,0.1,0,0.1C573.2,788,572.7,788.4,572.2,788.4z"/>
	</g>
	<g id="XMLID_27_">
		<path class="st7" d="M576.4,766.8c-0.1,0-0.2,0-0.3,0l-8.1-2.3c-0.4-0.1-0.7-0.5-0.7-1c0-0.1,0-0.2,0-0.3c0.2-0.5,0.7-0.8,1.2-0.7
			l8.1,2.3c0.4,0.1,0.7,0.5,0.7,1c0,0.1,0,0.2,0,0.3C577.3,766.5,576.9,766.8,576.4,766.8z"/>
	</g>
	<g id="XMLID_26_">
		<path class="st7" d="M584.2,746.3c-0.1,0-0.3,0-0.4-0.1l-7.5-3.7c-0.4-0.2-0.6-0.5-0.6-0.9c0-0.1,0-0.3,0.1-0.4
			c0.2-0.5,0.8-0.7,1.3-0.5l7.5,3.7c0.4,0.2,0.6,0.5,0.6,0.9c0,0.1,0,0.3-0.1,0.4C584.9,746.1,584.6,746.3,584.2,746.3z"/>
	</g>
	<g id="XMLID_25_">
		<path class="st7" d="M595.6,727.5c-0.2,0-0.4-0.1-0.6-0.2l-6.7-4.9c-0.3-0.2-0.4-0.5-0.4-0.8c0-0.2,0.1-0.4,0.2-0.6
			c0.3-0.4,1-0.5,1.4-0.2l6.7,4.9c0.3,0.2,0.4,0.5,0.4,0.8c0,0.2-0.1,0.4-0.2,0.6C596.2,727.4,595.9,727.5,595.6,727.5z"/>
	</g>
	<g id="XMLID_24_">
		<path class="st7" d="M610.1,711c-0.3,0-0.5-0.1-0.7-0.3l-5.8-6c-0.2-0.2-0.3-0.4-0.3-0.7c0-0.3,0.1-0.5,0.3-0.7
			c0.4-0.4,1-0.4,1.4,0l5.8,6c0.2,0.2,0.3,0.4,0.3,0.7c0,0.3-0.1,0.5-0.3,0.7C610.6,710.9,610.4,711,610.1,711z"/>
	</g>
	<g id="XMLID_23_">
		<path class="st7" d="M627.2,697.3c-0.3,0-0.6-0.2-0.8-0.5l-4.6-7c-0.1-0.2-0.2-0.4-0.2-0.5c0-0.3,0.2-0.6,0.5-0.8
			c0.5-0.3,1.1-0.2,1.4,0.3l4.6,7c0.1,0.2,0.2,0.4,0.2,0.5c0,0.3-0.2,0.6-0.5,0.8C627.6,697.2,627.4,697.3,627.2,697.3z"/>
	</g>
	<g id="XMLID_22_">
		<path class="st7" d="M647.9,686.2c-0.4,0-0.8-0.2-0.9-0.6l-3.3-7.7c-0.1-0.1-0.1-0.3-0.1-0.4c0-0.4,0.2-0.8,0.6-0.9
			c0.5-0.2,1.1,0,1.3,0.5l3.3,7.7c0.1,0.1,0.1,0.3,0.1,0.4c0,0.4-0.2,0.8-0.6,0.9C648.2,686.2,648,686.2,647.9,686.2z"/>
	</g>
	<g id="XMLID_21_">
		<path class="st7" d="M667.3,679.8c-0.5,0-0.9-0.3-1-0.8l-1.9-8.1c0-0.1,0-0.2,0-0.2c0-0.5,0.3-0.9,0.8-1c0.5-0.1,1.1,0.2,1.2,0.7
			l1.9,8.1c0,0.1,0,0.2,0,0.2c0,0.5-0.3,0.9-0.8,1C667.5,679.8,667.4,679.8,667.3,679.8z"/>
	</g>
	<g id="XMLID_20_">
		<path class="st7" d="M689.1,676.6c-0.5,0-1-0.4-1-0.9l-0.5-8.3c0,0,0,0,0-0.1c0-0.5,0.4-1,0.9-1c0.6,0,1,0.4,1.1,0.9l0.5,8.3
			c0,0,0,0,0,0.1C690.1,676.1,689.7,676.6,689.1,676.6C689.2,676.6,689.1,676.6,689.1,676.6z"/>
	</g>
	<g id="XMLID_19_">
		<path class="st7" d="M709.1,677c0,0-0.1,0-0.1,0c-0.5-0.1-0.9-0.5-0.9-1c0,0,0-0.1,0-0.1l0.9-8.3c0.1-0.5,0.6-0.9,1.1-0.9
			c0.5,0.1,0.9,0.5,0.9,1c0,0,0,0.1,0,0.1l-0.9,8.3C710.1,676.6,709.6,677,709.1,677z"/>
	</g>
	<g id="XMLID_18_">
		<path class="st7" d="M727.4,680.3c-0.1,0-0.2,0-0.3,0c-0.5-0.1-0.7-0.5-0.7-1c0-0.1,0-0.2,0-0.3l2.1-8.1c0.1-0.5,0.7-0.9,1.2-0.7
			c0.5,0.1,0.7,0.5,0.7,1c0,0.1,0,0.2,0,0.3l-2.1,8.1C728.3,680,727.9,680.3,727.4,680.3z"/>
	</g>
	<g id="XMLID_17_">
		<path class="st7" d="M749,688c-0.1,0-0.3,0-0.4-0.1c-0.4-0.2-0.6-0.5-0.6-0.9c0-0.1,0-0.3,0.1-0.4l3.5-7.6
			c0.2-0.5,0.8-0.7,1.3-0.5c0.4,0.2,0.6,0.5,0.6,0.9c0,0.1,0,0.3-0.1,0.4l-3.5,7.6C749.8,687.8,749.4,688,749,688z"/>
	</g>
	<g id="XMLID_16_">
		<path class="st7" d="M768.8,699.5c-0.2,0-0.4-0.1-0.6-0.2c-0.3-0.2-0.4-0.5-0.4-0.8c0-0.2,0.1-0.4,0.2-0.6l4.8-6.8
			c0.3-0.5,0.9-0.6,1.4-0.2c0.3,0.2,0.4,0.5,0.4,0.8c0,0.2-0.1,0.4-0.2,0.6l-4.8,6.8C769.4,699.4,769.1,699.5,768.8,699.5z"/>
	</g>
	<g id="XMLID_15_">
		<path class="st7" d="M785.5,713.7c-0.3,0-0.5-0.1-0.7-0.3c-0.2-0.2-0.3-0.4-0.3-0.7c0-0.3,0.1-0.5,0.3-0.7l6-5.8
			c0.4-0.4,1-0.4,1.4,0c0.2,0.2,0.3,0.4,0.3,0.7c0,0.3-0.1,0.5-0.3,0.7l-6,5.8C786,713.6,785.8,713.7,785.5,713.7z"/>
	</g>
	<g id="XMLID_14_">
		<path class="st7" d="M799.4,730.7c-0.3,0-0.6-0.2-0.8-0.4c-0.1-0.2-0.2-0.4-0.2-0.6c0-0.3,0.2-0.6,0.4-0.8l6.9-4.7
			c0.5-0.3,1.1-0.2,1.4,0.3c0.1,0.2,0.2,0.4,0.2,0.6c0,0.3-0.2,0.6-0.4,0.8l-6.9,4.7C799.8,730.6,799.6,730.7,799.4,730.7z"/>
	</g>
	<g id="XMLID_13_">
		<path class="st7" d="M810.2,749.8c-0.4,0-0.7-0.2-0.9-0.6c-0.1-0.1-0.1-0.3-0.1-0.4c0-0.4,0.2-0.7,0.6-0.9l7.6-3.4
			c0.5-0.2,1.1,0,1.3,0.5c0.1,0.1,0.1,0.3,0.1,0.4c0,0.4-0.2,0.7-0.6,0.9l-7.6,3.4C810.5,749.8,810.4,749.8,810.2,749.8z"/>
	</g>
	<g id="XMLID_12_">
		<path class="st7" d="M696.2,936c-74.7,0-135.4-60.7-135.4-135.4c0-74.7,60.7-135.4,135.4-135.4s135.4,60.7,135.4,135.4
			C831.6,875.3,770.9,936,696.2,936z M696.2,667.2c-73.6,0-133.4,59.8-133.4,133.4c0,73.6,59.8,133.4,133.4,133.4
			s133.4-59.8,133.4-133.4C829.6,727,769.8,667.2,696.2,667.2z"/>
	</g>
	<g id="XMLID_11_">
		<path class="st7" d="M829.2,815.1c0,0-0.1,0-0.1,0l-10-1c-0.5-0.1-1-0.5-0.9-1.1c0.1-0.5,0.5-0.9,1.1-0.9l10,1
			c0.5,0.1,1,0.5,0.9,1.1C830.2,814.7,829.7,815.1,829.2,815.1z"/>
	</g>
</g>
</svg>
